<svg id="Layer_1" data-name="Layer 1" xmlns="http://www.w3.org/2000/svg" viewBox="0 0 128 128"><title>Artboard 1</title><path d="M57,20.25a13.45,13.45,0,0,1-1.82,6.52,19.41,19.41,0,0,1-5,5.81,27.15,27.15,0,0,1-9.2,4.57q6.39,1.91,8.2,2.36a12,12,0,0,0,2.91.43,4.67,4.67,0,0,0,3.24-1.32l.16-.08a.19.19,0,0,1,.12.18c0,.19-.32.5-1,.91a9,9,0,0,1-4.84,1.07,25.28,25.28,0,0,1-4.82-.37A38.26,38.26,0,0,1,38.3,38.1l-.49-.19a25.34,25.34,0,0,1-5.6.58c-3.73,0-5.59-.59-5.59-1.79q0-1.53,4.32-1.53a33.41,33.41,0,0,1,9.5,1.8,21.55,21.55,0,0,0,10.49-7.24,17.45,17.45,0,0,0,4.21-11A6.58,6.58,0,0,0,53.57,14a5.64,5.64,0,0,0-4.35-1.68q-5.74,0-11.19,5.37T32.58,28.79A5.11,5.11,0,0,0,34,32.57a5.22,5.22,0,0,0,3.81,1.37q5,0,8.93-4.8,3.28-4,3.28-7.79a4,4,0,0,0-.81-2.59,2.52,2.52,0,0,0-2.08-1,3,3,0,0,0-1.35.38q-.72.39-.72.72c0,.05,0,.07.12.07l.31-.15a.9.9,0,0,1,.53-.14c.63,0,1,.35,1,1.06a1.52,1.52,0,0,1-.44,1.09,1.39,1.39,0,0,1-1,.47c-.82,0-1.23-.44-1.23-1.33a2.32,2.32,0,0,1,.83-1.79,3,3,0,0,1,2-.73,3.33,3.33,0,0,1,2.76,1.43,5.82,5.82,0,0,1,1.09,3.65c0,3-1.35,5.72-4,8.16a13.1,13.1,0,0,1-9,3.68,6.62,6.62,0,0,1-4.94-1.85,6.8,6.8,0,0,1-1.82-5q0-6.57,6.76-11.45a19.42,19.42,0,0,1,11.41-4.08,7.23,7.23,0,0,1,5.57,2.31A8.46,8.46,0,0,1,57,20.25ZM37.24,37.69q-5.89-1.9-8-1.91c-1.53,0-2.29.31-2.29.92q0,1.44,5.27,1.44A22.69,22.69,0,0,0,37.24,37.69Z" style="fill:#231f20"/><path d="M67.82,32.14q0,.45-2.83,3.79-2.35,2.77-3.72,2.78A1.87,1.87,0,0,1,59.81,38a2.52,2.52,0,0,1-.59-1.67A4.83,4.83,0,0,1,60,34.22l-.39.52A29.81,29.81,0,0,1,57,37.83a2.6,2.6,0,0,1-1.74.88A1.86,1.86,0,0,1,53.77,38a2.44,2.44,0,0,1-.59-1.65,5.24,5.24,0,0,1,.88-2.6l3.56-6a5.56,5.56,0,0,0,1,.14A11.65,11.65,0,0,0,60,27.81l-4.65,7.66a4.13,4.13,0,0,0-.7,2.07c0,.58.25.88.74.88q2,0,6.33-7.37l1.91-3.24a5,5,0,0,0,1,.14A10.34,10.34,0,0,0,66,27.81l-3.13,5.1c-1.48,2.42-2.23,4-2.23,4.67s.27.84.81.84c1,0,2.73-1.65,5.08-4.93l.61-.84.35-.43c.06-.13.13-.2.2-.2S67.82,32.06,67.82,32.14Z" style="fill:#231f20"/><path d="M74.5,32.14a2.26,2.26,0,0,1-.19.31l-.84,1.15C71,37,69.14,38.71,67.85,38.71a2,2,0,0,1-1.53-.65,2.31,2.31,0,0,1-.62-1.64A7.94,7.94,0,0,1,67.05,33l3-5.18a4.7,4.7,0,0,0,1,.14,11.54,11.54,0,0,0,1.49-.14L68.11,35.1a5.3,5.3,0,0,0-1,2.44.8.8,0,0,0,.92.88q1.74,0,6.12-6.2c.06-.13.13-.2.19-.2A.11.11,0,0,1,74.5,32.14Zm-.28-8.08a1.8,1.8,0,0,1-.58,1.28,1.71,1.71,0,0,1-1.26.6.78.78,0,0,1-.88-.88,1.75,1.75,0,0,1,.61-1.24,1.8,1.8,0,0,1,1.27-.6A.74.74,0,0,1,74.22,24.06Z" style="fill:#231f20"/><path d="M86.25,27.88q0,.64-1.8,1.68c-1.32,1.12-3.58,2.87-6.75,5.26q-.63.45-1.65,1.23l.57,0a2.13,2.13,0,0,1,1.66.65,3.34,3.34,0,0,1,.94,1.8,16.29,16.29,0,0,0,3.08-2.62,24,24,0,0,0,2.94-3.45c.16-.23.28-.35.38-.35s.06,0,.07.08c0,.26-.71,1.17-2.12,2.75a26.15,26.15,0,0,1-4.31,3.92v.51a8.82,8.82,0,0,1-1.55,4.63,12.71,12.71,0,0,1-3.8,4c-3.32,2.19-6,3.28-7.93,3.28-1.53,0-2.29-.62-2.29-1.86q0-2.14,3.13-4.51a54.18,54.18,0,0,1,8.39-4.2,24.09,24.09,0,0,0,2.49-1.25A4.78,4.78,0,0,0,78,37.73c0-1-.52-1.46-1.57-1.46a4,4,0,0,0-.68,0l-.27.23-.72.69c-1.22,1.14-2,1.71-2.36,1.71s-.5-.15-.5-.45c0-.83,1.21-1.62,3.62-2.36Q81,32,83.87,29.71l-.41.27a3.59,3.59,0,0,1-2,.76,2.91,2.91,0,0,1-1.64-.84,2.64,2.64,0,0,0-1.52-.76q-1.22,0-3.66,3c-.14.17-.25.25-.31.25s-.08-.05-.08-.11a8.44,8.44,0,0,1,1.8-2.25q2.19-2.32,3.69-2.33A7.17,7.17,0,0,1,82.34,29a2.37,2.37,0,0,0,1.23.43,1.4,1.4,0,0,0,.61-.15l.23-.32.65-.8a1.19,1.19,0,0,1,.88-.56C86.15,27.62,86.25,27.7,86.25,27.88ZM77.58,39.71c-.33.16-2.18,1-5.57,2.63A24.85,24.85,0,0,0,66.09,46C64.66,47.22,64,48.37,64,49.41s.66,1.53,2,1.53q2.79,0,6.43-3.51A20.68,20.68,0,0,0,77.58,39.71Z" style="fill:#231f20"/><path d="M62.89,48.58c0,.85-.59,1.73-1.76,2.64a7.88,7.88,0,0,1,1.6,4.35c0,.33-.1.49-.29.49s-.24-.21-.24-.64a7,7,0,0,0-1.36-4,25.91,25.91,0,0,1-7.71,3.64,29,29,0,0,1-8.64,1.54c-.35,0-.66,0-.92,0A14.51,14.51,0,0,0,40.45,65a5.68,5.68,0,0,0,1.71,4.35,6.5,6.5,0,0,0,4.65,1.6q5.56,0,9.93-5.33a9.89,9.89,0,0,0,2.63-6.11,3.23,3.23,0,0,0-.91-2.42,3.34,3.34,0,0,0-2.44-.9c-1.63,0-3.37.85-5.24,2.57S48,62.06,48,63.54c0,.13,0,.2.11.2a.34.34,0,0,0,.16-.08,1.53,1.53,0,0,1,1-.47c.65,0,1,.36,1,1.07a1.26,1.26,0,0,1-1.4,1.45q-1.29,0-1.29-1.56,0-2.79,2.83-5.54a8.32,8.32,0,0,1,5.74-2.74q3.75,0,3.75,4.12c0,2.84-1.36,5.42-4.07,7.76a13.53,13.53,0,0,1-9,3.51,7.92,7.92,0,0,1-5.81-2.33,7.75,7.75,0,0,1-2.36-5.74,12.35,12.35,0,0,1,2.33-6.82q-8.46-1.56-8.46-6.68,0-3,3.14-5.09a14.05,14.05,0,0,1,7.84-2.05A24.13,24.13,0,0,1,56.64,46.9,11.52,11.52,0,0,1,59,46.67C61.59,46.67,62.89,47.3,62.89,48.58ZM56.09,47a24.85,24.85,0,0,0-12.64-3.44,13.26,13.26,0,0,0-7.23,2q-3.11,2-3.1,4.57,0,4.68,7.93,6Q46,49.25,56.09,47Zm4.59,4.2a14.64,14.64,0,0,0-4-3.85,22.91,22.91,0,0,0-7.13,3.43,23.34,23.34,0,0,0-5.7,5.54,31.39,31.39,0,0,0,9-1.5A25.73,25.73,0,0,0,60.68,51.18Zm1.9-2.6c0-1.07-1-1.6-3.13-1.6a12,12,0,0,0-2.32.27A15.34,15.34,0,0,1,61,51C62,50.07,62.58,49.27,62.58,48.58Z" style="fill:#231f20"/><path d="M72.1,64.14a7.06,7.06,0,0,1-1.18,1.43,4,4,0,0,1-2.79,1.64c-1,0-1.49-.57-1.49-1.72a5.61,5.61,0,0,1,.23-1.38,12.6,12.6,0,0,0-2,2.13q-.77,1-2.67,4.29c-.69,0-1.09-.07-1.21-.07l-1.19.07L63,65.34c1.6-2.61,2.4-4.22,2.4-4.85q0-.54-.45-.54-1.09,0-4,4.21c-.11.18-.22.27-.31.27s-.08-.05-.08-.12a.36.36,0,0,1,.08-.15l.35-.49c2-2.68,3.38-4,4.09-4,1,0,1.57.68,1.57,2a8.17,8.17,0,0,1-1.6,4A15,15,0,0,1,67,63.74a9.79,9.79,0,0,1,1.84-2.91,3,3,0,0,1,2-1.18c.4,0,.6.18.6.53,0,.63-.9,1.52-2.71,2.68l-1.29.8-.24.19a5.42,5.42,0,0,0-.27,1.49c0,1.09.41,1.64,1.23,1.64,1,0,2.13-.84,3.33-2.53.26-.29.42-.43.49-.43A.11.11,0,0,1,72.1,64.14Z" style="fill:#231f20"/><path d="M85.81,64.14c0,.27-1,1.54-2.86,3.79-1.53,1.85-2.75,2.78-3.63,2.78A1.86,1.86,0,0,1,77.85,70a2.54,2.54,0,0,1-.57-1.69,5.05,5.05,0,0,1,.63-2.29,26.83,26.83,0,0,1-3,3.69,3,3,0,0,1-2,1,2.15,2.15,0,0,1-1.74-.89,3.49,3.49,0,0,1-.7-2.24q0-3.75,5.29-6.64a8.39,8.39,0,0,1,3.75-1.29,1.06,1.06,0,0,1,1.21,1.18,3.23,3.23,0,0,1-.16.88l1-1.9a4.75,4.75,0,0,0,1,.14A9,9,0,0,0,84,59.81l-3.45,5.72c-1.2,2-1.8,3.33-1.8,4s.25.92.76.92,1.36-.6,2.5-1.79a34.66,34.66,0,0,0,3.51-4.41c.07-.13.15-.2.21-.2A.11.11,0,0,1,85.81,64.14ZM80.43,60.9c0-.63-.3-.95-.88-.95q-1.8,0-4.72,3.51c-2,2.35-2.92,4.24-2.92,5.69,0,.84.38,1.27,1.13,1.27s2.46-1.49,4.67-4.48Q80.43,62.28,80.43,60.9Z" style="fill:#231f20"/><path d="M99.08,50.14q0,1.74-2.46,4.37a32.45,32.45,0,0,1-6.45,5.14h3.36l-.18.3H90l-1.61,3.1a70.1,70.1,0,0,1-5,8.68,27.75,27.75,0,0,1-4.82,5.21q-3.78,3.12-7,3.12c-1,0-1.44-.14-1.44-.41s.07-.2.21-.2a.52.52,0,0,1,.24,0,4.61,4.61,0,0,0,1.32.2,8.1,8.1,0,0,0,5.32-2.36A15.58,15.58,0,0,0,80,73.93q1-1.56,4.81-8.51l3-5.47H85.72l.15-.3H88a38.22,38.22,0,0,1,5.53-7.33q3-3.09,4.67-3.09C98.79,49.23,99.08,49.53,99.08,50.14Zm-.23,0a.57.57,0,0,0-.65-.64q-1.49,0-4,3.4a61.61,61.61,0,0,0-3.83,6.4,36.29,36.29,0,0,0,5.86-5.07C98,52.29,98.85,50.92,98.85,50.1Z" style="fill:#231f20"/><path d="M98.36,59.65l-.16.3H95.64l-4.35,7.44a4.55,4.55,0,0,0-.8,2.15.79.79,0,0,0,.91.88q1.78,0,6-6.2c.09-.13.17-.2.23-.2a.11.11,0,0,1,.12.12,2.26,2.26,0,0,1-.19.31l-.84,1.15c-2.46,3.41-4.3,5.11-5.54,5.11a2,2,0,0,1-1.53-.66A2.37,2.37,0,0,1,89,68.39a6.14,6.14,0,0,1,1-2.93L93.36,60h-2l.2-.3h2l2.29-3.78a4.26,4.26,0,0,0,2.24,0L95.8,59.65Z" style="fill:#231f20"/><path d="M46.29,97.76a8,8,0,0,1-1.09,3.91,11.8,11.8,0,0,1-3,3.48,16.23,16.23,0,0,1-5.52,2.75q3.82,1.14,4.92,1.41a6.91,6.91,0,0,0,1.74.26,2.81,2.81,0,0,0,2-.79l.09,0a.12.12,0,0,1,.07.11c0,.12-.19.3-.57.55A5.46,5.46,0,0,1,42,110a15.22,15.22,0,0,1-2.89-.22,23.38,23.38,0,0,1-4-1.34l-.3-.12a14.8,14.8,0,0,1-3.36.36c-2.23,0-3.35-.36-3.35-1.08s.86-.92,2.59-.92a20,20,0,0,1,5.7,1.08,12.94,12.94,0,0,0,6.29-4.35,10.39,10.39,0,0,0,2.53-6.61A4,4,0,0,0,44.25,94a3.38,3.38,0,0,0-2.61-1q-3.45,0-6.72,3.23c-2.18,2.14-3.27,4.36-3.27,6.64a3,3,0,0,0,.84,2.27,3.08,3.08,0,0,0,2.28.82,6.84,6.84,0,0,0,5.36-2.88,7.52,7.52,0,0,0,2-4.67,2.46,2.46,0,0,0-.49-1.56,1.51,1.51,0,0,0-1.25-.61,1.67,1.67,0,0,0-.81.23c-.29.15-.43.29-.43.42s0,0,.07,0l.19-.09a.49.49,0,0,1,.31-.08c.39,0,.58.21.58.63a.89.89,0,0,1-.27.65.81.81,0,0,1-.62.29c-.49,0-.74-.27-.74-.8a1.38,1.38,0,0,1,.5-1.07,1.71,1.71,0,0,1,1.2-.44,2,2,0,0,1,1.66.85,3.54,3.54,0,0,1,.65,2.19,6.52,6.52,0,0,1-2.43,4.9,7.86,7.86,0,0,1-5.4,2.21,4,4,0,0,1-3-1.11,4.12,4.12,0,0,1-1.09-3c0-2.62,1.36-4.91,4.06-6.86a11.58,11.58,0,0,1,6.84-2.45A4.37,4.37,0,0,1,45,94.15,5.12,5.12,0,0,1,46.29,97.76ZM34.45,108.22a19.62,19.62,0,0,0-4.79-1.14c-.91,0-1.37.18-1.37.55,0,.58,1.06.86,3.16.86A13.59,13.59,0,0,0,34.45,108.22Z" style="fill:#231f20"/><path d="M52.8,104.89a10.47,10.47,0,0,1-1.7,2.28c-.94,1.11-1.68,1.66-2.23,1.66a1.1,1.1,0,0,1-.87-.41,1.48,1.48,0,0,1-.36-1,2.87,2.87,0,0,1,.46-1.28l-.24.32a18.69,18.69,0,0,1-1.58,1.85,1.58,1.58,0,0,1-1,.52,1.09,1.09,0,0,1-.87-.4,1.48,1.48,0,0,1-.35-1,3.08,3.08,0,0,1,.53-1.56l2.13-3.59a3,3,0,0,0,.62.09,6.25,6.25,0,0,0,.8-.09l-2.79,4.6a2.5,2.5,0,0,0-.42,1.24c0,.35.14.53.44.53q1.19,0,3.8-4.42l1.15-1.95a2.57,2.57,0,0,0,.61.09,5.49,5.49,0,0,0,.83-.09l-1.88,3.06a8.21,8.21,0,0,0-1.33,2.8q0,.51.48.51c.62,0,1.64-1,3-3l.36-.5.21-.26q.06-.12.12-.12C52.78,104.82,52.8,104.84,52.8,104.89Z" style="fill:#231f20"/><path d="M56.81,104.89a1.87,1.87,0,0,1-.12.19l-.5.69c-1.47,2-2.6,3.06-3.37,3.06a1.22,1.22,0,0,1-.92-.39,1.36,1.36,0,0,1-.37-1,4.78,4.78,0,0,1,.81-2.06l1.83-3.11a2.5,2.5,0,0,0,.57.09,6.14,6.14,0,0,0,.89-.09L53,106.67a3.22,3.22,0,0,0-.57,1.46c0,.35.18.53.55.53.69,0,1.92-1.24,3.67-3.72q.06-.12.12-.12S56.81,104.84,56.81,104.89ZM56.64,100a1.1,1.1,0,0,1-.35.77,1,1,0,0,1-.75.36.47.47,0,0,1-.53-.53,1,1,0,0,1,.36-.74,1.1,1.1,0,0,1,.77-.36A.44.44,0,0,1,56.64,100Z" style="fill:#231f20"/><path d="M63.86,102.34c0,.25-.36.59-1.08,1-.8.67-2.15,1.73-4.05,3.16l-1,.74.34,0a1.25,1.25,0,0,1,1,.38,2,2,0,0,1,.56,1.08,9.84,9.84,0,0,0,1.85-1.57A13.9,13.9,0,0,0,63.25,105c.1-.14.17-.21.23-.21a0,0,0,0,1,0,0,6.31,6.31,0,0,1-1.27,1.65,15.6,15.6,0,0,1-2.59,2.35v.31a5.38,5.38,0,0,1-.92,2.78,7.67,7.67,0,0,1-2.29,2.38c-2,1.32-3.58,2-4.76,2-.91,0-1.37-.37-1.37-1.11s.63-1.76,1.88-2.71a33,33,0,0,1,5-2.52,14.8,14.8,0,0,0,1.49-.75,2.91,2.91,0,0,0,.19-1c0-.59-.31-.88-.93-.88l-.41,0-.17.14-.43.41c-.73.69-1.2,1-1.41,1s-.3-.09-.3-.26c0-.5.72-1,2.17-1.42q3.27-2.48,5-3.86l-.25.17a2.16,2.16,0,0,1-1.19.45,1.76,1.76,0,0,1-1-.5,1.55,1.55,0,0,0-.91-.46c-.49,0-1.22.61-2.2,1.82-.08.1-.15.15-.19.15a.05.05,0,0,1,0-.06q0-.21,1.08-1.35a3.49,3.49,0,0,1,2.21-1.4,4.39,4.39,0,0,1,1.56.77,1.47,1.47,0,0,0,.74.26.8.8,0,0,0,.36-.09l.15-.19.38-.48a.72.72,0,0,1,.53-.34C63.8,102.18,63.86,102.23,63.86,102.34Zm-5.21,7.09c-.19.1-1.3.63-3.34,1.58a14.93,14.93,0,0,0-3.55,2.18,3,3,0,0,0-1.28,2.07c0,.61.39.91,1.19.91,1.12,0,2.4-.7,3.86-2.1A12.36,12.36,0,0,0,58.65,109.43Z" style="fill:#231f20"/><path d="M78.77,95.56a2.23,2.23,0,0,1-1.06,1.58,4.76,4.76,0,0,1,1,2.61c0,.2-.06.3-.17.3s-.14-.13-.14-.39a4.27,4.27,0,0,0-.82-2.38,16,16,0,0,1-4.63,2.19,17.67,17.67,0,0,1-5.18.92,4.33,4.33,0,0,1-.55,0,8.71,8.71,0,0,0-1.88,5,3.38,3.38,0,0,0,1,2.61,3.91,3.91,0,0,0,2.79,1,7.59,7.59,0,0,0,5.95-3.2,5.93,5.93,0,0,0,1.59-3.67,2,2,0,0,0-.55-1.46,2.05,2.05,0,0,0-1.47-.53,4.84,4.84,0,0,0-3.14,1.54,4.17,4.17,0,0,0-1.68,2.87c0,.08,0,.12.07.12a.19.19,0,0,0,.1-.05.94.94,0,0,1,.58-.28c.39,0,.59.22.59.65a.75.75,0,0,1-.84.86q-.78,0-.78-.93a4.74,4.74,0,0,1,1.7-3.33,5,5,0,0,1,3.45-1.64c1.5,0,2.25.82,2.25,2.47a6.11,6.11,0,0,1-2.45,4.66,8.09,8.09,0,0,1-5.42,2.1,4.75,4.75,0,0,1-3.48-1.39,4.66,4.66,0,0,1-1.41-3.45,7.38,7.38,0,0,1,1.39-4.09c-3.38-.62-5.07-2-5.07-4a3.6,3.6,0,0,1,1.88-3.06,8.45,8.45,0,0,1,4.7-1.23A14.52,14.52,0,0,1,75,94.55a7.33,7.33,0,0,1,1.41-.14C78,94.41,78.77,94.79,78.77,95.56Zm-4.08-1a14.86,14.86,0,0,0-7.58-2.07,7.92,7.92,0,0,0-4.35,1.18,3.3,3.3,0,0,0-1.85,2.74q0,2.79,4.75,3.62Q68.61,96,74.69,94.6Zm2.75,2.52A8.79,8.79,0,0,0,75,94.81a13.78,13.78,0,0,0-4.28,2,14.1,14.1,0,0,0-3.42,3.33,18.86,18.86,0,0,0,5.42-.9A15.51,15.51,0,0,0,77.44,97.12Zm1.14-1.56c0-.64-.63-1-1.88-1a7,7,0,0,0-1.39.16A9.31,9.31,0,0,1,77.62,97Q78.58,96.18,78.58,95.56Z" style="fill:#231f20"/><path d="M84.29,104.89a4.15,4.15,0,0,1-.7.86,2.45,2.45,0,0,1-1.68,1c-.6,0-.89-.35-.89-1a3,3,0,0,1,.14-.84,7.38,7.38,0,0,0-1.2,1.28c-.31.42-.85,1.28-1.6,2.58l-.73,0-.72,0,1.93-3.12a9.39,9.39,0,0,0,1.44-2.9q0-.33-.27-.33c-.44,0-1.24.84-2.39,2.52-.07.11-.13.17-.18.17s0,0,0-.07a.19.19,0,0,1,0-.1l.21-.29c1.2-1.61,2-2.41,2.45-2.41.63,0,.94.4.94,1.21a4.87,4.87,0,0,1-1,2.39,8.91,8.91,0,0,1,1.16-1.15,5.89,5.89,0,0,1,1.11-1.75,1.81,1.81,0,0,1,1.19-.7c.24,0,.36.11.36.32,0,.37-.54.91-1.63,1.6l-.77.48-.14.12a3.24,3.24,0,0,0-.17.89c0,.66.25,1,.74,1s1.28-.51,2-1.52c.15-.17.25-.26.29-.26S84.29,104.84,84.29,104.89Z" style="fill:#231f20"/><path d="M92.52,104.89a11,11,0,0,1-1.72,2.28c-.92,1.11-1.65,1.66-2.18,1.66a1.1,1.1,0,0,1-.88-.4,1.56,1.56,0,0,1-.34-1,3,3,0,0,1,.38-1.37,15.36,15.36,0,0,1-1.8,2.21,1.8,1.8,0,0,1-1.2.57,1.28,1.28,0,0,1-1-.53,2.08,2.08,0,0,1-.42-1.34q0-2.25,3.18-4a5,5,0,0,1,2.25-.78.63.63,0,0,1,.72.7,2.08,2.08,0,0,1-.09.53l.6-1.13a3,3,0,0,0,.62.08,6,6,0,0,0,.82-.08l-2.07,3.43a6.61,6.61,0,0,0-1.08,2.38c0,.37.15.55.46.55s.81-.36,1.5-1.08a19.32,19.32,0,0,0,2.1-2.64c.05-.08.09-.12.13-.12A.06.06,0,0,1,92.52,104.89ZM89.29,103c0-.38-.18-.57-.53-.57-.72,0-1.66.7-2.83,2.11a6.05,6.05,0,0,0-1.75,3.41c0,.5.23.76.68.76s1.47-.9,2.8-2.68C88.75,104.51,89.29,103.5,89.29,103Z" style="fill:#231f20"/><path d="M100.48,96.49A4.34,4.34,0,0,1,99,99.11a19.54,19.54,0,0,1-3.87,3.09h2l-.11.18H95l-1,1.86a42.7,42.7,0,0,1-3,5.21,16.53,16.53,0,0,1-2.9,3.12,6.8,6.8,0,0,1-4.2,1.88c-.58,0-.87-.09-.87-.25s0-.12.13-.12l.14,0a3,3,0,0,0,.8.13,4.88,4.88,0,0,0,3.18-1.42,9.25,9.25,0,0,0,1.73-2c.4-.63,1.37-2.33,2.88-5.11l1.81-3.28H92.46l.1-.18h1.27a23.15,23.15,0,0,1,3.32-4.4c1.21-1.24,2.15-1.86,2.8-1.86A.48.48,0,0,1,100.48,96.49Zm-.14,0a.34.34,0,0,0-.39-.39c-.59,0-1.4.68-2.42,2a37.12,37.12,0,0,0-2.3,3.85,22.21,22.21,0,0,0,3.52-3C99.81,97.78,100.34,97,100.34,96.47Z" style="fill:#231f20"/><path d="M100.05,102.2l-.1.18H98.42l-2.62,4.46a2.79,2.79,0,0,0-.48,1.29c0,.35.19.53.56.53q1.07,0,3.6-3.72c0-.08.1-.12.14-.12s.07,0,.07.07a1.87,1.87,0,0,1-.12.19l-.5.69q-2.2,3.06-3.32,3.06a1.2,1.2,0,0,1-.92-.39,1.41,1.41,0,0,1-.37-1,3.65,3.65,0,0,1,.62-1.76l2-3.3h-1.2l.12-.18h1.17l1.37-2.27a2.75,2.75,0,0,0,.67.09,2.71,2.71,0,0,0,.68-.09l-1.35,2.27Z" style="fill:#231f20"/></svg>