<svg id="Layer_1" data-name="Layer 1" xmlns="http://www.w3.org/2000/svg" viewBox="0 0 128 128"><title>Artboard 2</title><path d="M28.67,40.87l2.07.76c0,.48.06.83.06,1.06q0,4.86-4.59,4.86c-3,0-4.85-1.79-5.52-5.37-.5,0-1,.06-1.43.06q-11.94,0-11.93-13.83T19.22,14.68q11.75,0,11.74,14Q31,38,24.9,41c.63,1.64,1.39,2.46,2.29,2.46,1.11,0,1.62-.71,1.54-2.11A3.07,3.07,0,0,0,28.67,40.87ZM16,35.85a3.79,3.79,0,0,1,3-2c1.18,0,2.19.78,3,2.36a34.63,34.63,0,0,0,.82-8.2c0-4.34-.25-7.3-.77-8.88a2.93,2.93,0,0,0-2.9-2.37c-1.4,0-2.37.8-2.91,2.42s-.8,4.56-.8,8.83A43.42,43.42,0,0,0,16,35.85Zm4.37,3.85c-.28-2-.91-2.93-1.87-2.93a2.43,2.43,0,0,0-2,1.42A2.68,2.68,0,0,0,19,40.11,2.53,2.53,0,0,0,20.33,39.7Z" style="fill:#231f20;stroke:#231f20;stroke-miterlimit:10"/><path d="M51.78,21.53v20.2H44.65V38.58a7.43,7.43,0,0,1-6.33,3.52Q33.1,42.1,33.1,37V22q3.6-.15,7.13-.51V36.85c0,1.32.41,2,1.21,2q3.21,0,3.21-6.88V22Q48.22,21.89,51.78,21.53Z" style="fill:#231f20;stroke:#231f20;stroke-miterlimit:10"/><path d="M54.86,41.73V22.06A52.26,52.26,0,0,0,62,21.53v20.2ZM58.47,14.4c2.21,0,3.32.86,3.32,2.58s-1.11,2.58-3.32,2.58S55.15,18.7,55.15,17,56.26,14.4,58.47,14.4Z" style="fill:#231f20;stroke:#231f20;stroke-miterlimit:10"/><path d="M79.81,22v2.21L71.2,39.52h8.61v2.21H63.37V39.31L72,24.25H64.21V22Z" style="fill:#231f20;stroke:#231f20;stroke-miterlimit:10"/><path d="M51.2,67.79l3.3.86c0,.68.07,1.26.07,1.76a7.63,7.63,0,0,1-2.81,6.21,11.46,11.46,0,0,1-7.54,2.32q-11.85,0-11.85-13.34a15,15,0,0,1,3.45-10.26,11.45,11.45,0,0,1,9-3.94q8.66,0,8.65,8.33l-3.32,1.52c0-.78.06-1.39.06-1.82q0-5.9-4.73-5.9-5,0-5,12.52,0,10.77,5.59,10.76A4.83,4.83,0,0,0,49.92,75a6.91,6.91,0,0,0,1.53-4.59A21,21,0,0,0,51.2,67.79Z" style="fill:#231f20;stroke:#231f20;stroke-miterlimit:10"/><path d="M70.33,66H65.45a15.11,15.11,0,0,1,.45-1.7,4.63,4.63,0,0,0,.27-1.45c0-.83-.3-1.25-.9-1.25-.45,0-.89.55-1.31,1.65a9.9,9.9,0,0,0-.62,3.49V78.49H56.21V58.81l1.39,0a37,37,0,0,0,5.74-.53v3.24q1.74-3.24,4.26-3.24Q71,58.3,71,62.09a9.4,9.4,0,0,1-.34,2.28C70.63,64.73,70.5,65.25,70.33,66Z" style="fill:#231f20;stroke:#231f20;stroke-miterlimit:10"/><path d="M92.14,77.79a14,14,0,0,1-5.09,1q-3.67,0-4.53-2.29A6,6,0,0,1,77.4,78.9q-6.24,0-6.23-5.78c0-2.93,1.9-5,5.7-6.17,3.49-1.09,5.24-2.41,5.24-3.94,0-2-1-3-3-3q-3.48,0-3.48,2.93a7.39,7.39,0,0,0,.55,2.42l-3.54-.68a11.85,11.85,0,0,1-.13-1.72q0-4.69,8.55-4.69,8.13,0,8.13,4.38V74.57c0,1.22.39,1.83,1.19,1.83A2.47,2.47,0,0,0,91.46,76ZM82.05,66.66a6.12,6.12,0,0,1-1.55,1.27,4.6,4.6,0,0,0-2.2,4.33c0,2.61.5,3.91,1.52,3.91,1.48,0,2.23-1.29,2.23-3.87Z" style="fill:#231f20;stroke:#231f20;stroke-miterlimit:10"/><path d="M102.75,58.81V61H99.93V78.49H92.8V61H90.3v-2.2h2.5V57.05a5.27,5.27,0,0,1,1.71-4,6,6,0,0,1,4.29-1.61q5.16,0,5.16,3.87c0,.2,0,.44,0,.74l-3.38,1.2a6.74,6.74,0,0,0,.27-1.61q0-2.07-1.44-2.07c-.84,0-1.25.61-1.25,1.82,0,.74.6,1.89,1.79,3.44Z" style="fill:#231f20;stroke:#231f20;stroke-miterlimit:10"/><path d="M114.73,58.87v2.2h-3.16V75c0,.87.28,1.31.84,1.31.4,0,.64-.3.72-.88l2,.19q-.84,3.09-5.35,3.09-5.37,0-5.37-4.57V61.07h-2.38v-2.2h2.38V55.39a32.08,32.08,0,0,0,7.13-2.93v6.41Z" style="fill:#231f20;stroke:#231f20;stroke-miterlimit:10"/><path d="M30.55,42.23l2.07.76c0,.48.05.84.05,1.06q0,4.86-4.59,4.86c-3,0-4.85-1.79-5.52-5.37-.5,0-1,.06-1.43.06Q9.21,43.6,9.2,29.77T21.09,16q11.75,0,11.74,14,0,9.24-6,12.31.93,2.46,2.28,2.46c1.11,0,1.62-.7,1.54-2.11A4.26,4.26,0,0,0,30.55,42.23Zm-12.72-5a3.79,3.79,0,0,1,3-2c1.18,0,2.19.79,3,2.36a35.17,35.17,0,0,0,.82-8.2q0-6.51-.78-8.88A2.93,2.93,0,0,0,21,18.17c-1.4,0-2.37.81-2.91,2.42s-.8,4.56-.8,8.83A43.34,43.34,0,0,0,17.83,37.21Zm4.38,3.85c-.29-2-.92-2.93-1.88-2.93a2.42,2.42,0,0,0-2,1.43,2.69,2.69,0,0,0,2.58,1.91A2.58,2.58,0,0,0,22.21,41.06Z" style="fill:#312f8f;stroke:#fff;stroke-miterlimit:10"/><path d="M53.65,22.9V43.09H46.52V40a7.44,7.44,0,0,1-6.33,3.51c-3.48,0-5.21-1.69-5.21-5.08v-15c2.39-.1,4.77-.27,7.12-.5V38.21c0,1.33.41,2,1.22,2q3.2,0,3.2-6.88V23.4Q50.09,23.25,53.65,22.9Z" style="fill:#312f8f;stroke:#fff;stroke-miterlimit:10"/><path d="M56.73,43.09V23.42a52.06,52.06,0,0,0,7.13-.52V43.09Zm3.61-27.32c2.22,0,3.32.86,3.32,2.57s-1.1,2.58-3.32,2.58S57,20.06,57,18.34,58.13,15.77,60.34,15.77Z" style="fill:#312f8f;stroke:#fff;stroke-miterlimit:10"/><path d="M81.69,23.4v2.21L73.07,40.88h8.62v2.21H65.24V40.67l8.59-15.06H66.08V23.4Z" style="fill:#312f8f;stroke:#fff;stroke-miterlimit:10"/><path d="M53.07,69.15l3.3.86c.05.68.08,1.27.08,1.76A7.64,7.64,0,0,1,53.63,78a11.44,11.44,0,0,1-7.54,2.33Q34.24,80.31,34.24,67A15,15,0,0,1,37.7,56.7a11.41,11.41,0,0,1,9-3.93q8.65,0,8.65,8.32L52,62.61c0-.78.06-1.39.06-1.82,0-3.93-1.57-5.89-4.73-5.89q-5,0-5,12.51,0,10.77,5.59,10.77a4.81,4.81,0,0,0,3.84-1.84,6.91,6.91,0,0,0,1.53-4.59A19.16,19.16,0,0,0,53.07,69.15Z" style="fill:#312f8f;stroke:#fff;stroke-miterlimit:10"/><path d="M72.2,67.32H67.32a15.11,15.11,0,0,1,.45-1.7A4.63,4.63,0,0,0,68,64.17c0-.83-.3-1.25-.89-1.25s-.9.55-1.31,1.65a9.73,9.73,0,0,0-.63,3.49v11.8H58.08V60.17l1.39,0a37,37,0,0,0,5.74-.53V62.9q1.74-3.24,4.26-3.24,3.44,0,3.44,3.79a9.27,9.27,0,0,1-.33,2.28C72.5,66.09,72.37,66.61,72.2,67.32Z" style="fill:#312f8f;stroke:#fff;stroke-miterlimit:10"/><path d="M94,79.15a14,14,0,0,1-5.1,1q-3.67,0-4.53-2.29a6,6,0,0,1-5.12,2.39Q73,80.27,73,74.48q0-4.38,5.7-6.17C82.23,67.22,84,65.9,84,64.37c0-2-1-3-3-3q-3.48,0-3.48,2.93A7.66,7.66,0,0,0,78,66.69L74.5,66a11.85,11.85,0,0,1-.13-1.72q0-4.7,8.55-4.69,8.13,0,8.13,4.38v12c0,1.22.4,1.84,1.19,1.84a2.56,2.56,0,0,0,1.09-.41ZM83.92,68a6.07,6.07,0,0,1-1.54,1.27,4.6,4.6,0,0,0-2.21,4.34c0,2.6.51,3.9,1.52,3.9q2.24,0,2.23-3.87Z" style="fill:#312f8f;stroke:#fff;stroke-miterlimit:10"/><path d="M104.62,60.17v2.21h-2.81V79.86H94.68V62.38h-2.5V60.17h2.5V58.41a5.28,5.28,0,0,1,1.71-4,6,6,0,0,1,4.28-1.6c3.44,0,5.16,1.28,5.16,3.86,0,.2,0,.45,0,.75l-3.38,1.19A6.66,6.66,0,0,0,102.7,57q0-2.07-1.44-2.07c-.83,0-1.25.61-1.25,1.82,0,.74.6,1.89,1.8,3.44Z" style="fill:#312f8f;stroke:#fff;stroke-miterlimit:10"/><path d="M116.61,60.23v2.2h-3.17V76.36c0,.87.28,1.31.84,1.31.41,0,.65-.29.72-.88l2,.19q-.84,3.09-5.36,3.09-5.37,0-5.37-4.57V62.43h-2.38v-2.2h2.38V56.75a32.08,32.08,0,0,0,7.13-2.93v6.41Z" style="fill:#312f8f;stroke:#fff;stroke-miterlimit:10"/><path d="M28,113.39l1.24.46c0,.29,0,.5,0,.63,0,2-.92,2.92-2.76,2.92s-2.91-1.08-3.31-3.22l-.86,0q-7.15,0-7.16-8.3t7.14-8.23q7,0,7,8.42,0,5.55-3.63,7.38c.37,1,.83,1.48,1.37,1.48s1-.42.92-1.27A2.13,2.13,0,0,0,28,113.39Zm-7.63-3a2.28,2.28,0,0,1,1.82-1.17c.71,0,1.31.47,1.81,1.41a20.64,20.64,0,0,0,.5-4.92,20,20,0,0,0-.47-5.32A1.77,1.77,0,0,0,22.32,99a1.79,1.79,0,0,0-1.74,1.46,19.41,19.41,0,0,0-.48,5.29A26.62,26.62,0,0,0,20.4,110.38ZM23,112.69c-.18-1.17-.55-1.76-1.13-1.76a1.46,1.46,0,0,0-1.19.85,1.54,1.54,0,0,0,2.32.91Z" style="fill:#231f20;stroke:#231f20;stroke-miterlimit:10"/><path d="M41.89,101.79v12.12H37.61V112a4.45,4.45,0,0,1-3.79,2.11q-3.13,0-3.13-3v-9c1.43-.06,2.86-.16,4.27-.3V111c0,.79.25,1.19.73,1.19q1.92,0,1.92-4.12v-6C39,102,40.47,101.93,41.89,101.79Z" style="fill:#231f20;stroke:#231f20;stroke-miterlimit:10"/><path d="M43.74,113.91V102.1a31.25,31.25,0,0,0,4.28-.31v12.12Zm2.17-16.4c1.33,0,2,.52,2,1.55s-.66,1.54-2,1.54-2-.51-2-1.54S44.58,97.51,45.91,97.51Z" style="fill:#231f20;stroke:#231f20;stroke-miterlimit:10"/><path d="M58.71,102.09v1.33l-5.16,9.16h5.16v1.33H48.85v-1.46l5.15-9H49.35v-1.33Z" style="fill:#231f20;stroke:#231f20;stroke-miterlimit:10"/><path d="M70.35,107.48l2,.52c0,.41,0,.76,0,1a4.6,4.6,0,0,1-1.69,3.73,6.91,6.91,0,0,1-4.53,1.4q-7.11,0-7.11-8A9,9,0,0,1,61.13,100a6.85,6.85,0,0,1,5.4-2.36c3.46,0,5.19,1.67,5.19,5l-2,.92c0-.47,0-.83,0-1.09q0-3.54-2.83-3.54-3,0-3,7.51c0,4.31,1.11,6.46,3.35,6.46a2.88,2.88,0,0,0,2.3-1.1A4.2,4.2,0,0,0,70.5,109,11.89,11.89,0,0,0,70.35,107.48Z" style="fill:#231f20;stroke:#231f20;stroke-miterlimit:10"/><path d="M81.83,106.38H78.9a8.58,8.58,0,0,1,.27-1,2.68,2.68,0,0,0,.16-.86q0-.75-.54-.75t-.78,1a5.83,5.83,0,0,0-.38,2.09v7.08H73.36V102.09h.83a22.06,22.06,0,0,0,3.44-.31v1.94c.7-1.29,1.55-1.94,2.56-1.94,1.37,0,2.06.76,2.06,2.27a5.21,5.21,0,0,1-.2,1.37C82,105.64,81.93,106,81.83,106.38Z" style="fill:#231f20;stroke:#231f20;stroke-miterlimit:10"/><path d="M94.92,113.48a8.38,8.38,0,0,1-3.06.61c-1.47,0-2.38-.45-2.72-1.37a3.57,3.57,0,0,1-3.07,1.43c-2.49,0-3.74-1.15-3.74-3.47,0-1.75,1.14-3,3.42-3.7,2.1-.66,3.14-1.45,3.14-2.37a1.59,1.59,0,0,0-1.8-1.81c-1.39,0-2.09.58-2.09,1.75a4.5,4.5,0,0,0,.33,1.46l-2.12-.41a7.73,7.73,0,0,1-.08-1q0-2.82,5.13-2.82,4.88,0,4.88,2.63v7.17c0,.73.23,1.1.71,1.1a1.56,1.56,0,0,0,.66-.24Zm-6.06-6.68a3.82,3.82,0,0,1-.93.77,2.76,2.76,0,0,0-1.32,2.6c0,1.56.3,2.34.91,2.34.89,0,1.34-.77,1.34-2.32Z" style="fill:#231f20;stroke:#231f20;stroke-miterlimit:10"/><path d="M101.28,102.09v1.33H99.59v10.49H95.31V103.42h-1.5v-1.33h1.5v-1a3.21,3.21,0,0,1,1-2.42,3.61,3.61,0,0,1,2.57-1c2.06,0,3.09.78,3.09,2.32,0,.12,0,.27,0,.45l-2,.71a3.79,3.79,0,0,0,.16-1c0-.83-.29-1.24-.87-1.24s-.75.36-.75,1.09a4.17,4.17,0,0,0,1.08,2.06Z" style="fill:#231f20;stroke:#231f20;stroke-miterlimit:10"/><path d="M108.47,102.13v1.32h-1.9v8.36q0,.78.51.78c.24,0,.38-.17.43-.52l1.22.11c-.34,1.24-1.41,1.85-3.21,1.85-2.15,0-3.22-.91-3.22-2.74v-7.84h-1.43v-1.32h1.43V100a18.77,18.77,0,0,0,4.27-1.76v3.85Z" style="fill:#231f20;stroke:#231f20;stroke-miterlimit:10"/><path d="M29.85,114.07l1.24.46c0,.29,0,.5,0,.63,0,2-.92,2.92-2.76,2.92s-2.91-1.08-3.32-3.22l-.85,0q-7.15,0-7.16-8.3t7.14-8.23q7,0,7,8.42,0,5.55-3.63,7.39c.37,1,.83,1.47,1.37,1.47s1-.42.92-1.26A2.24,2.24,0,0,0,29.85,114.07Zm-7.63-3A2.28,2.28,0,0,1,24,109.89c.71,0,1.31.47,1.81,1.42a20.85,20.85,0,0,0,.49-4.93,20.08,20.08,0,0,0-.46-5.32,1.77,1.77,0,0,0-1.74-1.43,1.8,1.8,0,0,0-1.75,1.46,19.46,19.46,0,0,0-.48,5.29A26.33,26.33,0,0,0,22.22,111.06Zm2.62,2.31c-.17-1.17-.54-1.76-1.12-1.76a1.48,1.48,0,0,0-1.2.86,1.62,1.62,0,0,0,1.55,1.14A1.53,1.53,0,0,0,24.84,113.37Z" style="fill:#312f8f;stroke:#fff;stroke-miterlimit:10"/><path d="M43.71,102.47v12.12H39.43V112.7a4.45,4.45,0,0,1-3.8,2.11q-3.12,0-3.12-3v-9c1.43-.06,2.86-.16,4.27-.3v9.19c0,.79.25,1.19.73,1.19q1.92,0,1.92-4.12v-6C40.86,102.71,42.29,102.61,43.71,102.47Z" style="fill:#312f8f;stroke:#fff;stroke-miterlimit:10"/><path d="M45.56,114.59v-11.8a31.19,31.19,0,0,0,4.27-.32v12.12Zm2.17-16.4c1.32,0,2,.52,2,1.55s-.67,1.55-2,1.55-2-.52-2-1.55S46.4,98.19,47.73,98.19Z" style="fill:#312f8f;stroke:#fff;stroke-miterlimit:10"/><path d="M60.53,102.77v1.33l-5.17,9.16h5.17v1.33H50.67v-1.46l5.15-9H51.17v-1.33Z" style="fill:#312f8f;stroke:#fff;stroke-miterlimit:10"/><path d="M72.17,108.17l2,.51c0,.41,0,.76,0,1.06a4.59,4.59,0,0,1-1.68,3.72,6.91,6.91,0,0,1-4.53,1.4q-7.11,0-7.11-8a9,9,0,0,1,2.07-6.16,6.89,6.89,0,0,1,5.41-2.36q5.19,0,5.19,5l-2,.91c0-.47,0-.83,0-1.09q0-3.54-2.83-3.54-3,0-3,7.51c0,4.31,1.11,6.46,3.35,6.46a2.88,2.88,0,0,0,2.3-1.1,4.18,4.18,0,0,0,.92-2.76A11.63,11.63,0,0,0,72.17,108.17Z" style="fill:#312f8f;stroke:#fff;stroke-miterlimit:10"/><path d="M83.65,107.06H80.72a8.58,8.58,0,0,1,.27-1,2.68,2.68,0,0,0,.16-.86q0-.75-.54-.75t-.78,1a5.83,5.83,0,0,0-.38,2.09v7.08H75.18V102.77l.83,0a22.19,22.19,0,0,0,3.44-.32v2c.7-1.3,1.55-2,2.56-2,1.37,0,2.06.76,2.06,2.27a5.66,5.66,0,0,1-.2,1.37C83.82,106.33,83.75,106.64,83.65,107.06Z" style="fill:#312f8f;stroke:#fff;stroke-miterlimit:10"/><path d="M96.74,114.17a8.57,8.57,0,0,1-3.06.6c-1.47,0-2.38-.45-2.72-1.37a3.59,3.59,0,0,1-3.07,1.43c-2.49,0-3.74-1.15-3.74-3.47,0-1.75,1.14-3,3.42-3.7,2.1-.66,3.14-1.44,3.14-2.37a1.59,1.59,0,0,0-1.8-1.81c-1.39,0-2.09.58-2.09,1.76a4.51,4.51,0,0,0,.33,1.45L85,106.28a6.36,6.36,0,0,1-.08-1q0-2.82,5.13-2.82,4.88,0,4.88,2.63v7.17c0,.74.23,1.1.71,1.1a1.56,1.56,0,0,0,.66-.24Zm-6.06-6.68a4,4,0,0,1-.93.76,2.76,2.76,0,0,0-1.32,2.6c0,1.56.3,2.34.91,2.34.89,0,1.34-.77,1.34-2.32Z" style="fill:#312f8f;stroke:#fff;stroke-miterlimit:10"/><path d="M103.1,102.77v1.33h-1.69v10.49H97.13V104.1h-1.5v-1.33h1.5v-1a3.14,3.14,0,0,1,1-2.41,3.61,3.61,0,0,1,2.57-1c2.06,0,3.09.78,3.09,2.33,0,.11,0,.26,0,.44l-2,.72a4,4,0,0,0,.17-1c0-.82-.29-1.24-.87-1.24s-.75.37-.75,1.09a4.17,4.17,0,0,0,1.08,2.06Z" style="fill:#312f8f;stroke:#fff;stroke-miterlimit:10"/><path d="M110.29,102.81v1.32h-1.9v8.36q0,.78.51.78c.24,0,.38-.17.43-.52l1.22.11q-.51,1.86-3.21,1.86c-2.15,0-3.23-.92-3.23-2.75v-7.84h-1.43v-1.32h1.43v-2.09A19.08,19.08,0,0,0,108.39,99v3.84Z" style="fill:#312f8f;stroke:#fff;stroke-miterlimit:10"/></svg>