<?xml version="1.0" encoding="UTF-8"?>
<svg version="1.1" xmlns="http://www.w3.org/2000/svg" width="500" height="500">
<path d="M0 0 C165 0 330 0 500 0 C500 165 500 330 500 500 C335 500 170 500 0 500 C0 335 0 170 0 0 Z " fill="#202020" transform="translate(0,0)"/>
<path d="M0 0 C1.66913402 0.32074993 3.33519409 0.65749427 5 1 C5.98500488 1.1966626 6.97000977 1.3933252 7.98486328 1.59594727 C15.72531561 3.78505314 19.41416893 6.88570546 23.2421875 13.71484375 C24.44914764 15.98175174 25.60489175 18.26343292 26.72607422 20.57397461 C27.88168855 22.95125943 29.09628139 25.29024143 30.32421875 27.63085938 C31.09214305 29.13618906 31.85659477 30.64329641 32.6171875 32.15234375 C32.9752951 32.84939926 33.33340271 33.54645477 33.70236206 34.26463318 C35.77796178 38.592677 36.31579592 41.35859084 35 46 C35.67546875 46.17015625 36.3509375 46.3403125 37.046875 46.515625 C46.45874587 49.07260726 46.45874587 49.07260726 49 53 C49.5625 55.5 49.5625 55.5 49 58 C44.45108979 62.42255159 41.32261844 64 35 64 C35 70.27 35 76.54 35 83 C37.1346875 83.556875 37.1346875 83.556875 39.3125 84.125 C57.70686896 89.70298213 73.80062285 104.31787332 83.28515625 120.74609375 C93.21367298 139.58539771 96.77982919 162.15667815 91 183 C86.33144126 197.51657512 79.55494828 208.2384602 69 219 C69.32097656 219.60972656 69.64195312 220.21945312 69.97265625 220.84765625 C71.26847901 223.56247884 71.50835361 225.02250029 71 228 C69 230.4375 69 230.4375 66 233 C65.48824219 233.46277344 64.97648438 233.92554688 64.44921875 234.40234375 C45.79586365 249.99505965 19.10118331 251.6518569 -4 250 C-21.12008536 248.10661588 -38.22131994 242.16278533 -50.38671875 229.51953125 C-52 227 -52 227 -51.63671875 224.859375 C-51.32347656 224.16328125 -51.01023438 223.4671875 -50.6875 222.75 C-49.91608873 220.4024162 -49.91608873 220.4024162 -50 218 C-51.88223346 215.50125335 -54.06461212 213.64538423 -56.41015625 211.578125 C-68.23113341 199.81063643 -73.18147556 181.84044938 -73.38085938 165.65893555 C-73.34499711 142.49938395 -73.34499711 142.49938395 -69 132 C-68.73687012 131.35853027 -68.47374023 130.71706055 -68.20263672 130.05615234 C-60.01562419 110.65659295 -45.7696093 96.38480465 -27 87 C-24.00359183 85.7925525 -21.11875215 84.86034542 -18 84 C-18 78.39 -18 72.78 -18 67 C-17.67 67 -17.34 67 -17 67 C-17 72.28 -17 77.56 -17 83 C-16.34 83 -15.68 83 -15 83 C-15 76.73 -15 70.46 -15 64 C-13.35 64.165 -11.7 64.33 -10 64.5 C9.03536354 65.91619772 28.55737167 66.87431968 46 58 C46 56.35 46 54.7 46 53 C44.3970947 52.18501438 42.79262722 51.37310073 41.1875 50.5625 C40.29417969 50.11003906 39.40085937 49.65757812 38.48046875 49.19140625 C35.96000522 47.9168395 35.96000522 47.9168395 33 47 C32.71125 47.7425 32.4225 48.485 32.125 49.25 C31.18620664 51.5448282 30.10883447 53.78233105 29 56 C32.96 55.01 36.92 54.02 41 53 C41 53.66 41 54.32 41 55 C23.30997357 63.10698259 3.90015836 61.56107503 -15 60 C-15 59.34 -15 58.68 -15 58 C-16.65 57.34 -18.3 56.68 -20 56 C-16.94736336 55.01879536 -15.05263664 55.01879536 -12 56 C-12 52.86676575 -14.04649081 51.31979216 -16 49 C-20.87362847 49.45336079 -23.39042389 50.7089159 -27 54 C-27.03525132 55.88658874 -27.03525132 55.88658874 -26 58 C-23.75835678 59.59501537 -21.46433357 60.74543018 -19 62 C-19.99 62.33 -20.98 62.66 -22 63 C-27 60 -27 60 -29 58 C-29.375 55.1875 -29.375 55.1875 -29 52 C-25.83896999 48.74865484 -23.30459915 47.72183966 -19 46 C-21.97 43.03 -24.94 40.06 -28 37 C-26.4743447 33.18586176 -25.55602119 31.12442631 -23.1640625 28.06640625 C-22.59961426 27.34114746 -22.03516602 26.61588867 -21.45361328 25.86865234 C-20.8501709 25.10762207 -20.24672852 24.3465918 -19.625 23.5625 C-19.00737793 22.77568848 -18.38975586 21.98887695 -17.75341797 21.17822266 C-12.03658972 13.94411808 -6.08182476 6.92837912 0 0 Z " fill="#232222" transform="translate(240,89)"/>
<path d="M0 0 C0.33 0 0.66 0 1 0 C1.495 4.455 1.495 4.455 2 9 C2.99 9 3.98 9 5 9 C5.33 6.36 5.66 3.72 6 1 C17.22 1 28.44 1 40 1 C40 4.63 40 8.26 40 12 C40.66 12 41.32 12 42 12 C42 8.04 42 4.08 42 0 C43.32 0 44.64 0 46 0 C46.18964787 2.89890315 46.32785971 5.78538869 46.4375 8.6875 C46.52547852 9.91243164 46.52547852 9.91243164 46.61523438 11.16210938 C46.78524894 17.16119491 46.78524894 17.16119491 44.41064453 19.69775391 C42.47265625 21.08203125 42.47265625 21.08203125 39 23 C42.74667202 21.3672149 42.74667202 21.3672149 46 19 C51.94520116 19.35464866 56.21498454 20.66314722 61.375 23.5625 C62.0242041 23.91965088 62.6734082 24.27680176 63.34228516 24.64477539 C69.05430049 27.87167476 74.1325762 31.59334782 79 36 C80.16982422 37.04800781 80.16982422 37.04800781 81.36328125 38.1171875 C87.0241861 43.4641262 91.14751749 49.25311309 95 56 C95.38929688 56.66644531 95.77859375 57.33289063 96.1796875 58.01953125 C105.87505594 75.86953129 107.74859599 97.60175389 102.32617188 116.96923828 C97.11686355 134.03216709 88.39550202 148.7663423 72.5 157.6875 C70.34769209 158.81940067 68.18288319 159.92824936 66 161 C65.2059375 161.39832031 64.411875 161.79664063 63.59375 162.20703125 C63.0678125 162.46871094 62.541875 162.73039063 62 163 C64.59836136 161.63354299 67.20265556 160.28169331 69.8125 158.9375 C70.55048828 158.54755859 71.28847656 158.15761719 72.04882812 157.75585938 C72.76103516 157.39169922 73.47324219 157.02753906 74.20703125 156.65234375 C74.8616333 156.31195068 75.51623535 155.97155762 76.19067383 155.62084961 C78 155 78 155 81 156 C82.55168173 157.55168173 82.7476735 158.84163791 83 161 C77.56024499 170.28072898 64.37414045 175.58597466 54.46484375 178.35546875 C27.88698043 185.06806456 -1.85798632 184.50750047 -26.1015625 170.80078125 C-35.51136817 164.95452732 -35.51136817 164.95452732 -37 159 C-33.535 161.475 -33.535 161.475 -30 164 C-31.485 162.02 -31.485 162.02 -33 160 C-31.68 160.33 -30.36 160.66 -29 161 C-31.97 158.525 -31.97 158.525 -35 156 C-34.01 155.67 -33.02 155.34 -32 155 C-29.94140625 156.0390625 -29.94140625 156.0390625 -27.5625 157.625 C-18.58852784 163.23861684 -6.83671666 169 4 169 C2.58460938 168.65388672 2.58460938 168.65388672 1.140625 168.30078125 C-20.68975771 162.82031456 -38.11851494 153.55583975 -49.98828125 133.75 C-60.51769054 114.98296318 -61.69308521 91.44023366 -56 71 C-48.78898339 49.49902008 -34.6525 33.15526364 -14.4375 22.9375 C-8.46258503 20 -8.46258503 20 -5 20 C-5 25.61 -5 31.22 -5 37 C-7.97 37.2784375 -7.97 37.2784375 -11 37.5625 C-17.98242636 38.67334056 -21.47064542 40.66915469 -26 46 C-27.12535156 47.32257813 -27.12535156 47.32257813 -28.2734375 48.671875 C-42.43468214 66.45576362 -44.42292122 83.96385566 -43 106 C-42.3702495 110.62967262 -40.96683901 114.76422579 -39 119 C-38.62617188 119.88042969 -38.25234375 120.76085937 -37.8671875 121.66796875 C-34.11681037 129.87657565 -28.61076262 136.88504458 -22 143 C-21.48953125 143.48082031 -20.9790625 143.96164062 -20.453125 144.45703125 C-6.3914198 157.19642014 11.11953093 160.88263554 29.53564453 160.17041016 C47.37226956 158.93700771 61.95944403 149.85686133 73.921875 136.921875 C87.42754555 120.78678187 90.28684121 102.41949923 89 82 C87.31432648 67.09335771 78.44363549 52.44363549 68 42 C61.09869003 42.69814247 55.25275314 46.92929821 49.9375 51.125 C46.13604197 54.04170054 42.61981985 55.76407033 38 57 C36.85917969 57.38865234 36.85917969 57.38865234 35.6953125 57.78515625 C32.7671594 58.49146794 30.96077896 58.64847032 28 58 C24.61724071 55.51756166 21.75293957 52.77549583 18.80859375 49.80078125 C12.43327305 43.4431944 5.4468573 40.85081434 -3 38 C-3 31.4 -3 24.8 -3 18 C1 19 1 19 3.5625 21.0625 C5.87245668 23.31112206 5.87245668 23.31112206 9 23 C8.071875 22.566875 7.14375 22.13375 6.1875 21.6875 C3.43472055 20.23014618 1.89851825 19.36796492 0 17 C-0.34057617 15.09887695 -0.34057617 15.09887695 -0.29296875 12.98828125 C-0.2784668 11.85229492 -0.2784668 11.85229492 -0.26367188 10.69335938 C-0.23853516 9.90767578 -0.21339844 9.12199219 -0.1875 8.3125 C-0.17396484 7.51521484 -0.16042969 6.71792969 -0.14648438 5.89648438 C-0.11117089 3.93070033 -0.05736447 1.96526418 0 0 Z " fill="#262423" transform="translate(227,155)"/>
<path d="M0 0 C1.66913402 0.32074993 3.33519409 0.65749427 5 1 C5.98500488 1.1966626 6.97000977 1.3933252 7.98486328 1.59594727 C15.72531561 3.78505314 19.41416893 6.88570546 23.2421875 13.71484375 C24.44914764 15.98175174 25.60489175 18.26343292 26.72607422 20.57397461 C27.88168855 22.95125943 29.09628139 25.29024143 30.32421875 27.63085938 C31.09214305 29.13618906 31.85659477 30.64329641 32.6171875 32.15234375 C32.9752951 32.84939926 33.33340271 33.54645477 33.70236206 34.26463318 C35.77796178 38.592677 36.31579592 41.35859084 35 46 C35.67546875 46.17015625 36.3509375 46.3403125 37.046875 46.515625 C46.45874587 49.07260726 46.45874587 49.07260726 49 53 C49.5625 55.5 49.5625 55.5 49 58 C44.45108979 62.42255159 41.32261844 64 35 64 C35 70.27 35 76.54 35 83 C37.1346875 83.556875 37.1346875 83.556875 39.3125 84.125 C57.70686896 89.70298213 73.80062285 104.31787332 83.28515625 120.74609375 C93.21367298 139.58539771 96.77982919 162.15667815 91 183 C86.33144126 197.51657512 79.55494828 208.2384602 69 219 C69.32097656 219.60972656 69.64195312 220.21945312 69.97265625 220.84765625 C71.26847901 223.56247884 71.50835361 225.02250029 71 228 C69 230.4375 69 230.4375 66 233 C65.48824219 233.46277344 64.97648438 233.92554688 64.44921875 234.40234375 C45.79586365 249.99505965 19.10118331 251.6518569 -4 250 C-21.12008536 248.10661588 -38.22131994 242.16278533 -50.38671875 229.51953125 C-52 227 -52 227 -51.63671875 224.859375 C-51.32347656 224.16328125 -51.01023438 223.4671875 -50.6875 222.75 C-49.91608873 220.4024162 -49.91608873 220.4024162 -50 218 C-51.88223346 215.50125335 -54.06461212 213.64538423 -56.41015625 211.578125 C-68.23113341 199.81063643 -73.18147556 181.84044938 -73.38085938 165.65893555 C-73.34499711 142.49938395 -73.34499711 142.49938395 -69 132 C-68.73687012 131.35853027 -68.47374023 130.71706055 -68.20263672 130.05615234 C-60.01562419 110.65659295 -45.7696093 96.38480465 -27 87 C-24.00359183 85.7925525 -21.11875215 84.86034542 -18 84 C-18 78.39 -18 72.78 -18 67 C-17.67 67 -17.34 67 -17 67 C-17 72.28 -17 77.56 -17 83 C-16.34 83 -15.68 83 -15 83 C-15 76.73 -15 70.46 -15 64 C-13.35 64.165 -11.7 64.33 -10 64.5 C9.03536354 65.91619772 28.55737167 66.87431968 46 58 C46 56.35 46 54.7 46 53 C44.3970947 52.18501438 42.79262722 51.37310073 41.1875 50.5625 C40.29417969 50.11003906 39.40085937 49.65757812 38.48046875 49.19140625 C35.96000522 47.9168395 35.96000522 47.9168395 33 47 C32.71125 47.7425 32.4225 48.485 32.125 49.25 C31.18620664 51.5448282 30.10883447 53.78233105 29 56 C32.96 55.01 36.92 54.02 41 53 C41 53.66 41 54.32 41 55 C23.30997357 63.10698259 3.90015836 61.56107503 -15 60 C-15 59.34 -15 58.68 -15 58 C-16.65 57.34 -18.3 56.68 -20 56 C-16.94736336 55.01879536 -15.05263664 55.01879536 -12 56 C-12 52.86676575 -14.04649081 51.31979216 -16 49 C-20.87362847 49.45336079 -23.39042389 50.7089159 -27 54 C-27.03525132 55.88658874 -27.03525132 55.88658874 -26 58 C-23.75835678 59.59501537 -21.46433357 60.74543018 -19 62 C-19.99 62.33 -20.98 62.66 -22 63 C-27 60 -27 60 -29 58 C-29.375 55.1875 -29.375 55.1875 -29 52 C-25.83896999 48.74865484 -23.30459915 47.72183966 -19 46 C-21.97 43.03 -24.94 40.06 -28 37 C-26.4743447 33.18586176 -25.55602119 31.12442631 -23.1640625 28.06640625 C-22.59961426 27.34114746 -22.03516602 26.61588867 -21.45361328 25.86865234 C-20.8501709 25.10762207 -20.24672852 24.3465918 -19.625 23.5625 C-19.00737793 22.77568848 -18.38975586 21.98887695 -17.75341797 21.17822266 C-12.03658972 13.94411808 -6.08182476 6.92837912 0 0 Z M-13 66 C-13.16262928 68.73156959 -13.28110686 71.45342122 -13.375 74.1875 C-13.42527344 74.95642578 -13.47554687 75.72535156 -13.52734375 76.51757812 C-13.67819752 80.86936174 -13.67819752 80.86936174 -11.73876953 84.62036133 C-8.78366968 87.13825959 -5.67997535 88.80941974 -2 90 C-5.5654494 89.68540152 -7.50322204 88.75777349 -10.125 86.4375 C-12.75317489 83.67665737 -12.75317489 83.67665737 -16 84 C-16 90.6 -16 97.2 -16 104 C-14.040625 104.680625 -12.08125 105.36125 -10.0625 106.0625 C-2.70135743 108.90168392 2.71558114 112.62224064 8.19921875 118.26171875 C12.20027605 122.42422392 12.20027605 122.42422392 17.4375 124.421875 C20.11035009 124.23811656 22.42817376 123.74730036 25 123 C26.20462891 122.66742188 26.20462891 122.66742188 27.43359375 122.328125 C33.92573831 120.12598956 38.9570426 116.26817137 44.23828125 112.0234375 C47.42272532 109.69028046 50.03193763 107.85942412 54.078125 108.1484375 C63.59918475 112.36711845 69.39790215 126.67421039 73.1328125 135.75390625 C78.78051763 151.95678845 77.77433469 171.89465283 70.64086914 187.34741211 C67.50208319 193.83056632 63.78707638 199.6064162 59 205 C58.49210938 205.60070312 57.98421875 206.20140625 57.4609375 206.8203125 C47.4575799 217.80922257 31.72718104 225.23985928 16.89892578 226.12548828 C-2.30057077 226.92529984 -17.56033871 222.77735255 -33 211 C-33.82757813 210.38511719 -34.65515625 209.77023437 -35.5078125 209.13671875 C-42.87863982 202.81721633 -48.305941 193.90920112 -52 185 C-52.391875 184.154375 -52.78375 183.30875 -53.1875 182.4375 C-58.60283624 168.59830737 -58.66370824 148.49168929 -53.2578125 134.63671875 C-52.63519531 133.33154297 -52.63519531 133.33154297 -52 132 C-51.34644531 130.58654297 -51.34644531 130.58654297 -50.6796875 129.14453125 C-47.28979584 122.42958193 -42.99036839 116.60925266 -38 111 C-37.46890625 110.37738281 -36.9378125 109.75476563 -36.390625 109.11328125 C-31.21372123 103.82105042 -25.1436213 103.7364558 -18 103 C-18 97.39 -18 91.78 -18 86 C-28.06565048 88.0131301 -36.28082447 93.41971922 -44 100 C-45.10794922 100.87398437 -45.10794922 100.87398437 -46.23828125 101.765625 C-61.20254486 114.06785208 -69.83701468 132.9906867 -72 152 C-73.22617075 175.17934319 -68.02794702 195.1631527 -53.09765625 213.3125 C-40.44825853 227.00487132 -21.81273202 232.82710711 -4 236 C-17.67771767 233.84036037 -29.58629251 230.2789752 -41.66015625 223.234375 C-43.80671941 222.10196439 -45.63005322 221.45975873 -48 221 C-47.175 221.804375 -46.35 222.60875 -45.5 223.4375 C-43 226 -43 226 -43 227 C-43.99 227 -44.98 227 -46 227 C-45.34 227.99 -44.68 228.98 -44 230 C-46.97 227.525 -46.97 227.525 -50 225 C-47.63625615 232.61944248 -40.50432307 236.06807405 -33.83984375 239.7421875 C-9.77496556 251.49684246 21.37819253 251.07044975 46.5 242.6875 C55.8644954 239.06078791 63.29401913 234.50536932 70 227 C69.67 226.38125 69.34 225.7625 69 225.125 C68 223 68 223 68 221 C63.04001528 221.61632946 59.06328034 223.79835629 54.6875 226.0625 C53.94693359 226.43955078 53.20636719 226.81660156 52.44335938 227.20507812 C50.62612478 228.13128157 48.81267596 229.06490629 47 230 C67.438509 219.51461908 81.18855989 207.73638506 88.609375 185.34375 C94.74808307 165.15477351 93.09472061 144.12856998 84 125 C79.7242934 117.06856425 74.30135942 110.40834345 68 104 C67.31292969 103.30003906 66.62585938 102.60007813 65.91796875 101.87890625 C57.93705054 94.2829674 46.46588649 86.7365921 35.5625 84.5 C31.49050147 85.2945363 28.37064378 87.6581135 25 90 C26 89 26 89 27.61352539 88.13598633 C31.58442274 85.85037352 31.58442274 85.85037352 33.57373047 81.90380859 C33.68871177 79.46569388 33.61234009 77.12181204 33.4375 74.6875 C33.39012695 73.43356445 33.39012695 73.43356445 33.34179688 72.15429688 C33.2596788 70.10134494 33.13412595 68.05021102 33 66 C31.68 66 30.36 66 29 66 C29 69.96 29 73.92 29 78 C28.34 78 27.68 78 27 78 C27 74.37 27 70.74 27 67 C15.78 67 4.56 67 -7 67 C-7.33 69.64 -7.66 72.28 -8 75 C-8.99 75 -9.98 75 -11 75 C-11.495 70.545 -11.495 70.545 -12 66 C-12.33 66 -12.66 66 -13 66 Z M-42.625 117.4375 C-53.332167 132.40128155 -58.23330236 149.70936298 -55.71142578 168.10498047 C-52.34221652 187.93582961 -42.63646631 203.08054947 -26.6640625 215.25 C-11.24107331 225.38123043 7.30067443 227.41932307 25.3046875 224.3828125 C43.03756754 220.21687602 57.49539799 208.29646885 67 193 C72.52523611 182.97112091 75.57339445 172.46788902 75 161 C74.01 161.33 73.02 161.66 72 162 C72.33 163.65 72.66 165.3 73 167 C71.35 166.67 69.7 166.34 68 166 C68.57344937 163.13275314 68.8614515 162.1385485 71 160 C70.505 159.608125 70.01 159.21625 69.5 158.8125 C68 157 68 157 67.6875 154.4375 C68 152 68 152 70 150 C72.625 149.375 72.625 149.375 75 149 C75 148.01 75 147.02 75 146 C73.2984375 146.0309375 73.2984375 146.0309375 71.5625 146.0625 C68 146 68 146 67 145 C66.85884839 142.32941149 66.95752893 139.67567762 67 137 C68.65 136.67 70.3 136.34 72 136 C71.38348417 134.3509698 70.75652258 132.70584159 70.125 131.0625 C69.77695312 130.14597656 69.42890625 129.22945312 69.0703125 128.28515625 C68.2180914 125.85058944 68.2180914 125.85058944 66 125 C65.38125 126.051875 64.7625 127.10375 64.125 128.1875 C60.62101109 132.96301951 56.66325989 135.34369538 51 137 C39.62500234 138.68651385 30.60126921 136.66148491 21 130 C15.61729671 125.9829896 10.67157314 121.48973832 5.76171875 116.9140625 C-0.42089036 111.23944332 -7.42450228 106.67701298 -16 106 C-16 106.99 -16 107.98 -16 109 C-15.01 109.66 -14.02 110.32 -13 111 C-14.32 110.67 -15.64 110.34 -17 110 C-17.495 107.525 -17.495 107.525 -18 105 C-30.03291061 103.58304043 -35.30792825 108.37767974 -42.625 117.4375 Z " fill="#BC9779" transform="translate(240,89)"/>
<path d="M0 0 C1.32 0.66 2.64 1.32 4 2 C3.67 2.33 3.34 2.66 3 3 C7.94749352 4.95031608 7.94749352 4.95031608 13 4 C13.87867729 7.73437848 14.08912219 11.16774573 14 15 C14.66 12.69 15.32 10.38 16 8 C20.26456 11.7795835 22.57095816 17.01219405 25.26269531 21.95019531 C26.2443519 23.73970381 27.25058204 25.51385573 28.2578125 27.2890625 C28.87914062 28.42601563 29.50046875 29.56296875 30.140625 30.734375 C30.71329102 31.76788086 31.28595703 32.80138672 31.87597656 33.86621094 C33.25335335 37.70635179 32.91863506 40.06141049 32 44 C30.546875 47.0546875 30.546875 47.0546875 28.75 49.875 C28.16734375 50.82117188 27.5846875 51.76734375 26.984375 52.7421875 C25 55 25 55 20 56 C18.02 50.72 16.04 45.44 14 40 C15.64219963 44.84756074 15.64219963 44.84756074 17.29101562 49.69287109 C19 54.77777778 19 54.77777778 19 57 C18.2575 56.835 17.515 56.67 16.75 56.5 C13.80993422 55.88074304 13.80993422 55.88074304 10 56 C9.34 55.01 8.68 54.02 8 53 C6.515 53.495 6.515 53.495 5 54 C5.66 54.99 6.32 55.98 7 57 C3.79221464 57.71008891 1.1898962 57.86441588 -2 57 C-5.18906762 53.85018955 -7.24126409 50.13284802 -9.4375 46.25 C-10.04787109 45.23421875 -10.65824219 44.2184375 -11.28710938 43.171875 C-12.90019284 40.46858188 -14.4753833 37.75404108 -16 35 C-16.41000244 34.27006836 -16.82000488 33.54013672 -17.24243164 32.78808594 C-17.4924292 32.19801758 -17.74242676 31.60794922 -18 31 C-17.690625 30.401875 -17.38125 29.80375 -17.0625 29.1875 C-15.66035883 26.89961124 -15.66035883 26.89961124 -16.8125 23.8125 C-17.05975981 18.78488396 -15.43199559 17.20862944 -12.2578125 13.48828125 C-11.51273438 12.66714844 -10.76765625 11.84601563 -10 11 C-9.10130736 9.99371739 -8.20288115 8.98719678 -7.3046875 7.98046875 C-4.89504839 5.29672518 -2.45482976 2.64252298 0 0 Z " fill="#252322" transform="translate(241,91)"/>
<path d="M0 0 C1.66913402 0.32074993 3.33519409 0.65749427 5 1 C5.98500488 1.1966626 6.97000977 1.3933252 7.98486328 1.59594727 C15.72531561 3.78505314 19.41416893 6.88570546 23.2421875 13.71484375 C24.44914764 15.98175174 25.60489175 18.26343292 26.72607422 20.57397461 C27.88168855 22.95125943 29.09628139 25.29024143 30.32421875 27.63085938 C31.09214305 29.13618906 31.85659477 30.64329641 32.6171875 32.15234375 C33.15434891 33.19792702 33.15434891 33.19792702 33.70236206 34.26463318 C35.77796178 38.592677 36.31579592 41.35859084 35 46 C35.67546875 46.17015625 36.3509375 46.3403125 37.046875 46.515625 C46.45874587 49.07260726 46.45874587 49.07260726 49 53 C49.5625 55.5 49.5625 55.5 49 58 C44.45108979 62.42255159 41.32261844 64 35 64 C35 70.27 35 76.54 35 83 C37.1346875 83.556875 37.1346875 83.556875 39.3125 84.125 C57.70686896 89.70298213 73.80062285 104.31787332 83.28515625 120.74609375 C92.05544672 137.38766997 93.48571791 152.50037476 93 171 C92.67 171 92.34 171 92 171 C91.94392578 169.43765625 91.94392578 169.43765625 91.88671875 167.84375 C90.82038222 142.9430343 84.93304094 122.24655565 67 104 C66.38640625 103.37351562 65.7728125 102.74703125 65.140625 102.1015625 C57.47660078 94.8633174 45.99669928 87.64034857 35.5625 85.5 C32.78458943 86.04203133 31.54950168 86.90350179 29.25 88.5 C24.83911617 91.48828962 21.19022664 91.54064861 16 91 C16 90.67 16 90.34 16 90 C16.65226562 89.90203125 17.30453125 89.8040625 17.9765625 89.703125 C18.85054688 89.55359375 19.72453125 89.4040625 20.625 89.25 C21.48351562 89.11078125 22.34203125 88.9715625 23.2265625 88.828125 C26.91581442 87.72654555 29.1443343 86.6258995 32 84 C32.86964298 80.91774 32.88496218 77.9378981 32.875 74.75 C32.895625 73.90953125 32.91625 73.0690625 32.9375 72.203125 C32.98448362 70.13584555 32.99574525 68.06780891 33 66 C32.34 66 31.68 66 31 66 C31 71.28 31 76.56 31 82 C30.34 80.68 29.68 79.36 29 78 C28.34 78 27.68 78 27 78 C27 74.37 27 70.74 27 67 C15.78 67 4.56 67 -7 67 C-7 69.97 -7 72.94 -7 76 C-8.485 76.495 -8.485 76.495 -10 77 C-12.31622777 79.10540926 -12.31622777 79.10540926 -14 83 C-14 77.06 -14 71.12 -14 65 C-9.12300179 64.02460036 -6.79533963 64.29028973 -2 65 C14.6415665 65.87387221 30.85840094 65.70362058 46 58 C46 56.35 46 54.7 46 53 C44.3970947 52.18501438 42.79262722 51.37310073 41.1875 50.5625 C40.29417969 50.11003906 39.40085937 49.65757812 38.48046875 49.19140625 C35.96000522 47.9168395 35.96000522 47.9168395 33 47 C32.566875 48.11375 32.566875 48.11375 32.125 49.25 C31.18620664 51.5448282 30.10883447 53.78233105 29 56 C32.96 55.01 36.92 54.02 41 53 C41 53.66 41 54.32 41 55 C23.30997357 63.10698259 3.90015836 61.56107503 -15 60 C-15 59.34 -15 58.68 -15 58 C-16.65 57.34 -18.3 56.68 -20 56 C-16.94736336 55.01879536 -15.05263664 55.01879536 -12 56 C-12 52.86676575 -14.04649081 51.31979216 -16 49 C-20.87362847 49.45336079 -23.39042389 50.7089159 -27 54 C-27.03525132 55.88658874 -27.03525132 55.88658874 -26 58 C-23.75835678 59.59501537 -21.46433357 60.74543018 -19 62 C-20.485 62.495 -20.485 62.495 -22 63 C-27 60 -27 60 -29 58 C-29.375 55.1875 -29.375 55.1875 -29 52 C-25.83896999 48.74865484 -23.30459915 47.72183966 -19 46 C-21.97 43.03 -24.94 40.06 -28 37 C-26.4743447 33.18586176 -25.55602119 31.12442631 -23.1640625 28.06640625 C-22.59961426 27.34114746 -22.03516602 26.61588867 -21.45361328 25.86865234 C-20.8501709 25.10762207 -20.24672852 24.3465918 -19.625 23.5625 C-19.00737793 22.77568848 -18.38975586 21.98887695 -17.75341797 21.17822266 C-12.03658972 13.94411808 -6.08182476 6.92837912 0 0 Z M-0.5703125 2.9765625 C-2.42954841 4.94791314 -4.23118063 6.94631459 -6 9 C-6.43280273 9.48404297 -6.86560547 9.96808594 -7.31152344 10.46679688 C-13.30235124 16.83177422 -13.30235124 16.83177422 -16.34375 24.69921875 C-16.06577447 27.03314514 -16.06577447 27.03314514 -15.375 29.09765625 C-14.87335217 31.64247389 -15.68705887 32.83268174 -17 35 C-16.34 35.66 -15.68 36.32 -15 37 C-13.99240469 38.65303834 -13.01640232 40.32543715 -12.05859375 42.0078125 C-11.47400391 42.99394531 -10.88941406 43.98007813 -10.28710938 44.99609375 C-9.05761514 47.07597735 -7.85159264 49.16992208 -6.66992188 51.27734375 C-3.66212706 56.73662602 -3.66212706 56.73662602 1.47216797 59.67871094 C3.75331874 59.67960463 5.77747163 59.49770906 8 59 C7.67 58.01 7.34 57.02 7 56 C7.99 55.505 7.99 55.505 9 55 C9.4125 55.66 9.825 56.32 10.25 57 C10.8275 57.66 11.405 58.32 12 59 C13.32 59 14.64 59 16 59 C17.32 59 18.64 59 20 59 C19.79503906 58.25234375 19.59007812 57.5046875 19.37890625 56.734375 C19.10949219 55.74953125 18.84007812 54.7646875 18.5625 53.75 C18.29566406 52.77546875 18.02882813 51.8009375 17.75390625 50.796875 C17.14493079 48.53767069 16.56749476 46.26997905 16 44 C17.65 48.62 19.3 53.24 21 58 C26.02833556 57.53435639 26.02833556 57.53435639 28.2734375 54.3046875 C28.99070096 53.17188765 29.69083294 52.02809054 30.375 50.875 C30.74238281 50.318125 31.10976563 49.76125 31.48828125 49.1875 C33.22683874 46.34020207 33.99330171 44.16955045 34.125 40.8359375 C32.42499336 35.03938709 29.55801753 30.00920384 26.625 24.75 C26.03460938 23.66203125 25.44421875 22.5740625 24.8359375 21.453125 C21.56719553 15.24220391 21.56719553 15.24220391 17 10 C16.34 12.31 15.68 14.62 15 17 C15 13.7 15 10.4 15 7 C12.525 6.505 12.525 6.505 10 6 C10.33 6.66 10.66 7.32 11 8 C8.69 7.01 6.38 6.02 4 5 C4.33 4.34 4.66 3.68 5 3 C2.13911486 1.89066761 2.13911486 1.89066761 -0.5703125 2.9765625 Z " fill="#BE997A" transform="translate(240,89)"/>
<path d="M0 0 C5.2354914 2.47495957 9.39229231 6.78458462 12 12 C12.71483622 18.3882832 13.21627336 24.27003143 9.25 29.625 C5.06821973 34.46150345 0.1331262 37.00985461 -5.5625 39.71875 C-8.03121873 40.92761538 -8.03121873 40.92761538 -10.12109375 42.6328125 C-12.83046678 44.60428975 -14.73728354 44.416517 -18 44 C-19.68359375 42.4765625 -19.68359375 42.4765625 -21 41 C-20.31292969 40.86722656 -19.62585938 40.73445313 -18.91796875 40.59765625 C-18.01691406 40.42105469 -17.11585937 40.24445313 -16.1875 40.0625 C-15.29417969 39.88847656 -14.40085937 39.71445312 -13.48046875 39.53515625 C-10.88602829 39.02258847 -10.88602829 39.02258847 -8 38 C-8.58007812 37.79246094 -9.16015625 37.58492188 -9.7578125 37.37109375 C-16.90015365 34.55422983 -20.99711254 31.00577492 -24.4375 24.125 C-25.45184613 18.48974375 -24.95941602 13.84776418 -22.3125 8.75 C-15.67583068 0.8577446 -10.23730496 -0.95261947 0 0 Z " fill="#222121" transform="translate(134,370)"/>
<path d="M0 0 C1 3 1 3 0 6 C0.99 4.68 1.98 3.36 3 2 C2.855625 2.60585937 2.71125 3.21171875 2.5625 3.8359375 C1.01827721 10.80638761 -0.30499067 18.08502799 2 25 C1.96519531 24.0821875 1.93039063 23.164375 1.89453125 22.21875 C1.73612404 15.03762333 1.87621422 9.50788704 5 3 C7.33333333 3 9.66666667 3 12 3 C12.66 4.98 13.32 6.96 14 9 C13.67 6.36 13.34 3.72 13 1 C17.57226778 4.99593151 18.67764447 10.7373713 19.2578125 16.609375 C19.36450214 21.76096039 18.79597586 26.66491683 18 31.75 C16.44235151 41.87471517 15.78592291 52.1568889 19 62 C15.60525334 60.59527724 13.78835755 59.23607557 12 56 C11.46617288 53.3205985 11.22766917 50.73203009 11 48 C10.34 49.98 9.68 51.96 9 54 C8.67 54 8.34 54 8 54 C7.67 48.72 7.34 43.44 7 38 C6.34 40.31 5.68 42.62 5 45 C2.375 47.4375 2.375 47.4375 0 49 C0.06960937 47.5459375 0.06960937 47.5459375 0.140625 46.0625 C0.43147697 37.03699979 -0.54905378 29.37679145 -3.125 20.71875 C-4.85394021 13.37075409 -4.00490976 7.85119425 -1 1 C-0.67 0.67 -0.34 0.34 0 0 Z " fill="#252322" transform="translate(216,239)"/>
<path d="M0 0 C2.59509179 0.95633938 3.93683227 2.23889706 5.859375 4.21484375 C6.77976562 5.14103516 6.77976562 5.14103516 7.71875 6.0859375 C9.109375 7.77734375 9.109375 7.77734375 9.109375 9.77734375 C9.604375 11.26234375 9.604375 11.26234375 10.109375 12.77734375 C6.64319689 18.43268699 2.32768439 21.74687538 -3.890625 23.77734375 C3.39306417 21.57529819 7.1343055 19.40245958 11.109375 12.77734375 C11.604375 14.26234375 11.604375 14.26234375 12.109375 15.77734375 C8.67624181 22.01591041 3.50852971 25.12555812 -3.1328125 27.15234375 C-11.40253646 29.02650216 -18.2720551 27.50500117 -25.890625 23.77734375 C-26.220625 23.11734375 -26.550625 22.45734375 -26.890625 21.77734375 C-27.715625 21.46796875 -28.540625 21.15859375 -29.390625 20.83984375 C-30.628125 20.31390625 -30.628125 20.31390625 -31.890625 19.77734375 C-32.220625 18.78734375 -32.550625 17.79734375 -32.890625 16.77734375 C-33.550625 16.44734375 -34.210625 16.11734375 -34.890625 15.77734375 C-34.14039063 15.63039062 -33.39015625 15.4834375 -32.6171875 15.33203125 C-25.02687912 13.66866392 -19.29438028 11.12312221 -12.890625 6.77734375 C-12.04886719 6.22046875 -11.20710938 5.66359375 -10.33984375 5.08984375 C-8.78857696 4.06061411 -7.24231742 3.02376306 -5.703125 1.9765625 C-2.30539682 -0.27150334 -2.30539682 -0.27150334 0 0 Z " fill="#282624" transform="translate(292.890625,198.22265625)"/>
<path d="M0 0 C0.66 0.33 1.32 0.66 2 1 C2.625 3.5625 2.625 3.5625 3 6 C6.16666667 4.16666667 6.16666667 4.16666667 8 1 C7.9071875 2.36125 7.9071875 2.36125 7.8125 3.75 C7.68571386 6.98052627 7.68571386 6.98052627 9.515625 8.90625 C11.72337167 12.02033478 11.05222912 14.50206918 10.71484375 18.171875 C11.00581581 21.05768008 11.58148595 22.21160542 12.984375 24.671875 C15.60276424 29.58822325 15.48903006 34.03149097 15.3125 39.5 C15.30283203 40.39847656 15.29316406 41.29695313 15.28320312 42.22265625 C15.21621949 46.22420012 15.03194794 50.15391827 14.49609375 54.12109375 C13.96187966 58.29805904 13.78044144 62.35777675 13.75 66.5625 C13.729375 67.27857422 13.70875 67.99464844 13.6875 68.73242188 C13.64971158 73.92360653 14.79939237 77.31502217 17 82 C17 82.99 17 83.98 17 85 C13.6989701 84.40114059 11.78574977 83.30314403 9.25 81.125 C8.32960937 80.35542969 8.32960937 80.35542969 7.390625 79.5703125 C6 78 6 78 6 75 C3.525 75.99 3.525 75.99 1 77 C1 73.37 1 69.74 1 66 C0.1028125 67.175625 0.1028125 67.175625 -0.8125 68.375 C-3 71 -3 71 -6 73 C-6.99 72.67 -7.98 72.34 -9 72 C-8.51466797 70.96552734 -8.51466797 70.96552734 -8.01953125 69.91015625 C-5.49176201 62.69487622 -6.41265082 54.35652726 -8.5 47.125 C-10.54809649 39.87863955 -10.83557413 32.47920764 -10 25 C-9.04070363 23.30957749 -8.04529184 21.63864052 -7 20 C-6.78617472 17.72733565 -6.78617472 17.72733565 -7.0625 15.5 C-7.21279511 11.88690561 -7.14823183 11.21771549 -5 8.0625 C-4.34 7.381875 -3.68 6.70125 -3 6 C-3 5.34 -3 4.68 -3 4 C-2.34 4 -1.68 4 -1 4 C-0.67 2.68 -0.34 1.36 0 0 Z M-5 20 C-8.77619979 25.66429969 -9.42377295 30.24017471 -9 37 C-8.40739223 39.51858303 -7.7378303 42.02007039 -7 44.5 C-4.70364012 52.74011128 -4.59328166 60.50410585 -5 69 C0.1681653 65.59989125 0.10715563 64.62495529 2 58 C2.33 63.28 2.66 68.56 3 74 C3.99 73.505 3.99 73.505 5 73 C5.65555119 70.47266765 5.65555119 70.47266765 6 68 C6.14695313 69.01320313 6.14695313 69.01320313 6.296875 70.046875 C7.20425647 75.71448406 7.20425647 75.71448406 10 80.625 C11.87017048 82.18884294 11.87017048 82.18884294 14 82 C13.67 80.989375 13.34 79.97875 13 78.9375 C10.51391555 68.86885798 11.96306407 58.37445397 13.54296875 48.28125 C14.7145896 39.86961314 14.5612909 31.85535771 11 24 C9.48880838 22.25246717 9.48880838 22.25246717 8 21 C8.33 23.64 8.66 26.28 9 29 C8.34 27.02 7.68 25.04 7 23 C6.4225 23.165 5.845 23.33 5.25 23.5 C3 24 3 24 -1 24 C-3.62096065 30.88002171 -3.18170362 37.72176039 -3 45 C-5.500629 37.498113 -3.78853026 29.50543947 -2 22 C-2.99 23.32 -3.98 24.64 -5 26 C-4.67 24.02 -4.34 22.04 -4 20 C-4.33 20 -4.66 20 -5 20 Z " fill="#B49174" transform="translate(221,219)"/>
<path d="M0 0 C1.32 0.66 2.64 1.32 4 2 C3.67 2.33 3.34 2.66 3 3 C7.94749352 4.95031608 7.94749352 4.95031608 13 4 C14.39626905 10.20438909 15.00004742 15.186115 12 21 C9.26097931 23.64320362 6.26154003 25.69994133 3.0625 27.75 C2.25780273 28.27537354 1.45310547 28.80074707 0.62402344 29.34204102 C-5.65563138 33.04997433 -10.7853366 33.64877906 -18 33 C-17.649375 32.154375 -17.29875 31.30875 -16.9375 30.4375 C-15.70896551 27.02832664 -15.70896551 27.02832664 -16.8125 23.6875 C-17.06304688 18.76007799 -15.37249778 17.13889416 -12.2578125 13.48828125 C-11.51273438 12.66714844 -10.76765625 11.84601563 -10 11 C-9.10130736 9.99371739 -8.20288115 8.98719678 -7.3046875 7.98046875 C-4.89504839 5.29672518 -2.45482976 2.64252298 0 0 Z " fill="#222121" transform="translate(241,91)"/>
<path d="M0 0 C4.70701486 0.58837686 10.55895576 2.55895576 14 6 C14.04063832 7.66617115 14.042721 9.33388095 14 11 C-4.15541181 21.80780985 -27.84160591 21.03167882 -48 17 C-48 23.27 -48 29.54 -48 36 C-48.66 36 -49.32 36 -50 36 C-50.33 29.73 -50.66 23.46 -51 17 C-51.66 16.67 -52.32 16.34 -53 16 C-55.80362384 14.13091744 -58.38485683 12.12038635 -61 10 C-60.67777813 6.9925959 -59.99223238 5.99223238 -57.8125 3.8125 C-54.561886 1.71765986 -52.88880636 0.76190981 -49 1 C-46.63529671 3.0792152 -44.8069822 5.43049694 -43 8 C-46.875 10 -46.875 10 -48 10 C-42.75134619 15.24865381 -29.23990354 13.23280947 -21.89135742 13.2578125 C-11.62700635 13.11867907 -1.81706517 10.89849164 8 8 C4.72782865 8 2.37445544 8.26483401 -0.75 9 C-1.54921875 9.185625 -2.3484375 9.37125 -3.171875 9.5625 C-3.77515625 9.706875 -4.3784375 9.85125 -5 10 C-3.66511872 6.40608886 -2.03977277 3.24509304 0 0 Z " fill="#292725" transform="translate(273,136)"/>
<path d="M0 0 C0.33 0 0.66 0 1 0 C1.33 1.65 1.66 3.3 2 5 C2.66 3.35 3.32 1.7 4 0 C4.33 0 4.66 0 5 0 C4.03644647 13.6332574 4.03644647 13.6332574 3 20 C2.67 20 2.34 20 2 20 C1.67 18.02 1.34 16.04 1 14 C0.67 16.31 0.34 18.62 0 21 C-0.66 21 -1.32 21 -2 21 C-3.68226379 24.02807483 -5 26.50800621 -5 30 C-3.58879125 32.16212717 -2.04121202 34.08698845 -0.34765625 36.03515625 C1 38 1 38 1 42 C-2.875 40.25 -2.875 40.25 -4 38 C-5.485 38.495 -5.485 38.495 -7 39 C-6.34 39.99 -5.68 40.98 -5 42 C-8.21374933 42.72568533 -10.80440342 42.87987396 -14 42 C-17.22861838 38.78518897 -19.32579269 35.00776937 -21.5625 31.0625 C-22.18962891 30.02158203 -22.81675781 28.98066406 -23.46289062 27.90820312 C-28 20.313369 -28 20.313369 -28 19 C-26.7109375 18.77828125 -25.421875 18.5565625 -24.09375 18.328125 C-18.6023511 17.10159782 -14.25474172 14.68628918 -9.5 11.75 C-8.69046875 11.28464844 -7.8809375 10.81929687 -7.046875 10.33984375 C-2.27294919 7.52297364 -2.27294919 7.52297364 0.03125 2.640625 C0.0209375 1.76921875 0.010625 0.8978125 0 0 Z " fill="#B59275" transform="translate(253,106)"/>
<path d="M0 0 C4.10850354 0.69504759 7.84892196 1.91871521 11.75 3.375 C12.89984375 3.79523438 14.0496875 4.21546875 15.234375 4.6484375 C16.14703125 5.09445313 17.0596875 5.54046875 18 6 C18.495 7.485 18.495 7.485 19 9 C18.34 9.66 17.68 10.32 17 11 C16.31822002 13.65719837 16.31822002 13.65719837 15.875 16.625 C15.70742187 17.62789062 15.53984375 18.63078125 15.3671875 19.6640625 C15.18542969 20.82035156 15.18542969 20.82035156 15 22 C14.67 22 14.34 22 14 22 C14 17.05 14 12.1 14 7 C13.34 7 12.68 7 12 7 C12.66 7.66 13.32 8.32 14 9 C9.87248551 8.39301257 6.6678852 6.96189209 3 5 C3 4.34 3 3.68 3 3 C-3.99302495 5.80044749 -9.6243639 13.52864107 -13.6875 19.6875 C-14.99265318 22.98145802 -15.08547921 23.87935245 -14.5625 27.1875 C-14 31 -14 31 -15.4375 33.5 C-15.953125 33.995 -16.46875 34.49 -17 35 C-14.36 35 -11.72 35 -9 35 C-9 35.33 -9 35.66 -9 36 C-11.475 36.495 -11.475 36.495 -14 37 C-11.9330766 40.46839393 -9.84376468 43.92275418 -7.75 47.375 C-7.16347656 48.35984375 -6.57695312 49.3446875 -5.97265625 50.359375 C-5.39902344 51.30039063 -4.82539063 52.24140625 -4.234375 53.2109375 C-3.71069336 54.08024902 -3.18701172 54.94956055 -2.64746094 55.84521484 C-0.95163203 58.38994935 -0.95163203 58.38994935 3 60 C-2.94 60 -8.88 60 -15 60 C-15 59.34 -15 58.68 -15 58 C-16.65 57.34 -18.3 56.68 -20 56 C-16.94736336 55.01879536 -15.05263664 55.01879536 -12 56 C-12 52.86676575 -14.04649081 51.31979216 -16 49 C-20.87362847 49.45336079 -23.39042389 50.7089159 -27 54 C-27.03525132 55.88658874 -27.03525132 55.88658874 -26 58 C-23.75835678 59.59501537 -21.46433357 60.74543018 -19 62 C-20.485 62.495 -20.485 62.495 -22 63 C-27 60 -27 60 -29 58 C-29.375 55.1875 -29.375 55.1875 -29 52 C-25.83896999 48.74865484 -23.30459915 47.72183966 -19 46 C-21.97 43.03 -24.94 40.06 -28 37 C-26.4743447 33.18586176 -25.55602119 31.12442631 -23.1640625 28.06640625 C-22.59961426 27.34114746 -22.03516602 26.61588867 -21.45361328 25.86865234 C-20.8501709 25.10762207 -20.24672852 24.3465918 -19.625 23.5625 C-19.00737793 22.77568848 -18.38975586 21.98887695 -17.75341797 21.17822266 C-12.03658972 13.94411808 -6.08182476 6.92837912 0 0 Z " fill="#CEA583" transform="translate(240,89)"/>
<path d="M0 0 C16 0 16 0 22 3 C23.56935594 6.13871188 23.35201103 8.53855822 23 12 C20.5 14.9375 20.5 14.9375 18 17 C18.58652344 17.68707031 19.17304688 18.37414062 19.77734375 19.08203125 C22.87595705 23.14998228 25.00436804 27.5898819 27.31640625 32.13671875 C28.8439688 35.21093268 28.8439688 35.21093268 32 37 C28.0215953 37.4626052 26.47718522 37.36873404 23.25 34.875 C20.10404778 30.85517216 19.20101563 27.31776912 18.4375 22.3125 C17.38426951 18.91862201 17.38426951 18.91862201 14.94140625 17.9609375 C13.34188847 17.45421027 11.72458474 16.99994014 10.09375 16.60546875 C8 16 8 16 6 14 C5.67 21.59 5.34 29.18 5 37 C3.35 37 1.7 37 0 37 C0 24.79 0 12.58 0 0 Z " fill="#312D2A" transform="translate(268,370)"/>
<path d="M0 0 C2.82971552 3.37700931 4.47102564 7.06755119 6.13671875 11.1015625 C6.42102249 11.77923676 6.70532623 12.45691101 6.99824524 13.15512085 C7.59503306 14.58112932 8.1890742 16.00829005 8.78051758 17.43652344 C9.68847137 19.62734384 10.60623929 21.8138573 11.52539062 24 C12.1047502 25.38777737 12.6835461 26.77579022 13.26171875 28.1640625 C13.6741407 29.14688705 13.6741407 29.14688705 14.09489441 30.14956665 C16 34.76875385 16 34.76875385 16 37 C13.67578125 36.87890625 13.67578125 36.87890625 11 36 C9.41796875 33.27734375 9.41796875 33.27734375 8.1875 29.9375 C7.55908203 28.28041016 7.55908203 28.28041016 6.91796875 26.58984375 C6.61503906 25.73519531 6.31210937 24.88054687 6 24 C2.10782152 24.82334545 -0.39947217 25.39947217 -3.25 28.25 C-5.08727598 31.01743304 -5.08727598 31.01743304 -6.5625 34.25 C-8 37 -8 37 -11 38 C-12.5625 37 -12.5625 37 -14 35 C-14 25.05253839 -7.2987943 7.2987943 0 0 Z " fill="#322D2A" transform="translate(317,370)"/>
<path d="M0 0 C0.66 0 1.32 0 2 0 C2.81974263 2.03876949 3.6304807 4.08116075 4.4375 6.125 C4.88996094 7.26195312 5.34242188 8.39890625 5.80859375 9.5703125 C11.36324745 25.56043036 8.98333156 45.24918403 1.75 60.1875 C-1.22286889 65.99317143 -4.66091749 71.13153052 -9 76 C-9.58136719 76.67417969 -10.16273438 77.34835937 -10.76171875 78.04296875 C-21.09985624 89.24803601 -36.81419125 97.44046002 -52.19775391 98.09326172 C-67.71852255 98.46803981 -67.71852255 98.46803981 -75 97 C-73 95 -73 95 -70.71606445 94.83642578 C-69.774646 94.8723584 -68.83322754 94.90829102 -67.86328125 94.9453125 C-66.81817383 94.97302734 -65.77306641 95.00074219 -64.69628906 95.02929688 C-63.57963867 95.06087891 -62.46298828 95.09246094 -61.3125 95.125 C-41.53563558 95.36063924 -26.84263743 90.18918195 -12.21484375 76.34375 C-0.58563235 64.03770619 4.61372729 48.63527256 6 32 C5.01 32.495 5.01 32.495 4 33 C4 34.65 4 36.3 4 38 C2.35 38 0.7 38 -1 38 C-1.625 36.1875 -1.625 36.1875 -2 34 C-1.34 33.01 -0.68 32.02 0 31 C-0.99 29.515 -0.99 29.515 -2 28 C-2.35840349 25.13277207 -2.41121458 23.62764331 -0.8125 21.1875 C1.55982525 19.63321794 3.22041345 19.77462812 6 20 C6 19.01 6 18.02 6 17 C4.88625 17.20625 3.7725 17.4125 2.625 17.625 C1.42875 17.74875 0.2325 17.8725 -1 18 C-3 16 -3 16 -3.3125 13.0625 C-3 10 -3 10 -1.625 8.1875 C0 7 0 7 2 6 C1.01 3.03 1.01 3.03 0 0 Z " fill="#B59275" transform="translate(309,218)"/>
<path d="M0 0 C0.12375 0.5775 0.2475 1.155 0.375 1.75 C1.00910065 4.03276234 1.88771841 5.91447201 3 8 C4.48982725 10.9796545 3.86672576 13.82548532 3.64453125 17.1015625 C3.99908933 19.99257451 4.58510771 21.21112647 5.9921875 23.6796875 C8.60435081 28.59145747 8.48880889 33.03834227 8.3125 38.5 C8.30283203 39.39847656 8.29316406 40.29695313 8.28320312 41.22265625 C8.21621949 45.22420012 8.03194794 49.15391827 7.49609375 53.12109375 C6.96187966 57.29805904 6.78044144 61.35777675 6.75 65.5625 C6.729375 66.27857422 6.70875 66.99464844 6.6875 67.73242188 C6.64971158 72.92360653 7.79939237 76.31502217 10 81 C10 81.99 10 82.98 10 84 C6.6989701 83.40114059 4.78574977 82.30314403 2.25 80.125 C1.32960937 79.35542969 1.32960937 79.35542969 0.390625 78.5703125 C-1 77 -1 77 -1 74 C-3.475 74.99 -3.475 74.99 -6 76 C-6 72.37 -6 68.74 -6 65 C-6.8971875 66.175625 -6.8971875 66.175625 -7.8125 67.375 C-10 70 -10 70 -13 72 C-13.99 71.67 -14.98 71.34 -16 71 C-15.2884375 69.2365625 -15.2884375 69.2365625 -14.5625 67.4375 C-13.11193153 63.59896741 -12.42422897 60.07259809 -12 56 C-11.67 56 -11.34 56 -11 56 C-11 59.63 -11 63.26 -11 67 C-7.7089159 63.39042389 -6.45336079 60.87362847 -6 56 C-5.34 56.33 -4.68 56.66 -4 57 C-3.68758629 59.54941373 -3.48696579 62.00361513 -3.375 64.5625 C-3.33632812 65.27341797 -3.29765625 65.98433594 -3.2578125 66.71679688 C-3.16328217 68.47742425 -3.08054183 70.23867728 -3 72 C-2.34 69.69 -1.68 67.38 -1 65 C-0.67 65 -0.34 65 0 65 C0.02578125 65.66386719 0.0515625 66.32773437 0.078125 67.01171875 C0.43179146 72.51766256 0.7865003 76.04186392 5 80 C5.66 80.33 6.32 80.66 7 81 C6.2575 79.4840625 6.2575 79.4840625 5.5 77.9375 C1.89557974 68.25168821 3.98894895 57.20908873 5.54296875 47.28125 C6.76389215 38.51564611 6.02875932 31.31105981 3 23 C3 23.66 3 24.32 3 25 C3 29 3 33 3 37 C2.67 37 2.34 37 2 37 C1.34 32.05 0.68 27.1 0 22 C-0.66 22 -1.32 22 -2 22 C-1.67 21.01 -1.34 20.02 -1 19 C-0.34 19 0.32 19 1 19 C1.0270043 17.54176788 1.04639787 16.08339325 1.0625 14.625 C1.07410156 13.81289062 1.08570313 13.00078125 1.09765625 12.1640625 C1.14466334 9.95062858 1.14466334 9.95062858 0 8 C-2.32156597 7.59270772 -4.6568787 7.25561323 -7 7 C-6.67 6.34 -6.34 5.68 -6 5 C-5.360625 4.87625 -4.72125 4.7525 -4.0625 4.625 C-1.80148727 4.19060573 -1.80148727 4.19060573 -0.75 1.9375 C-0.37875 0.9784375 -0.37875 0.9784375 0 0 Z " fill="#BC9779" transform="translate(228,220)"/>
<path d="M0 0 C5.33892321 0.34819064 5.33892321 0.34819064 7.671875 2.6484375 C9.40542851 5.71784696 9.39934972 7.92708247 9.375 11.4375 C9.38273437 12.54996094 9.39046875 13.66242188 9.3984375 14.80859375 C8.95979043 18.32207075 8.17417456 20.22273273 6 23 C2.8125 23.8125 2.8125 23.8125 0 24 C-4.24763651 18.79321977 -5.33544136 16.21311997 -5.296875 9.55078125 C-4.81423021 5.40384638 -2.93976717 2.93976717 0 0 Z " fill="#2C2926" transform="translate(262,247)"/>
<path d="M0 0 C1.32 0.33 2.64 0.66 4 1 C3.01 1 2.02 1 1 1 C1 6.94 1 12.88 1 19 C2.32 19.66 3.64 20.32 5 21 C9 23 13 25 17 27 C11.2717423 27.45826062 8.5001506 26.55825861 4 23 C3.34 22.34 2.68 21.68 2 21 C1.01 21 0.02 21 -1 21 C-1.33 23.64 -1.66 26.28 -2 29 C-2.33 29 -2.66 29 -3 29 C-3 26.69 -3 24.38 -3 22 C-24.12119065 29.78937528 -40.30714906 43.9261686 -49.94140625 64.328125 C-54.36416633 75.49110616 -56.03985097 86.53652458 -56.5625 98.4375 C-56.60568359 99.35982422 -56.64886719 100.28214844 -56.69335938 101.23242188 C-56.79854931 103.48816163 -56.90069107 105.74399499 -57 108 C-57.33 108 -57.66 108 -58 108 C-58.78702587 82.49733471 -55.4479254 61.17510036 -37.7109375 41.83203125 C-27.88677403 31.56903627 -16.82976691 23.81510811 -3 20 C-3 14.39 -3 8.78 -3 3 C-2.67 3 -2.34 3 -2 3 C-2 8.28 -2 13.56 -2 19 C-1.34 19 -0.68 19 0 19 C0 12.73 0 6.46 0 0 Z " fill="#C39C7C" transform="translate(225,153)"/>
<path d="M0 0 C7.92 0 15.84 0 24 0 C22.42122142 4.73633574 20.66071513 8.8114382 18.3046875 13.1484375 C17.95238068 13.80582916 17.60007385 14.46322083 17.23709106 15.14053345 C16.12079289 17.22108884 14.99801868 19.29806584 13.875 21.375 C13.11284918 22.79273656 12.35112603 24.21070312 11.58984375 25.62890625 C9.73149805 29.08861711 7.86733977 32.5451359 6 36 C8.25028329 35.85860519 10.50022206 35.71171997 12.75 35.5625 C14.00296875 35.48128906 15.2559375 35.40007812 16.546875 35.31640625 C19.18317553 35.07484478 21.48037294 34.75716066 24 34 C24 34.99 24 35.98 24 37 C16.41 37 8.82 37 1 37 C2.45436188 32.63691437 3.83757467 29.12592295 5.93359375 25.12109375 C6.50013672 24.03505859 7.06667969 22.94902344 7.65039062 21.83007812 C8.24013672 20.71052734 8.82988281 19.59097656 9.4375 18.4375 C10.02337891 17.31408203 10.60925781 16.19066406 11.21289062 15.03320312 C13.70083235 10.28041546 16.20169997 5.57889401 19 1 C16.77027727 1.11465421 14.54121247 1.24214766 12.3125 1.375 C10.45044922 1.47941406 10.45044922 1.47941406 8.55078125 1.5859375 C5.30682228 1.96422094 2.93432815 2.61979976 0 4 C0 2.68 0 1.36 0 0 Z " fill="#D7AB88" transform="translate(189,370)"/>
<path d="M0 0 C9.57 0 19.14 0 29 0 C28.67 1.32 28.34 2.64 28 4 C27.484375 3.690625 26.96875 3.38125 26.4375 3.0625 C23.35837704 1.59175744 23.35837704 1.59175744 17 1 C17 12.88 17 24.76 17 37 C15.35 37 13.7 37 12 37 C12 25.12 12 13.24 12 1 C5.82239004 1.98234932 5.82239004 1.98234932 0 4 C0 2.68 0 1.36 0 0 Z " fill="#E2B48E" transform="translate(362,370)"/>
<path d="M0 0 C16 0 16 0 22 3 C23.54586876 6.09173752 23.29359521 8.59429552 23 12 C21 14.4375 21 14.4375 19 16 C18.01 15.67 17.02 15.34 16 15 C16.66 14.34 17.32 13.68 18 13 C18.28005058 11.08819451 18.28005058 11.08819451 18.1875 9 C18.18105469 8.29875 18.17460937 7.5975 18.16796875 6.875 C18.10706133 4.90943627 18.10706133 4.90943627 17 3 C11.06 2.01 11.06 2.01 5 1 C4.67 12.88 4.34 24.76 4 37 C2.68 37 1.36 37 0 37 C0 24.79 0 12.58 0 0 Z " fill="#D3A986" transform="translate(268,370)"/>
<path d="M0 0 C0.66 0 1.32 0 2 0 C2.81974263 2.03876949 3.6304807 4.08116075 4.4375 6.125 C5.11619141 7.83042969 5.11619141 7.83042969 5.80859375 9.5703125 C8.05826613 16.04641857 8.12881865 22.10029475 8.0625 28.875 C8.05798828 29.75414062 8.05347656 30.63328125 8.04882812 31.5390625 C8.03712337 33.69273803 8.01919069 35.84637817 8 38 C7.67 38 7.34 38 7 38 C7 35.69 7 33.38 7 31 C5.88625 31.061875 4.7725 31.12375 3.625 31.1875 C2.42875 31.125625 1.2325 31.06375 0 31 C-2.15502531 27.76746204 -2.46856135 26.74849077 -2 23 C-0.8125 21.1875 -0.8125 21.1875 1 20 C3.6875 19.8125 3.6875 19.8125 6 20 C6 19.01 6 18.02 6 17 C4.88625 17.20625 3.7725 17.4125 2.625 17.625 C1.42875 17.74875 0.2325 17.8725 -1 18 C-3 16 -3 16 -3.3125 13.0625 C-3 10 -3 10 -1.625 8.1875 C0 7 0 7 2 6 C1.34 4.02 0.68 2.04 0 0 Z " fill="#CBA281" transform="translate(309,218)"/>
<path d="M0 0 C8.58923888 1.73076392 8.58923888 1.73076392 11.66015625 5.8984375 C12.17578125 6.548125 12.69140625 7.1978125 13.22265625 7.8671875 C17.66015625 13.53732639 17.66015625 13.53732639 17.66015625 15.8984375 C13.78515625 14.1484375 13.78515625 14.1484375 12.66015625 11.8984375 C11.67015625 12.2284375 10.68015625 12.5584375 9.66015625 12.8984375 C10.65015625 14.3834375 10.65015625 14.3834375 11.66015625 15.8984375 C8.40512038 16.71219647 5.88704836 16.90280145 2.66015625 15.8984375 C-0.64100464 12.28830097 -5.33984375 7.01194305 -5.33984375 1.8984375 C-2.33984375 -0.1015625 -2.33984375 -0.1015625 0 0 Z " fill="#242322" transform="translate(236.33984375,132.1015625)"/>
<path d="M0 0 C3.4375 1 3.4375 1 5.375 2.6875 C6.76885063 5.7211749 6.84300092 7.68840913 6.4375 11 C5.375 13.8125 5.375 13.8125 3.4375 16 C0 17.0625 0 17.0625 -3.5625 17 C-6 15.625 -6 15.625 -7.5625 13 C-8.33843406 8.63237116 -8.29071848 5.22340705 -6 1.375 C-3.5625 0 -3.5625 0 0 0 Z " fill="#262523" transform="translate(204.5625,213)"/>
<path d="M0 0 C4.11532772 0.55571944 7.87192793 1.92730341 11.75 3.375 C12.89984375 3.79523438 14.0496875 4.21546875 15.234375 4.6484375 C16.14703125 5.09445313 17.0596875 5.54046875 18 6 C18.495 7.485 18.495 7.485 19 9 C18.34 9.66 17.68 10.32 17 11 C16.31822002 13.65719837 16.31822002 13.65719837 15.875 16.625 C15.70742187 17.62789062 15.53984375 18.63078125 15.3671875 19.6640625 C15.18542969 20.82035156 15.18542969 20.82035156 15 22 C14.67 22 14.34 22 14 22 C14 17.05 14 12.1 14 7 C13.34 7 12.68 7 12 7 C12.66 7.66 13.32 8.32 14 9 C9.87248551 8.39301257 6.6678852 6.96189209 3 5 C3 4.34 3 3.68 3 3 C-3.99302495 5.80044749 -9.6243639 13.52864107 -13.6875 19.6875 C-15.00572089 23.01443843 -15.06900722 23.8591137 -14.5 27.1875 C-14 31 -14 31 -15.6875 33.5 C-18 35 -18 35 -22 35 C-22 27.97034024 -20.78527808 23.90584437 -16 18.75 C-15.00165845 17.62583916 -14.00427898 16.50082325 -13.0078125 15.375 C-12.50540039 14.81554687 -12.00298828 14.25609375 -11.48535156 13.6796875 C-9.20269085 11.09837493 -7.0437336 8.42779325 -4.875 5.75 C-1.09230769 1.09230769 -1.09230769 1.09230769 0 0 Z " fill="#C19B7B" transform="translate(240,89)"/>
<path d="M0 0 C0.66 0.33 1.32 0.66 2 1 C1.175 1.70125 0.35 2.4025 -0.5 3.125 C-4.10046965 7.40055771 -3.51555834 12.2263495 -3.46875 17.5625 C-2.63208277 23.69805972 0.10006027 28.24685468 5 32 C8.29961369 32.97672614 11.5907362 33.55646471 15 34 C14.40960938 34.43957031 13.81921875 34.87914062 13.2109375 35.33203125 C11.88811039 36.32999446 10.57637694 37.34334745 9.2890625 38.38671875 C6.34621099 40.68711676 4.51041065 41.92147528 0.75 42.5 C-2.32261721 41.94134232 -2.97636625 41.23790086 -5 39 C-4.31292969 38.86722656 -3.62585938 38.73445313 -2.91796875 38.59765625 C-2.01691406 38.42105469 -1.11585937 38.24445313 -0.1875 38.0625 C0.70582031 37.88847656 1.59914063 37.71445312 2.51953125 37.53515625 C5.11397171 37.02258847 5.11397171 37.02258847 8 36 C7.41992188 35.79246094 6.83984375 35.58492188 6.2421875 35.37109375 C-0.90015365 32.55422983 -4.99711254 29.00577492 -8.4375 22.125 C-9.46370895 16.42383914 -8.97924341 11.78965176 -6.1875 6.6875 C-4.23803819 4.29244692 -2.26182214 2.10026342 0 0 Z " fill="#CEA583" transform="translate(118,372)"/>
<path d="M0 0 C6.93 0 13.86 0 21 0 C20.67 1.32 20.34 2.64 20 4 C19.01 3.34 18.02 2.68 17 2 C14.03157342 1.54084493 14.03157342 1.54084493 10.8125 1.375 C9.72582031 1.30023438 8.63914062 1.22546875 7.51953125 1.1484375 C6.68808594 1.09945313 5.85664063 1.05046875 5 1 C5.01160156 1.67160156 5.02320313 2.34320313 5.03515625 3.03515625 C5.13755831 14.37252761 4.54553675 25.67866146 4 37 C2.68 37 1.36 37 0 37 C0 24.79 0 12.58 0 0 Z " fill="#E3B58F" transform="translate(337,370)"/>
<path d="M0 0 C0.33 0 0.66 0 1 0 C2.29512244 12.08780941 -4.20239891 26.16852221 -11 36 C-14.45030509 40.20108341 -18.19547955 44.12101384 -22 48 C-21.67902344 48.60972656 -21.35804688 49.21945312 -21.02734375 49.84765625 C-19.73152099 52.56247884 -19.49164639 54.02250029 -20 57 C-26.07501715 64.40392715 -34.92469926 70.05309297 -44 73 C-44.99 72.67 -45.98 72.34 -47 72 C-45.40671875 71.25556641 -45.40671875 71.25556641 -43.78125 70.49609375 C-32.19311747 65.37565206 -32.19311747 65.37565206 -23 57 C-23 55.68 -23 54.36 -23 53 C-25.0745356 51.7763932 -25.0745356 51.7763932 -28 52 C-29.81584549 52.74193916 -29.81584549 52.74193916 -31.6875 53.78515625 C-32.38617188 54.15060547 -33.08484375 54.51605469 -33.8046875 54.89257812 C-35.26985359 55.67339173 -36.73339794 56.45725601 -38.1953125 57.24414062 C-38.89398438 57.60830078 -39.59265625 57.97246094 -40.3125 58.34765625 C-40.94800781 58.68804932 -41.58351563 59.02844238 -42.23828125 59.37915039 C-44 60 -44 60 -47 59 C-45.87722656 58.50371094 -44.75445312 58.00742187 -43.59765625 57.49609375 C-35.37767829 53.7951297 -27.60689422 50.281965 -21 44 C-20.3296875 43.38125 -19.659375 42.7625 -18.96875 42.125 C-7.66180658 30.6441036 -3.45577732 15.28516892 0 0 Z " fill="#C49D7D" transform="translate(331,260)"/>
<path d="M0 0 C0.66 0.33 1.32 0.66 2 1 C1.4140625 7.15234375 1.4140625 7.15234375 1 9 C0.01 9.495 0.01 9.495 -1 10 C-1.66 9.67 -2.32 9.34 -3 9 C-4.41385911 11.38162009 -4.41385911 11.38162009 -5 14 C-4.01 13.67 -3.02 13.34 -2 13 C-2.6875 15.4375 -2.6875 15.4375 -4 18 C-8.27204879 19.83087805 -11.74881373 18.41706209 -16 17 C-16.33 15.02 -16.66 13.04 -17 11 C-14.21681883 9.13284189 -11.42220667 7.28356646 -8.625 5.4375 C-7.8309375 4.90447266 -7.036875 4.37144531 -6.21875 3.82226562 C-5.45820313 3.32275391 -4.69765625 2.82324219 -3.9140625 2.30859375 C-2.8614624 1.60947876 -2.8614624 1.60947876 -1.78759766 0.89624023 C-1.19769043 0.60048096 -0.6077832 0.30472168 0 0 Z " fill="#252322" transform="translate(251,114)"/>
<path d="M0 0 C1.32 0 2.64 0 4 0 C4.0093457 0.78125244 4.01869141 1.56250488 4.02832031 2.36743164 C4.08225312 5.93307764 4.1658581 9.49744415 4.25 13.0625 C4.26417969 14.29162109 4.27835938 15.52074219 4.29296875 16.78710938 C4.47789211 23.64776618 4.74160778 28.4849018 9 34 C12.21575678 35.60787839 15.5124587 35.48211971 19 35 C21.57816377 33.89230862 23.64890752 32.56739499 26 31 C25.05708604 33.35728489 24.4290911 34.7267671 22.2578125 36.109375 C17.97319383 37.7995014 13.51928869 37.53052519 9 37 C4.42940751 34.79632148 2.21786187 32.50847311 0 28 C-0.34057617 24.86206055 -0.34057617 24.86206055 -0.29296875 21.38671875 C-0.28330078 20.13955078 -0.27363281 18.89238281 -0.26367188 17.60742188 C-0.2259668 15.66706055 -0.2259668 15.66706055 -0.1875 13.6875 C-0.17396484 12.37458984 -0.16042969 11.06167969 -0.14648438 9.70898438 C-0.11117443 6.47223923 -0.0618528 3.23632895 0 0 Z " fill="#CEA583" transform="translate(150,370)"/>
<path d="M0 0 C1.17755859 -0.01160156 1.17755859 -0.01160156 2.37890625 -0.0234375 C3.05824219 0.10804688 3.73757812 0.23953125 4.4375 0.375 C6.91788907 4.0955836 6.90087203 5.97296571 6.4375 10.375 C4.8125 12.8125 4.8125 12.8125 2.4375 14.375 C-0.5625 14.9375 -0.5625 14.9375 -3.5625 14.375 C-6.49808002 11.7484284 -7.45273229 10.15905505 -8 6.25 C-7.24101457 1.26238147 -4.87207723 -0.04815892 0 0 Z " fill="#423A33" transform="translate(223.5625,226.625)"/>
<path d="M0 0 C0.66 0.33 1.32 0.66 2 1 C1.2575 2.11375 1.2575 2.11375 0.5 3.25 C-1.94578621 8.21212395 -1.75450065 13.62682715 -1 19 C0.96136992 23.98817534 4.26777605 28.41878694 9 31 C13.26015709 31.67633881 16.82881785 31.43282818 20.875 29.9375 C23.80826595 27.26305164 24.66539875 24.72283507 26 21 C26.33 21 26.66 21 27 21 C27.375 23.6875 27.375 23.6875 27 27 C23.11416095 31.17016873 19.70730936 33.01598114 14 34 C7.0474863 34 2.95986943 31.83916464 -2 27 C-6.00986509 22.48326994 -6.71977799 17.73974946 -6.5390625 11.80078125 C-5.62895229 7.07216517 -3.02904516 3.65108122 0 0 Z " fill="#D1A785" transform="translate(238,374)"/>
<path d="M0 0 C2.82971552 3.37700931 4.47102564 7.06755119 6.13671875 11.1015625 C6.42102249 11.77923676 6.70532623 12.45691101 6.99824524 13.15512085 C7.59503306 14.58112932 8.1890742 16.00829005 8.78051758 17.43652344 C9.68847137 19.62734384 10.60623929 21.8138573 11.52539062 24 C12.1047502 25.38777737 12.6835461 26.77579022 13.26171875 28.1640625 C13.6741407 29.14688705 13.6741407 29.14688705 14.09489441 30.14956665 C16 34.76875385 16 34.76875385 16 37 C13.67651367 36.84619141 13.67651367 36.84619141 11 36 C9.4543457 33.61083984 9.4543457 33.61083984 8.17578125 30.4609375 C7.70462891 29.32269531 7.23347656 28.18445313 6.74804688 27.01171875 C6.27431641 25.81160156 5.80058594 24.61148437 5.3125 23.375 C4.82716797 22.19808594 4.34183594 21.02117187 3.84179688 19.80859375 C-1.11334428 7.65653723 -1.11334428 7.65653723 -2 3 C-1.34 2.01 -0.68 1.02 0 0 Z " fill="#D4A986" transform="translate(317,370)"/>
<path d="M0 0 C0.66 1.32 1.32 2.64 2 4 C-4.52046601 12.06478691 -12.78023913 15.79292465 -22 20 C-22.33 19.34 -22.66 18.68 -23 18 C-23.9075 18.350625 -24.815 18.70125 -25.75 19.0625 C-29.00591313 20.00170571 -29.92749994 19.95514676 -33 19 C-31.92621094 18.61328125 -30.85242188 18.2265625 -29.74609375 17.828125 C-28.30977493 17.30241354 -26.87358378 16.77635317 -25.4375 16.25 C-24.73302734 15.99734375 -24.02855469 15.7446875 -23.30273438 15.484375 C-19.71681981 14.16237885 -16.39645812 12.73664234 -13.09765625 10.796875 C-10 9 -10 9 -8 9 C-8 8.01 -8 7.02 -8 6 C-8.54269531 6.30035156 -9.08539063 6.60070312 -9.64453125 6.91015625 C-10.35996094 7.29042969 -11.07539063 7.67070312 -11.8125 8.0625 C-12.52019531 8.44535156 -13.22789062 8.82820313 -13.95703125 9.22265625 C-16 10 -16 10 -19 9 C-16.58618654 7.68200981 -14.16922404 6.37049082 -11.75 5.0625 C-11.06808594 4.68931641 -10.38617188 4.31613281 -9.68359375 3.93164062 C-9.01972656 3.57392578 -8.35585938 3.21621094 -7.671875 2.84765625 C-7.0644043 2.51773682 -6.45693359 2.18781738 -5.83105469 1.84790039 C-3.90935018 0.95802309 -2.06548422 0.44858489 0 0 Z " fill="#685749" transform="translate(308,312)"/>
<path d="M0 0 C0.33 0 0.66 0 1 0 C1.02578125 1.02996094 1.0515625 2.05992187 1.078125 3.12109375 C1.80170966 23.60242459 6.17447834 42.36609664 21.109375 57.30859375 C30.37574621 65.93633667 40.66510072 71.9848024 53 75 C53 75.33 53 75.66 53 76 C42.10658028 76.6686081 32.31663426 69.36694711 24 63 C22.989375 62.278125 21.97875 61.55625 20.9375 60.8125 C13.43675081 54.33458025 7.74686374 45.09165465 4 36 C3.608125 35.10796875 3.21625 34.2159375 2.8125 33.296875 C-1.24329577 22.5377501 -0.37734006 11.32455585 0 0 Z " fill="#C29C7C" transform="translate(183,238)"/>
<path d="M0 0 C1.84542446 1.89815088 3.38425134 3.89055036 5 6 C1.125 8 1.125 8 0 8 C0 8.99 0 9.98 0 11 C-0.33 11.66 -0.66 12.32 -1 13 C-6.28798182 12.58525633 -9.11690718 11.64775386 -13 8 C-12.66466224 4.87018088 -11.99933599 3.99938841 -9.625 1.8125 C-6.17786914 -0.56766178 -3.90642433 -1.7234225 0 0 Z " fill="#272524" transform="translate(225,138)"/>
<path d="M0 0 C1.32 0 2.64 0 4 0 C4 12.21 4 24.42 4 37 C2.68 37 1.36 37 0 37 C0 24.79 0 12.58 0 0 Z " fill="#D7AC88" transform="translate(182,370)"/>
<path d="M0 0 C10.68351064 -0.62234043 10.68351064 -0.62234043 15.4375 1.625 C20.90074946 6.6884995 24.14539764 10.49493217 24.4375 18.125 C24.40548975 23.91245299 23.46745145 27.06037181 19.703125 31.4140625 C17.86124236 33.12921009 16.1450767 34.67410613 14 36 C13.01 35.67 12.02 35.34 11 35 C11.94875 34.443125 12.8975 33.88625 13.875 33.3125 C17.26061841 30.80714238 17.80683703 29.89318435 19 26 C19.95527973 18.80020752 19.40235535 12.9268872 15.41015625 6.77734375 C12.1912568 2.72028212 9.15074432 1.91057482 4.1875 1.3125 C2.79260452 1.19644834 1.39692939 1.08825916 0 1 C0 0.67 0 0.34 0 0 Z " fill="#CDA482" transform="translate(122,370)"/>
<path d="M0 0 C0.33 0 0.66 0 1 0 C1 6.27 1 12.54 1 19 C-0.959375 19.185625 -2.91875 19.37125 -4.9375 19.5625 C-15.01321188 21.17810711 -19.78296805 26.00639984 -25.6875 34.0625 C-32.25655131 43.79657538 -36.61258221 54.27871176 -38 66 C-38.66 65.34 -39.32 64.68 -40 64 C-39.6938062 47.77172842 -29.09405938 32.99152649 -18 22 C-13.85748216 18.4744529 -10.60467979 17.85875471 -5.25 17.9375 C-4.45078125 17.94652344 -3.6515625 17.95554688 -2.828125 17.96484375 C-2.22484375 17.97644531 -1.6215625 17.98804688 -1 18 C-1.01160156 17.3709375 -1.02320313 16.741875 -1.03515625 16.09375 C-1.09286873 10.61930912 -0.80228473 5.41542194 0 0 Z " fill="#B28F73" transform="translate(223,174)"/>
<path d="M0 0 C2.2890625 2.14453125 2.2890625 2.14453125 4.625 4.8125 C5.40101563 5.68519531 6.17703125 6.55789062 6.9765625 7.45703125 C8.68902838 9.60918431 9.91287813 11.49260602 11 14 C10.34 14.66 9.68 15.32 9 16 C8.67 15.67 8.34 15.34 8 15 C7.525625 15.886875 7.05125 16.77375 6.5625 17.6875 C3.80222327 21.84275529 -0.33987881 24.35090782 -5 26 C-7.28125 25.62890625 -7.28125 25.62890625 -9 25 C-8.33613281 24.70867187 -7.67226563 24.41734375 -6.98828125 24.1171875 C-1.27089599 21.46298529 2.38232262 19.18533757 6 14 C5.34 14 4.68 14 4 14 C4.309375 13.319375 4.61875 12.63875 4.9375 11.9375 C5.01441368 8.32255703 4.27777701 7.71460201 1.875 5.125 C0.14507388 3.19722271 0.14507388 3.19722271 -2 2 C-5.76809451 2.20769025 -8.16155228 3.52448671 -11.1875 5.6875 C-28.55951569 17.68315143 -28.55951569 17.68315143 -35.4375 16.625 C-36.2109375 16.315625 -36.2109375 16.315625 -37 16 C-36.21625 15.7525 -35.4325 15.505 -34.625 15.25 C-33.42875 14.8375 -32.2325 14.425 -31 14 C-30.27296875 13.76667969 -29.5459375 13.53335938 -28.796875 13.29296875 C-22.20022154 10.96286051 -17.16155358 7.36349166 -11.76171875 3.0234375 C-7.97497727 0.24899325 -4.58792892 -2.14889161 0 0 Z " fill="#AF8D71" transform="translate(296,197)"/>
<path d="M0 0 C3.18558567 -0.65011952 5.83225775 -0.80964658 9 0 C12.02373066 2.91443919 13.93359814 6.36903673 16 10 C16.58265625 10.93070313 17.1653125 11.86140625 17.765625 12.8203125 C22 19.60718458 22 19.60718458 22 22 C18.34924186 20.49867699 16.36723727 18.41104665 13.8125 15.4375 C9.93021166 11.00059904 5.87762068 6.82455755 1.65234375 2.71484375 C0 1 0 1 0 0 Z " fill="#2A2725" transform="translate(214,125)"/>
<path d="M0 0 C4.70701486 0.58837686 10.55895576 2.55895576 14 6 C14.25 8.4375 14.25 8.4375 14 11 C13.01 11.66 12.02 12.32 11 13 C10.01 12.67 9.02 12.34 8 12 C8.33 11.34 8.66 10.68 9 10 C8.34 9.34 7.68 8.68 7 8 C4.20215289 8 2.0209322 8.37195775 -0.6875 9 C-1.49574219 9.185625 -2.30398438 9.37125 -3.13671875 9.5625 C-3.75160156 9.706875 -4.36648438 9.85125 -5 10 C-3.66511872 6.40608886 -2.03977277 3.24509304 0 0 Z " fill="#272624" transform="translate(273,136)"/>
<path d="M0 0 C2.45534514 13.37127715 -2.34890001 24.58069797 -9 36 C-11.18746776 39.13891005 -13.48864064 42.11460839 -16 45 C-16.33 44.34 -16.66 43.68 -17 43 C-16.55269531 42.40574219 -16.10539062 41.81148438 -15.64453125 41.19921875 C-6.67902672 28.90749293 -2.26093566 16.13122788 -1 1 C-1.99 1.495 -1.99 1.495 -3 2 C-3 3.65 -3 5.3 -3 7 C-4.65 7 -6.3 7 -8 7 C-8.33 5.68 -8.66 4.36 -9 3 C-5.86890758 0.21680673 -4.12722261 -0.16426757 0 0 Z " fill="#B69375" transform="translate(316,249)"/>
<path d="M0 0 C5.33892321 0.34819064 5.33892321 0.34819064 7.671875 2.6484375 C9.40542851 5.71784696 9.39934972 7.92708247 9.375 11.4375 C9.38273437 12.54996094 9.39046875 13.66242188 9.3984375 14.80859375 C8.95979043 18.32207075 8.17417456 20.22273273 6 23 C2.8125 23.8125 2.8125 23.8125 0 24 C-4.24763651 18.79321977 -5.33544136 16.21311997 -5.296875 9.55078125 C-4.81423021 5.40384638 -2.93976717 2.93976717 0 0 Z M0 2 C-3.63128044 5.89065762 -3.25922921 9.97276146 -3.10546875 14.98828125 C-3.07066406 15.65214844 -3.03585937 16.31601562 -3 17 C-1.02 17.99 -1.02 17.99 1 19 C0.01 18.67 -0.98 18.34 -2 18 C-1.34 19.32 -0.68 20.64 0 22 C2.94727535 21.89830839 2.94727535 21.89830839 6 21 C8.44858847 17.21581781 8.31435956 13.40103383 8 9 C7.02515446 5.86656791 6.32377005 4.32377005 4 2 C2.68 2 1.36 2 0 2 Z " fill="#C49D7D" transform="translate(262,247)"/>
<path d="M0 0 C3.53884077 1.17961359 3.77496185 1.83621164 5.55859375 4.96484375 C6.02716797 5.76470703 6.49574219 6.56457031 6.97851562 7.38867188 C7.94852394 9.08326472 8.91728137 10.77857422 9.88476562 12.47460938 C10.35462891 13.27576172 10.82449219 14.07691406 11.30859375 14.90234375 C11.93979126 16.00823853 11.93979126 16.00823853 12.58374023 17.13647461 C14.10207894 19.41896748 14.10207894 19.41896748 18 21 C12.06 21 6.12 21 0 21 C0 20.34 0 19.68 0 19 C-2.475 18.01 -2.475 18.01 -5 17 C-1.94736336 16.01879536 -0.05263664 16.01879536 3 17 C3 14.41073669 2.17346382 13.79948339 0.5 11.875 C-0.325 10.92625 -1.15 9.9775 -2 9 C-1.67 8.34 -1.34 7.68 -1 7 C3 11 7 15 11 19 C10.66677734 18.45996338 10.33355469 17.91992676 9.99023438 17.36352539 C8.49119513 14.9312556 6.99555625 12.49691282 5.5 10.0625 C4.97535156 9.21236328 4.45070312 8.36222656 3.91015625 7.48632812 C3.41386719 6.67744141 2.91757813 5.86855469 2.40625 5.03515625 C1.94541016 4.2862915 1.48457031 3.53742676 1.00976562 2.76586914 C0 1 0 1 0 0 Z " fill="#C79F7F" transform="translate(225,128)"/>
<path d="M0 0 C2.31 1.65 4.62 3.3 7 5 C6.01 3.68 5.02 2.36 4 1 C4.55558594 1.29003906 5.11117187 1.58007812 5.68359375 1.87890625 C8.92476803 3.44756901 12.28662392 4.64931746 15.66015625 5.90234375 C17.99088247 6.99572283 19.32518805 8.07259346 21 10 C19.68 9.67 18.36 9.34 17 9 C17 9.66 17 10.32 17 11 C17.99 11.33 18.98 11.66 20 12 C19.01 12.495 19.01 12.495 18 13 C17.34 12.67 16.68 12.34 16 12 C15.67 12.66 15.34 13.32 15 14 C13.24312628 12.94890486 11.49476874 11.88356877 9.75 10.8125 C8.77546875 10.22082031 7.8009375 9.62914062 6.796875 9.01953125 C3.91027557 6.93521295 2.01148147 4.92622661 0 2 C0 1.34 0 0.68 0 0 Z " fill="#342F2B" transform="translate(190,314)"/>
<path d="M0 0 C0.66 0 1.32 0 2 0 C2.8394882 2.10171867 3.67139656 4.20646625 4.5 6.3125 C5.19609375 8.07013672 5.19609375 8.07013672 5.90625 9.86328125 C7 13 7 13 7 16 C6.01 16 5.02 16 4 16 C4 16.66 4 17.32 4 18 C1.625 18.125 1.625 18.125 -1 18 C-3 16 -3 16 -3.3125 13.0625 C-3 10 -3 10 -1.625 8.1875 C0 7 0 7 2 6 C1.34 4.02 0.68 2.04 0 0 Z " fill="#BF997A" transform="translate(309,218)"/>
<path d="M0 0 C1.010625 0.0825 2.02125 0.165 3.0625 0.25 C5.0625 3.25 5.0625 3.25 4.75 6.875 C4.0625 10.25 4.0625 10.25 3.0625 11.25 C0.125 11.5 0.125 11.5 -2.9375 11.25 C-4.9375 8.25 -4.9375 8.25 -4.625 4.625 C-3.74784483 0.31896552 -3.74784483 0.31896552 0 0 Z " fill="#796452" transform="translate(195.9375,233.75)"/>
<path d="M0 0 C0.33 0 0.66 0 1 0 C1 5.61 1 11.22 1 17 C2.65 17.33 4.3 17.66 6 18 C7 21 7 21 5.75 23.6875 C5.1725 24.450625 4.595 25.21375 4 26 C3.01 26 2.02 26 1 26 C0.67 24.35 0.34 22.7 0 21 C-0.9590625 21.99 -0.9590625 21.99 -1.9375 23 C-4 25 -4 25 -5 25 C-5.25 22.75 -5.25 22.75 -5 20 C-4.3503125 19.4534375 -3.700625 18.906875 -3.03125 18.34375 C-0.19003365 15.06542344 -0.33062041 11.89828665 -0.25 7.75 C-0.22035156 7.00492188 -0.19070312 6.25984375 -0.16015625 5.4921875 C-0.0897657 3.66203328 -0.04258168 1.83101231 0 0 Z " fill="#9E8068" transform="translate(222,199)"/>
<path d="M0 0 C-1.27057182 0.47985967 -2.54146848 0.9588593 -3.8125 1.4375 C-4.87404297 1.83775391 -4.87404297 1.83775391 -5.95703125 2.24609375 C-7.62672396 2.86225186 -9.31157704 3.43719235 -11 4 C-9.02 4 -7.04 4 -5 4 C-13.68646156 8.82581198 -23.76383163 7.49867357 -33 5 C-33 4.34 -33 3.68 -33 3 C-33.99 2.34 -34.98 1.68 -36 1 C-35.41734375 1.0721875 -34.8346875 1.144375 -34.234375 1.21875 C-24.12337455 2.36339156 -15.04308421 2.78515998 -5.27734375 -0.44140625 C-3 -1 -3 -1 0 0 Z " fill="#937861" transform="translate(271,181)"/>
<path d="M0 0 C0.66 0.66 1.32 1.32 2 2 C-14.48122828 6.75444364 -29.90315796 7.63706417 -47 7 C-47 6.67 -47 6.34 -47 6 C-41.62757169 5.11876715 -36.27814614 4.71381569 -30.84765625 4.35253906 C-21.10721337 3.70261833 -11.78911467 2.96238271 -2.34375 0.390625 C-1.5703125 0.26171875 -0.796875 0.1328125 0 0 Z " fill="#AB8A6F" transform="translate(283,332)"/>
<path d="M0 0 C3.49315575 -0.32494472 5.43746109 -0.35349335 8.44921875 1.5390625 C11.60474921 4.58344871 13.2302988 7.71577459 15.125 11.625 C17.65460255 17.01991356 17.65460255 17.01991356 22 21 C18.0215953 21.4626052 16.47718522 21.36873404 13.25 18.875 C10.09775312 14.84712899 9.22631252 11.23443193 8.3125 6.25 C7.879375 5.1775 7.44625 4.105 7 3 C3.48599332 1.45913678 3.48599332 1.45913678 0 1 C0 0.67 0 0.34 0 0 Z " fill="#C8A07F" transform="translate(278,386)"/>
<path d="M0 0 C1 3 1 3 0 6 C0.99 4.68 1.98 3.36 3 2 C2.855625 2.60585937 2.71125 3.21171875 2.5625 3.8359375 C0.66240349 12.41276202 0.49679484 20.35657032 2 29 C1.01 29 0.02 29 -1 29 C-3.92397224 18.55724201 -5.45624775 11.16024487 -1 1 C-0.67 0.67 -0.34 0.34 0 0 Z " fill="#2E2A28" transform="translate(216,239)"/>
<path d="M0 0 C1.32 0.33 2.64 0.66 4 1 C3.01 1 2.02 1 1 1 C1 6.94 1 12.88 1 19 C2.32 19.66 3.64 20.32 5 21 C11 24 11 24 17 27 C11.2717423 27.45826062 8.5001506 26.55825861 4 23 C3.34 22.34 2.68 21.68 2 21 C1.01 21 0.02 21 -1 21 C-1.33 23.64 -1.66 26.28 -2 29 C-2.33 29 -2.66 29 -3 29 C-4.42861738 20.26956048 -3.65454448 11.77089601 -3 3 C-2.67 3 -2.34 3 -2 3 C-2 8.28 -2 13.56 -2 19 C-1.34 19 -0.68 19 0 19 C0 12.73 0 6.46 0 0 Z " fill="#CAA280" transform="translate(225,153)"/>
<path d="M0 0 C0.12375 0.5775 0.2475 1.155 0.375 1.75 C1.00910065 4.03276234 1.88771841 5.91447201 3 8 C4.53298854 11.06597708 4.01817126 14.11407846 3.9375 17.4921875 C3.99594705 19.83737555 4.33345243 21.76081676 5 24 C4.01 23.01 3.02 22.02 2 21 C2.16371094 21.53109375 2.32742187 22.0621875 2.49609375 22.609375 C3.11356377 25.53876764 3.09501925 28.25822936 3.0625 31.25 C3.05347656 32.32765625 3.04445312 33.4053125 3.03515625 34.515625 C3.02355469 35.33546875 3.01195312 36.1553125 3 37 C2.67 37 2.34 37 2 37 C1.34 32.05 0.68 27.1 0 22 C-0.66 22 -1.32 22 -2 22 C-1.67 21.01 -1.34 20.02 -1 19 C-0.34 19 0.32 19 1 19 C1.0270043 17.54176788 1.04639787 16.08339325 1.0625 14.625 C1.07410156 13.81289062 1.08570313 13.00078125 1.09765625 12.1640625 C1.14466334 9.95062858 1.14466334 9.95062858 0 8 C-2.32156597 7.59270772 -4.6568787 7.25561323 -7 7 C-6.67 6.34 -6.34 5.68 -6 5 C-5.360625 4.87625 -4.72125 4.7525 -4.0625 4.625 C-1.80148727 4.19060573 -1.80148727 4.19060573 -0.75 1.9375 C-0.5025 1.298125 -0.255 0.65875 0 0 Z " fill="#BD9879" transform="translate(228,220)"/>
<path d="M0 0 C-1.32 0.33 -2.64 0.66 -4 1 C-4 3.97 -4 6.94 -4 10 C-4.99 10.33 -5.98 10.66 -7 11 C-9.31622777 13.10540926 -9.31622777 13.10540926 -11 17 C-11 11.06 -11 5.12 -11 -1 C-6.74938644 -2.41687119 -4.28148375 -1.19320039 0 0 Z " fill="#977B64" transform="translate(237,155)"/>
<path d="M0 0 C6.93 0 13.86 0 21 0 C20.67 1.32 20.34 2.64 20 4 C19.01 3.34 18.02 2.68 17 2 C14.03157342 1.54084493 14.03157342 1.54084493 10.8125 1.375 C8.894375 1.25125 6.97625 1.1275 5 1 C5 5.29 5 9.58 5 14 C4.67 14 4.34 14 4 14 C4 9.71 4 5.42 4 1 C3.01 1 2.02 1 1 1 C1 12.88 1 24.76 1 37 C0.67 37 0.34 37 0 37 C0 24.79 0 12.58 0 0 Z " fill="#D4A986" transform="translate(337,370)"/>
<path d="M0 0 C3.0625 0.1875 3.0625 0.1875 5.0625 2.1875 C5.3125 4.6875 5.3125 4.6875 5.0625 7.1875 C3.0625 9.1875 3.0625 9.1875 0.0625 9.5 C-0.9275 9.396875 -1.9175 9.29375 -2.9375 9.1875 C-4.9375 6.1875 -4.9375 6.1875 -4.625 3.5625 C-3.63731654 0.1505026 -3.65603948 0.23336422 0 0 Z " fill="#D8AC88" transform="translate(255.9375,233.8125)"/>
<path d="M0 0 C12.92705221 -0.56477413 12.92705221 -0.56477413 18 3 C19.54586876 6.09173752 19.29359521 8.59429552 19 12 C17 14.4375 17 14.4375 15 16 C14.01 15.67 13.02 15.34 12 15 C12.66 14.34 13.32 13.68 14 13 C14.28005058 11.08819451 14.28005058 11.08819451 14.1875 9 C14.18105469 8.29875 14.17460937 7.5975 14.16796875 6.875 C14.10706133 4.90943627 14.10706133 4.90943627 13 3 C10.19019327 2.30772968 10.19019327 2.30772968 6.9375 1.875 C5.28041016 1.62363281 5.28041016 1.62363281 3.58984375 1.3671875 C2.73519531 1.24601562 1.88054687 1.12484375 1 1 C1 2.98 1 4.96 1 7 C0.67 7 0.34 7 0 7 C0 4.69 0 2.38 0 0 Z " fill="#BE997A" transform="translate(272,370)"/>
<path d="M0 0 C2.41463072 2.3367394 4.71855199 4.66413481 6.87890625 7.2421875 C15.73092065 17.70810508 26.63733289 24.31985565 39 30 C37 31 37 31 35.07421875 30.5390625 C20.82041925 25.08016056 8.17170343 14.91656349 0 2 C0 1.34 0 0.68 0 0 Z " fill="#BC9779" transform="translate(181,287)"/>
<path d="M0 0 C2.5 0.25 2.5 0.25 4.5 2.25 C4.86796448 5.12012296 4.87509409 6.65774618 3.3125 9.125 C1.5 10.25 1.5 10.25 -1.1875 9.9375 C-1.950625 9.710625 -2.71375 9.48375 -3.5 9.25 C-4.125 5.875 -4.125 5.875 -4.5 2.25 C-2.5 0.25 -2.5 0.25 0 0 Z " fill="#BD9879" transform="translate(248.5,299.75)"/>
<path d="M0 0 C3.4375 1 3.4375 1 5.375 2.6875 C6.76885063 5.7211749 6.84300092 7.68840913 6.4375 11 C5.375 13.8125 5.375 13.8125 3.4375 16 C0 17.0625 0 17.0625 -3.5625 17 C-6 15.625 -6 15.625 -7.5625 13 C-8.33843406 8.63237116 -8.29071848 5.22340705 -6 1.375 C-3.5625 0 -3.5625 0 0 0 Z M-5.4375 3.125 C-7.09827671 5.89296119 -6.95055206 7.83090818 -6.5625 11 C-5.18323227 13.34261608 -5.18323227 13.34261608 -3.5625 15 C-1.2193787 14.74438677 1.11593403 14.40729228 3.4375 14 C4.94684217 10.98131566 4.61260672 8.32702771 4.4375 5 C3.7775 4.01 3.1175 3.02 2.4375 2 C-0.6930429 1.60035622 -2.69333761 1.47850257 -5.4375 3.125 Z " fill="#BD9879" transform="translate(204.5625,213)"/>
<path d="M0 0 C12.87 0 25.74 0 39 0 C39 4.29 39 8.58 39 13 C38.34 13 37.68 13 37 13 C37 9.37 37 5.74 37 2 C36.12786865 2.00523682 35.2557373 2.01047363 34.35717773 2.01586914 C31.09382454 2.03300245 27.83051977 2.04549445 24.56713867 2.05493164 C23.15990439 2.0599327 21.75267523 2.0667357 20.34545898 2.07543945 C18.31232431 2.08769159 16.27925886 2.0932707 14.24609375 2.09765625 C13.02591553 2.10289307 11.8057373 2.10812988 10.54858398 2.11352539 C6.96487943 1.99887643 3.53687745 1.57327963 0 1 C0 0.67 0 0.34 0 0 Z " fill="#B99577" transform="translate(230,154)"/>
<path d="M0 0 C1.65 0 3.3 0 5 0 C5.05831395 4.04160556 5.09370212 8.08310205 5.125 12.125 C5.14175781 13.26710938 5.15851563 14.40921875 5.17578125 15.5859375 C5.18222656 16.69453125 5.18867188 17.803125 5.1953125 18.9453125 C5.20578613 19.96125488 5.21625977 20.97719727 5.22705078 22.02392578 C4.97841818 25.28288429 4.14878364 27.95115207 3 31 C2.03060441 28.09181323 1.90661347 26.37187366 1.97265625 23.359375 C1.98490234 22.45316406 1.99714844 21.54695313 2.00976562 20.61328125 C2.04463561 18.71997022 2.08362892 16.82673019 2.12695312 14.93359375 C2.1919987 9.52333233 1.80102942 5.11351098 0 0 Z " fill="#574A3F" transform="translate(174,370)"/>
<path d="M0 0 C-6.37729236 4.66631148 -11.98330502 6.32721204 -20 6 C-18.68 5.67 -17.36 5.34 -16 5 C-15.67 3.68 -15.34 2.36 -15 1 C-12.66836622 0.32741333 -10.3347961 -0.33847444 -8 -1 C-7.278125 -1.2475 -6.55625 -1.495 -5.8125 -1.75 C-3.35941838 -2.08835609 -2.07406596 -1.25925433 0 0 Z " fill="#655547" transform="translate(283,146)"/>
<path d="M0 0 C2.50037734 2.17424117 3.43628586 3.73045798 4 7 C3.01 6.01 2.02 5.02 1 4 C0.21625 5.051875 -0.5675 6.10375 -1.375 7.1875 C-6.06949299 12.57139406 -11.35351172 15.68571703 -18.53515625 16.3046875 C-21.70735399 16.31159109 -24.83631645 16.22314382 -28 16 C-28 15.67 -28 15.34 -28 15 C-27.154375 14.90203125 -26.30875 14.8040625 -25.4375 14.703125 C-15.31673752 13.36902449 -8.62411318 11.69167257 -2.12890625 3.5859375 C-0.92897897 1.98658252 -0.92897897 1.98658252 0 0 Z " fill="#CAA180" transform="translate(306,211)"/>
<path d="M0 0 C1.03756708 5.18783542 1.03756708 5.18783542 1 8 C-0.6875 10.5 -0.6875 10.5 -3 12 C-4.32 12 -5.64 12 -7 12 C-7 8.51394686 -6.74439973 5.4118321 -6 2 C-3.83076342 0.3905664 -2.68076871 0 0 0 Z " fill="#605144" transform="translate(225,112)"/>
<path d="M0 0 C-3 2 -3 2 -8 3 C-8.33 8.94 -8.66 14.88 -9 21 C-9.33 21 -9.66 21 -10 21 C-10 15.39 -10 9.78 -10 4 C-10.66 4 -11.32 4 -12 4 C-12 9.28 -12 14.56 -12 20 C-12.33 20 -12.66 20 -13 20 C-13.06058594 18.86820313 -13.12117188 17.73640625 -13.18359375 16.5703125 C-13.26799917 15.08852855 -13.35264717 13.6067584 -13.4375 12.125 C-13.49647461 11.00544922 -13.49647461 11.00544922 -13.55664062 9.86328125 C-13.71573624 5.80013136 -13.71573624 5.80013136 -15 2 C-13.06524329 1.46906676 -11.12706845 0.95057683 -9.1875 0.4375 C-8.10855469 0.14746094 -7.02960938 -0.14257812 -5.91796875 -0.44140625 C-3 -1 -3 -1 0 0 Z " fill="#C8A07F" transform="translate(283,151)"/>
<path d="M0 0 C4.29 0 8.58 0 13 0 C12.67 1.32 12.34 2.64 12 4 C11.484375 3.690625 10.96875 3.38125 10.4375 3.0625 C7.35837704 1.59175744 7.35837704 1.59175744 1 1 C1 12.88 1 24.76 1 37 C0.67 37 0.34 37 0 37 C0 24.79 0 12.58 0 0 Z " fill="#645346" transform="translate(378,370)"/>
<path d="M0 0 C3.24299151 2.38957269 5.50902342 4.2047869 7 8 C6.34 8.66 5.68 9.32 5 10 C4.67 9.67 4.34 9.34 4 9 C3.525625 9.886875 3.05125 10.77375 2.5625 11.6875 C-0.19777673 15.84275529 -4.33987881 18.35090782 -9 20 C-11.28125 19.62890625 -11.28125 19.62890625 -13 19 C-12.33613281 18.70867187 -11.67226563 18.41734375 -10.98828125 18.1171875 C-5.27089599 15.46298529 -1.61767738 13.18533757 2 8 C1.34 8 0.68 8 0 8 C0.185625 7.236875 0.37125 6.47375 0.5625 5.6875 C1.22819173 2.91032625 1.22819173 2.91032625 0 0 Z " fill="#B69375" transform="translate(300,203)"/>
<path d="M0 0 C0.33 0 0.66 0 1 0 C0.84193722 7.1128252 -2.64411231 12.50283169 -7 18 C-7.99 18.33 -8.98 18.66 -10 19 C-9.471358 14.06286137 -7.18242512 10.7194424 -4.5 6.6875 C-4.08363281 6.04232422 -3.66726563 5.39714844 -3.23828125 4.73242188 C-2.19211239 3.13269764 -1.09996632 1.56322136 0 0 Z " fill="#5F5044" transform="translate(273,128)"/>
<path d="M0 0 C4.29 0 8.58 0 13 0 C13 12.21 13 24.42 13 37 C12.67 37 12.34 37 12 37 C12 25.12 12 13.24 12 1 C5.82239004 1.98234932 5.82239004 1.98234932 0 4 C0 2.68 0 1.36 0 0 Z " fill="#B89476" transform="translate(362,370)"/>
<path d="M0 0 C0.66 0 1.32 0 2 0 C2.33 1.32 2.66 2.64 3 4 C2.34 4 1.68 4 1 4 C1 10.27 1 16.54 1 23 C0.34 23 -0.32 23 -1 23 C-1.33 16.73 -1.66 10.46 -2 4 C-2.66 3.67 -3.32 3.34 -4 3 C-2.68 2.67 -1.36 2.34 0 2 C0 1.34 0 0.68 0 0 Z " fill="#715E4E" transform="translate(224,149)"/>
<path d="M0 0 C1.46291304 0.5929915 2.92021513 1.19983823 4.375 1.8125 C5.18710938 2.14894531 5.99921875 2.48539062 6.8359375 2.83203125 C9 4 9 4 11 7 C9.68 6.67 8.36 6.34 7 6 C7.99 7.485 7.99 7.485 9 9 C6.50638429 7.79618552 4.31856917 6.54571278 2 5 C2.7425 5.7425 3.485 6.485 4.25 7.25 C6.5 9.5 8.75 11.75 11 14 C6.90827076 14 5.54433363 12.30467222 2.58984375 9.65625 C0.59256437 7.57554617 -0.38981732 5.8220949 -1 3 C-0.67 2.01 -0.34 1.02 0 0 Z " fill="#BB9778" transform="translate(189,311)"/>
<path d="M0 0 C1.52519276 0.08937803 3.04681929 0.24537146 4.5625 0.4375 C5.38878906 0.53933594 6.21507812 0.64117187 7.06640625 0.74609375 C7.70449219 0.82988281 8.34257812 0.91367187 9 1 C7.67306301 2.00847211 6.33743723 3.00549539 5 4 C4.46761719 4.433125 3.93523437 4.86625 3.38671875 5.3125 C0.4058418 7.63903811 -1.44493037 8.91460467 -5.25 9.5 C-8.32261721 8.94134232 -8.97636625 8.23790086 -11 6 C-10.31292969 5.86722656 -9.62585938 5.73445313 -8.91796875 5.59765625 C-7.56638672 5.33275391 -7.56638672 5.33275391 -6.1875 5.0625 C-4.84751953 4.80146484 -4.84751953 4.80146484 -3.48046875 4.53515625 C-0.88602829 4.02258847 -0.88602829 4.02258847 2 3 C1.01 2.34 0.02 1.68 -1 1 C-0.67 0.67 -0.34 0.34 0 0 Z " fill="#BC9779" transform="translate(124,405)"/>
<path d="M0 0 C0.66 0.66 1.32 1.32 2 2 C1.27296875 2.268125 0.5459375 2.53625 -0.203125 2.8125 C-9.78337985 6.54634292 -17.84073117 11.80357414 -26 18 C-26 17.01 -26 16.02 -26 15 C-24.13355083 13.3962589 -22.34700104 12.0475808 -20.3125 10.6875 C-19.44685425 10.09690796 -19.44685425 10.09690796 -18.5637207 9.49438477 C-12.69426981 5.60231276 -6.49811534 2.7119794 0 0 Z " fill="#BA9677" transform="translate(220,173)"/>
<path d="M0 0 C3.47338754 1.50328846 5.8226323 3.53408721 8.5625 6.125 C13.05606991 10.25801601 17.75904087 13.86182561 22.75 17.37109375 C25 19 25 19 27 21 C16.4669771 19.48222066 7.36991973 8.22183788 0 1 C0 0.67 0 0.34 0 0 Z " fill="#BF9A7A" transform="translate(233,203)"/>
<path d="M0 0 C5.41176471 0.35294118 5.41176471 0.35294118 7.875 3.0625 C8.431875 4.0215625 8.431875 4.0215625 9 5 C8.34 6.32 7.68 7.64 7 9 C6.6596875 7.7934375 6.6596875 7.7934375 6.3125 6.5625 C5.879375 5.716875 5.44625 4.87125 5 4 C2.45224694 3.10613836 2.45224694 3.10613836 0 3 C-1.69433918 6.0469629 -2.49467112 8.82821466 -3.125 12.25 C-3.29257812 13.14203125 -3.46015625 14.0340625 -3.6328125 14.953125 C-3.75398438 15.62859375 -3.87515625 16.3040625 -4 17 C-4.33 17 -4.66 17 -5 17 C-5.47657187 10.3015176 -5.41492287 6.21763612 -1 1 C-0.67 0.67 -0.34 0.34 0 0 Z " fill="#BB9678" transform="translate(262,247)"/>
<path d="M0 0 C2 1 2 1 3.25 3 C5.60544142 5.69193305 7.52621156 5.69121881 11 6 C10.67 6.66 10.34 7.32 10 8 C13.63 9.32 17.26 10.64 21 12 C21 12.66 21 13.32 21 14 C16.52824169 13.45916787 13.28772153 12.34037191 9.375 10.125 C8.45460938 9.61195313 7.53421875 9.09890625 6.5859375 8.5703125 C1.74605309 5.63128904 1.74605309 5.63128904 0 4 C0 2.68 0 1.36 0 0 Z " fill="#BC9779" transform="translate(257,213)"/>
<path d="M0 0 C3.51389512 1.45830526 5.30747996 3.31613882 7.6875 6.25 C12.87097517 12.25548149 18.58646522 16.20856396 26 19 C23.43454885 19.9745192 22.3295043 20.13089117 19.73828125 19.1015625 C11.61646119 14.15784594 4.6967028 8.37750437 0 0 Z " fill="#A9896E" transform="translate(233,208)"/>
<path d="M0 0 C1.32 0 2.64 0 4 0 C4 0.66 4 1.32 4 2 C2.68 2 1.36 2 0 2 C1.65 2.33 3.3 2.66 5 3 C5 4.65 5 6.3 5 8 C2.625 8.625 2.625 8.625 0 9 C-2 7 -2 7 -2.25 4.5 C-2 2 -2 2 0 0 Z " fill="#403832" transform="translate(311,239)"/>
<path d="M0 0 C1.67542976 0.28604898 3.34385343 0.61781233 5 1 C5.625 3.375 5.625 3.375 6 6 C5.34 6.66 4.68 7.32 4 8 C0.46428571 7.46428571 0.46428571 7.46428571 -1 6 C-1.125 3.5 -1.125 3.5 -1 1 C-0.67 0.67 -0.34 0.34 0 0 Z " fill="#8E745E" transform="translate(273,212)"/>
<path d="M0 0 C3 0 3 0 5.1875 1.9375 C7 4 7 4 7 5 C9.97 5.495 9.97 5.495 13 6 C13 6.33 13 6.66 13 7 C7.06 7 1.12 7 -5 7 C-2.38058783 5.25372522 -0.96175123 4.61277612 2 4 C1.34 2.68 0.68 1.36 0 0 Z " fill="#9F8168" transform="translate(245,143)"/>
<path d="M0 0 C-1 3 -1 3 -2.84765625 3.94921875 C-3.94400391 4.31466797 -3.94400391 4.31466797 -5.0625 4.6875 C-6.16271484 5.06455078 -6.16271484 5.06455078 -7.28515625 5.44921875 C-7.85105469 5.63097656 -8.41695313 5.81273437 -9 6 C-9 5.34 -9 4.68 -9 4 C-9.9075 4.350625 -10.815 4.70125 -11.75 5.0625 C-15.00591313 6.00170571 -15.92749994 5.95514676 -19 5 C-5.93023256 0 -5.93023256 0 0 0 Z " fill="#5F5044" transform="translate(294,326)"/>
<path d="M0 0 C4.70588235 0.70588235 4.70588235 0.70588235 6 2 C6.25 4.4375 6.25 4.4375 6 7 C5.01 7.66 4.02 8.32 3 9 C0.8614515 6.8614515 0.57344937 5.86724686 0 3 C-0.66 3.99 -1.32 4.98 -2 6 C-1.125 1.125 -1.125 1.125 0 0 Z " fill="#242322" transform="translate(221,217)"/>
<path d="M0 0 C2.31 0 4.62 0 7 0 C7.33 2.31 7.66 4.62 8 7 C7.01 7.66 6.02 8.32 5 9 C3.35 6.03 1.7 3.06 0 0 Z " fill="#302C29" transform="translate(225,125)"/>
<path d="M0 0 C0.33 0 0.66 0 1 0 C1.73455125 8.52079453 -0.88991341 15.19146117 -4 23 C-4.66 23 -5.32 23 -6 23 C-5.81824219 22.34515625 -5.63648438 21.6903125 -5.44921875 21.015625 C-3.52672958 14.03551046 -1.72994005 7.0301819 0 0 Z " fill="#BB9778" transform="translate(331,260)"/>
<path d="M0 0 C1.32 0 2.64 0 4 0 C4.33 2.31 4.66 4.62 5 7 C3.02 7 1.04 7 -1 7 C-1.625 4.625 -1.625 4.625 -2 2 C-1.34 1.34 -0.68 0.68 0 0 Z " fill="#292725" transform="translate(309,227)"/>
<path d="M0 0 C0.66 0.33 1.32 0.66 2 1 C2.375 3.1875 2.375 3.1875 2 6 C0.51839206 7.25614586 -0.97025973 8.50804612 -2.53125 9.6640625 C-4.78989899 11.71847195 -5.32479656 14.0966252 -6 17 C-6.33 17 -6.66 17 -7 17 C-7.36259585 13.10209457 -7.34827888 11.47888346 -5 8.25 C-4.01 7.13625 -4.01 7.13625 -3 6 C-3 5.34 -3 4.68 -3 4 C-2.34 4 -1.68 4 -1 4 C-0.67 2.68 -0.34 1.36 0 0 Z " fill="#A9896E" transform="translate(221,219)"/>
<path d="M0 0 C0 1.65 0 3.3 0 5 C-0.33 3.68 -0.66 2.36 -1 1 C-1.99 1.495 -1.99 1.495 -3 2 C-3 3.65 -3 5.3 -3 7 C-4.65 7 -6.3 7 -8 7 C-8.33 5.68 -8.66 4.36 -9 3 C-5.92807025 0.26939578 -4.09590633 -0.34132553 0 0 Z " fill="#927761" transform="translate(316,249)"/>
<path d="M0 0 C0.66 0 1.32 0 2 0 C3.44526736 1.73548169 4.8087222 3.53975963 6.125 5.375 C6.84945312 6.37273437 7.57390625 7.37046875 8.3203125 8.3984375 C10 11 10 11 10 13 C6.64170896 11.56285993 4.60029302 9.79022601 2.1875 7.0625 C1.56230469 6.37285156 0.93710938 5.68320313 0.29296875 4.97265625 C-0.13371094 4.32167969 -0.56039062 3.67070312 -1 3 C-0.67 2.01 -0.34 1.02 0 0 Z " fill="#2A2725" transform="translate(244,135)"/>
<path d="M0 0 C0 4.10911586 -2.17355183 5.92945392 -4.75 8.875 C-5.64105156 9.91369673 -6.53168131 10.95275546 -7.421875 11.9921875 C-8.27265625 12.98476562 -9.1234375 13.97734375 -10 15 C-11.34100211 16.66050261 -12.67724648 18.32492428 -14 20 C-14.66 19.67 -15.32 19.34 -16 19 C-10.78091398 12.56194377 -5.51426743 6.18803644 0 0 Z " fill="#C8A07F" transform="translate(236,94)"/>
<path d="M0 0 C-5.16867335 3.62158745 -10.09627893 6.73900044 -16 9 C-16 8.01 -16 7.02 -16 6 C-13.9021477 4.79994469 -11.7979751 3.61497017 -9.6875 2.4375 C-8.79514648 1.92413086 -8.79514648 1.92413086 -7.88476562 1.40039062 C-3.33984375 -1.11328125 -3.33984375 -1.11328125 0 0 Z " fill="#2C2926" transform="translate(308,311)"/>
<path d="M0 0 C0.33 0 0.66 0 1 0 C1.33 1.65 1.66 3.3 2 5 C2.66 3.35 3.32 1.7 4 0 C4.33 0 4.66 0 5 0 C4.03644647 13.6332574 4.03644647 13.6332574 3 20 C2.67 20 2.34 20 2 20 C1.66131223 17.79248152 1.32928311 15.58394089 1 13.375 C0.814375 12.14523438 0.62875 10.91546875 0.4375 9.6484375 C0.04597484 6.3833973 -0.08080924 3.28287549 0 0 Z " fill="#9A7D65" transform="translate(253,106)"/>
<path d="M0 0 C5.61 0 11.22 0 17 0 C16.67 1.32 16.34 2.64 16 4 C15.01 3.34 14.02 2.68 13 2 C10.03157342 1.54084493 10.03157342 1.54084493 6.8125 1.375 C4.894375 1.25125 2.97625 1.1275 1 1 C1 5.29 1 9.58 1 14 C0.67 14 0.34 14 0 14 C0 9.38 0 4.76 0 0 Z " fill="#89705C" transform="translate(341,370)"/>
<path d="M0 0 C2.125 0.375 2.125 0.375 4 1 C4.625 2.875 4.625 2.875 5 5 C4.34 5.66 3.68 6.32 3 7 C0.875 6.625 0.875 6.625 -1 6 C-1.625 4.125 -1.625 4.125 -2 2 C-1.34 1.34 -0.68 0.68 0 0 Z " fill="#3E3731" transform="translate(255,235)"/>
<path d="M0 0 C2.2477975 2.05233685 3.0022242 3.00667261 4 6 C3.34 6 2.68 6 2 6 C1.67 6.99 1.34 7.98 1 9 C0.33333333 11 -0.33333333 13 -1 15 C-1.33 15 -1.66 15 -2 15 C-2.19392201 9.47322267 -1.7479503 5.24385089 0 0 Z " fill="#36312C" transform="translate(257,99)"/>
<path d="M0 0 C4.53134634 0.19744428 8.07208155 0.46976089 12.0625 2.75 C14 5 14 5 14.3125 7.75 C14.1578125 8.86375 14.1578125 8.86375 14 10 C13.278125 9.236875 12.55625 8.47375 11.8125 7.6875 C8.21238161 4.24738687 4.41647246 2.19423051 0 0 Z " fill="#C29C7C" transform="translate(249,370)"/>
<path d="M0 0 C4.05281712 1.22527029 7.44360764 2.69880494 11 5 C10.01 5.495 10.01 5.495 9 6 C8.34 5.67 7.68 5.34 7 5 C7 5.66 7 6.32 7 7 C7.99 7.33 8.98 7.66 10 8 C9.01 8.495 9.01 8.495 8 9 C5.5249829 7.88568235 3.32116581 6.41849022 1 5 C1.99 4.67 2.98 4.34 4 4 C2.68 2.68 1.36 1.36 0 0 Z " fill="#8F755F" transform="translate(200,318)"/>
<path d="M0 0 C2.125 0.375 2.125 0.375 4 1 C4.5625 2.9375 4.5625 2.9375 5 5 C4 6 4 6 1.4375 6.0625 C0.2309375 6.0315625 0.2309375 6.0315625 -1 6 C-1.625 4.125 -1.625 4.125 -2 2 C-1.34 1.34 -0.68 0.68 0 0 Z " fill="#997D65" transform="translate(301,237)"/>
<path d="M0 0 C1.83664763 1.90525803 3.38483734 3.89131541 5 6 C4.01 6 3.02 6 2 6 C1.38125 5.319375 0.7625 4.63875 0.125 3.9375 C-0.57625 3.298125 -1.2775 2.65875 -2 2 C-4.58333333 2.08333333 -4.58333333 2.08333333 -7 3 C-7.99 3.33 -8.98 3.66 -10 4 C-9 1 -9 1 -6.6875 -0.25 C-2.71641791 -1.35820896 -2.71641791 -1.35820896 0 0 Z " fill="#A6866C" transform="translate(296,197)"/>
<path d="M0 0 C0.33 0 0.66 0 1 0 C1.375 2.6875 1.375 2.6875 1 6 C-2.89219945 10.17699453 -6.29493633 11.94350673 -12 13 C-14.2109375 12.5390625 -14.2109375 12.5390625 -16 12 C-14.98679688 11.74476563 -14.98679688 11.74476563 -13.953125 11.484375 C-7.0576775 9.74028762 -7.0576775 9.74028762 -2 5 C-0.74563813 2.36777038 -0.74563813 2.36777038 0 0 Z " fill="#866E5A" transform="translate(264,395)"/>
<path d="M0 0 C2.0625 0.4375 2.0625 0.4375 4 1 C4 2.65 4 4.3 4 6 C2.0625 6.5625 2.0625 6.5625 0 7 C-1 6 -1 6 -1.125 3.5 C-1 1 -1 1 0 0 Z " fill="#262523" transform="translate(247,301)"/>
<path d="M0 0 C1.32 0 2.64 0 4 0 C3.40138258 2.35171131 2.73075648 4.6859378 2 7 C1.01 7.495 1.01 7.495 0 8 C0.33 6.68 0.66 5.36 1 4 C-0.65 5.32 -2.3 6.64 -4 8 C-2.87548273 5.0280615 -1.77706209 2.66559313 0 0 Z " fill="#826A57" transform="translate(248,123)"/>
<path d="M0 0 C2 0 2 0 3.625 1.5 C4.07875 1.995 4.5325 2.49 5 3 C3.54744301 6.82946843 1.57104439 8.12050295 -2 10 C-1.34 6.7 -0.68 3.4 0 0 Z " fill="#8E745E" transform="translate(219,114)"/>
<path d="M0 0 C2.0625 0.4375 2.0625 0.4375 4 1 C4 2.32 4 3.64 4 5 C2.68 5.33 1.36 5.66 0 6 C-0.38218767 4.34385343 -0.71395102 2.67542976 -1 1 C-0.67 0.67 -0.34 0.34 0 0 Z " fill="#A18269" transform="translate(192,264)"/>
<path d="M0 0 C0.33 0.99 0.66 1.98 1 3 C-0.328125 5.0078125 -0.328125 5.0078125 -2.25 7.125 C-2.87390625 7.82882813 -3.4978125 8.53265625 -4.140625 9.2578125 C-6 11 -6 11 -9 12 C-9 11.01 -9 10.02 -9 9 C-8.2575 8.566875 -7.515 8.13375 -6.75 7.6875 C-3.4114413 5.63883898 -1.99459541 3.32432569 0 0 Z " fill="#39332E" transform="translate(304,211)"/>
<path d="M0 0 C6.27 0 12.54 0 19 0 C19 0.33 19 0.66 19 1 C18.04738281 1.04898437 17.09476563 1.09796875 16.11328125 1.1484375 C14.85902344 1.22320312 13.60476562 1.29796875 12.3125 1.375 C10.45044922 1.47941406 10.45044922 1.47941406 8.55078125 1.5859375 C5.30682228 1.96422094 2.93432815 2.61979976 0 4 C0 2.68 0 1.36 0 0 Z " fill="#A7876D" transform="translate(189,370)"/>
<path d="M0 0 C0.33 0 0.66 0 1 0 C1 13 1 13 -1 16 C-1.99 15.67 -2.98 15.34 -4 15 C-3.525625 13.824375 -3.05125 12.64875 -2.5625 11.4375 C-1.11193153 7.59896741 -0.42422897 4.07259809 0 0 Z " fill="#D0A684" transform="translate(216,276)"/>
<path d="M0 0 C0.12375 0.5775 0.2475 1.155 0.375 1.75 C0.91843033 4.03560051 0.91843033 4.03560051 2.125 6.0625 C3 8 3 8 2 11 C1.34 10.01 0.68 9.02 0 8 C-3.56769552 7.26393501 -3.56769552 7.26393501 -7 7 C-6.67 6.34 -6.34 5.68 -6 5 C-5.360625 4.87625 -4.72125 4.7525 -4.0625 4.625 C-1.80148727 4.19060573 -1.80148727 4.19060573 -0.75 1.9375 C-0.5025 1.298125 -0.255 0.65875 0 0 Z " fill="#CBA381" transform="translate(228,220)"/>
<path d="M0 0 C0 0.99 0 1.98 0 3 C-6.27 3 -12.54 3 -19 3 C-18.67 2.34 -18.34 1.68 -18 1 C-16.51886719 1.01740234 -16.51886719 1.01740234 -15.0078125 1.03515625 C-13.72648438 1.04417969 -12.44515625 1.05320312 -11.125 1.0625 C-9.21074219 1.07990234 -9.21074219 1.07990234 -7.2578125 1.09765625 C-4.40918752 1.01226581 -2.70028927 0 0 0 Z " fill="#A2836A" transform="translate(213,404)"/>
<path d="M0 0 C1.32 0 2.64 0 4 0 C4 4.62 4 9.24 4 14 C3.67 14 3.34 14 3 14 C2.86722656 13.24074219 2.73445312 12.48148437 2.59765625 11.69921875 C2.42105469 10.70535156 2.24445313 9.71148437 2.0625 8.6875 C1.88847656 7.70136719 1.71445313 6.71523438 1.53515625 5.69921875 C1.04253153 2.91810787 1.04253153 2.91810787 0 0 Z " fill="#CFA583" transform="translate(174,370)"/>
<path d="M0 0 C6.75 2.625 6.75 2.625 9 6 C7.68 5.67 6.36 5.34 5 5 C5.99 6.485 5.99 6.485 7 8 C4.13792848 6.71700242 1.9754912 5.469364 0 3 C0 2.01 0 1.02 0 0 Z " fill="#907560" transform="translate(191,312)"/>
<path d="M0 0 C1.98 0.495 1.98 0.495 4 1 C3.67 2.65 3.34 4.3 3 6 C1.68 5.67 0.36 5.34 -1 5 C-0.67 3.35 -0.34 1.7 0 0 Z " fill="#A5866C" transform="translate(253,246)"/>
<path d="M0 0 C0.33 0 0.66 0 1 0 C2.33157895 5.44736842 2.33157895 5.44736842 0.875 7.875 C-1.53722513 9.32233508 -3.2351335 9.22417836 -6 9 C-6 8.34 -6 7.68 -6 7 C-4.35 6.67 -2.7 6.34 -1 6 C-0.67 4.02 -0.34 2.04 0 0 Z " fill="#6C5A4B" transform="translate(207,219)"/>
<path d="M0 0 C3.77727089 1.81309003 7.37269822 3.9073259 11 6 C10.34 6.66 9.68 7.32 9 8 C4.12314139 6.64531705 2.51407619 4.28324091 0 0 Z " fill="#4C4138" transform="translate(194,315)"/>
<path d="M0 0 C0.804375 0.4640625 0.804375 0.4640625 1.625 0.9375 C4.3984957 2.17827439 7.00042837 2.5909675 10 3 C10 4.32 10 5.64 10 7 C6.4124787 5.66749209 3.1635377 4.169283 0 2 C0 1.34 0 0.68 0 0 Z " fill="#AD8B70" transform="translate(342,384)"/>
<path d="M0 0 C1.32 0 2.64 0 4 0 C4 1.65 4 3.3 4 5 C2.35 4.67 0.7 4.34 -1 4 C-0.67 2.68 -0.34 1.36 0 0 Z " fill="#AD8B70" transform="translate(281,208)"/>
<path d="M0 0 C1.62580966 0.11398665 3.25067157 0.24155659 4.875 0.375 C5.77992188 0.44460937 6.68484375 0.51421875 7.6171875 0.5859375 C10 1 10 1 12 3 C9.69 3.66 7.38 4.32 5 5 C5 4.34 5 3.68 5 3 C2.525 2.01 2.525 2.01 0 1 C0 0.67 0 0.34 0 0 Z " fill="#AF8D71" transform="translate(220,144)"/>
<path d="M0 0 C0.66 0.33 1.32 0.66 2 1 C1.75881648 4.25597758 0.47775788 5.7276304 -1.875 7.8125 C-2.90625 8.534375 -3.9375 9.25625 -5 10 C-5.99 9.67 -6.98 9.34 -8 9 C-6.576875 8.1646875 -6.576875 8.1646875 -5.125 7.3125 C-1.91121213 4.93429698 -1.04434882 3.75965574 0 0 Z " fill="#AA896E" transform="translate(141,396)"/>
<path d="M0 0 C7.50769231 0.49230769 7.50769231 0.49230769 10 3.0625 C10.33 3.701875 10.66 4.34125 11 5 C6.87248551 4.39301257 3.6678852 2.96189209 0 1 C0 0.67 0 0.34 0 0 Z " fill="#725F4F" transform="translate(243,93)"/>
<path d="M0 0 C0.33 0 0.66 0 1 0 C1.05422947 1.4370809 1.09289723 2.87475462 1.125 4.3125 C1.14820313 5.11300781 1.17140625 5.91351563 1.1953125 6.73828125 C1 9 1 9 -1 12 C-2.45606519 7.47907032 -1.27032841 4.48351204 0 0 Z " fill="#B18F72" transform="translate(331,260)"/>
<path d="M0 0 C0.33 0.66 0.66 1.32 1 2 C-6.28571429 5.57142857 -6.28571429 5.57142857 -11 4 C-7.49461443 2.03698408 -3.86648272 1.04097612 0 0 Z " fill="#AA896E" transform="translate(280,142)"/>
<path d="M0 0 C0 0.66 0 1.32 0 2 C-1.3921875 2.680625 -1.3921875 2.680625 -2.8125 3.375 C-6.03921389 4.9421633 -6.03921389 4.9421633 -9 7 C-9 6.01 -9 5.02 -9 4 C-2.25 0 -2.25 0 0 0 Z " fill="#B89476" transform="translate(221,136)"/>
<path d="M0 0 C0.66 0 1.32 0 2 0 C3.42944945 2.35438733 4.08661261 3.48032433 3.625 6.25 C3.41875 6.8275 3.2125 7.405 3 8 C0.9375 5.6875 0.9375 5.6875 -1 3 C-0.67 2.01 -0.34 1.02 0 0 Z " fill="#56493F" transform="translate(244,135)"/>
<path d="M0 0 C0.66 0 1.32 0 2 0 C1.835 0.928125 1.67 1.85625 1.5 2.8125 C0.92251612 5.95621353 0.92251612 5.95621353 1 9 C-0.5625 7.8125 -0.5625 7.8125 -2 6 C-1.57894737 1.57894737 -1.57894737 1.57894737 0 0 Z " fill="#B28F73" transform="translate(253,234)"/>
<path d="M0 0 C0.99 0.33 1.98 0.66 3 1 C3 2.32 3 3.64 3 5 C1.68 5 0.36 5 -1 5 C-0.67 3.35 -0.34 1.7 0 0 Z " fill="#AF8D71" transform="translate(280,258)"/>
<path d="M0 0 C2.59482129 2.59482129 2.69990302 4.39883625 3 8 C2.34 8.66 1.68 9.32 1 10 C0.63883954 8.5225254 0.28624952 7.04295325 -0.0625 5.5625 C-0.25972656 4.73878906 -0.45695313 3.91507813 -0.66015625 3.06640625 C-0.82837891 2.04353516 -0.82837891 2.04353516 -1 1 C-0.67 0.67 -0.34 0.34 0 0 Z " fill="#A8886D" transform="translate(233,243)"/>
<path d="M0 0 C0.66 0.33 1.32 0.66 2 1 C1.01 2.98 0.02 4.96 -1 7 C-1.99 7 -2.98 7 -4 7 C-2.92598892 4.08482708 -2.22189824 2.22189824 0 0 Z " fill="#C49E7D" transform="translate(238,374)"/>
<path d="M0 0 C2.64 0 5.28 0 8 0 C7.67 1.32 7.34 2.64 7 4 C4.69 3.01 2.38 2.02 0 1 C0 0.67 0 0.34 0 0 Z " fill="#C49D7D" transform="translate(383,370)"/>
<path d="M0 0 C1.17539996 0.92652701 2.34010577 1.86663387 3.5 2.8125 C4.1496875 3.33457031 4.799375 3.85664063 5.46875 4.39453125 C7 6 7 6 7 9 C3.99234114 6.15063897 1.72154788 3.76488042 0 0 Z " fill="#B89476" transform="translate(223,135)"/>
</svg>
