<?xml version="1.0" encoding="UTF-8"?>
<svg version="1.1" xmlns="http://www.w3.org/2000/svg" width="500" height="500">
<path d="M0 0 C165 0 330 0 500 0 C500 165 500 330 500 500 C335 500 170 500 0 500 C0 335 0 170 0 0 Z " fill="transparent" transform="translate(0,0)"/>
<path d="M0 0 C1.051875 0.53625 2.10375 1.0725 3.1875 1.625 C5.86768805 3.33892775 5.86768805 3.33892775 8.3125 2.25 C9.94190849 1.10719528 9.94190849 1.10719528 11 0 C26.34764911 -1.33323012 41.3030698 3.9698134 53.21484375 13.49609375 C66.91315362 25.81112408 74.32526921 42.23819768 76.37890625 60.33984375 C76.91104572 74.22696738 72.76584925 90.49536899 63.24462891 100.92236328 C60.52198838 103.70558172 57.73603174 106.41659914 54.92602539 109.11132812 C47.33512422 116.43888416 38.37961672 126.14733814 37.90234375 137.27734375 C37.92537873 138.81556883 37.96890752 140.35365457 38.03515625 141.890625 C37.98664171 144.80149722 36.91393719 147.25818842 36 150 C36.66 150.99 37.32 151.98 38 153 C37.81015864 154.99333432 37.61639566 156.98942621 37.2890625 158.96484375 C36.81587074 162.29636953 37.02991816 165.14959078 37.6875 168.4375 C38.04623968 172.5271323 37.52500524 173.84374345 35 177 C31.5647952 179.29013653 30.014669 179.17842973 26 179 C25.95875 179.7425 25.9175 180.485 25.875 181.25 C24.63821998 185.13702293 22.47956741 186.05144225 19 188 C12.94311873 190.01896042 5.3582315 190.23102328 -0.6640625 188.0234375 C-5.65756519 185.06365227 -5.65756519 185.06365227 -6.69921875 181.828125 C-6.79847656 181.22484375 -6.89773437 180.6215625 -7 180 C-7.92232422 179.87044922 -7.92232422 179.87044922 -8.86328125 179.73828125 C-15.4573913 178.59193676 -15.4573913 178.59193676 -18.0625 175.75 C-19.14172346 172.58427785 -19.35368315 170.32462158 -19 167 C-18.62875 166.29875 -18.2575 165.5975 -17.875 164.875 C-17.58625 164.25625 -17.2975 163.6375 -17 163 C-17.63040043 161.64914193 -18.30251417 160.31747324 -19 159 C-19.28643593 155.63437785 -19.21152616 153.49356104 -17.875 150.375 C-16.70388482 148.05198161 -16.70388482 148.05198161 -17.875 146.0625 C-18.24625 145.381875 -18.6175 144.70125 -19 144 C-19.125 141 -19.125 141 -19 138 C-19 133.6149161 -19.42385039 133.19442551 -22 130 C-23.1577506 126.52674819 -23.06866652 123.63932552 -23 120 C-23.7425 119.95875 -24.485 119.9175 -25.25 119.875 C-28 119 -28 119 -29.875 116.125 C-32.4848613 112.28696868 -34.76804949 111.6927802 -39 110 C-40.972262 107.96199593 -41.8978631 106.81709523 -42.25 104 C-43.35642959 101.04952109 -45.62045426 100.40355827 -48.28125 98.98046875 C-50.70849354 97.59583664 -51.76877233 96.53085687 -53 94 C-53.34738047 91.735749 -53.56217148 89.50581373 -53.69140625 87.21875 C-54.20869865 83.49948312 -55.98181279 81.02700525 -58.0625 77.9375 C-60.99917868 73.4851162 -61.43273068 70.27931435 -61 65 C-60.12378158 62.86521329 -59.11221108 60.89998437 -57.97265625 58.89453125 C-56.19398034 55.43004203 -55.99740448 53.05364078 -56.1875 49.125 C-56.24465635 44.74845636 -54.8729519 42.35177722 -52 39 C-49.75 37.625 -49.75 37.625 -48 37 C-48.1546875 35.7625 -48.1546875 35.7625 -48.3125 34.5 C-47.78354502 28.57570426 -44.64660661 24.4934339 -40.3125 20.5625 C-36.32774657 17.87009903 -33.81101834 17.91090707 -29 18 C-28.979375 17.29875 -28.95875 16.5975 -28.9375 15.875 C-27.53905386 11.58643184 -24.72841722 9.4190326 -21 7 C-18.68234271 6.28072705 -16.34904126 5.6090107 -14 5 C-11.2299003 3.03490091 -11.2299003 3.03490091 -9 1 C-5.92805092 -0.53597454 -3.39755707 -0.2265038 0 0 Z " fill="#0E1A48" transform="translate(242,123)"/>
<path d="M0 0 C1.32 0.66 2.64 1.32 4 2 C4 14.54 4 27.08 4 40 C2.68 39.67 1.36 39.34 0 39 C-1.20272819 36.59454362 -1.10071472 35.05003047 -1.0625 32.375 C-1.05347656 31.55773437 -1.04445312 30.74046875 -1.03515625 29.8984375 C-1.02355469 29.27195313 -1.01195312 28.64546875 -1 28 C-1.99 28.33 -2.98 28.66 -4 29 C-4.27614086 34.43077022 -4.32445447 37.47874192 -1 42 C-0.67 42.66 -0.34 43.32 0 44 C-0.495 44.99 -0.495 44.99 -1 46 C-1.04022391 48.3329866 -1.04320247 50.66706666 -1 53 C-0.01 53.33 0.98 53.66 2 54 C2 51.36 2 48.72 2 46 C2.66 45.67 3.32 45.34 4 45 C4 49.95 4 54.9 4 60 C1.463125 60.12375 1.463125 60.12375 -1.125 60.25 C-6.16525106 60.7275654 -9.11965045 61.57085388 -13 65 C-13.98735924 66.24353894 -14.96617899 67.49389377 -15.9375 68.75 C-18.30150533 71.64002745 -18.64649382 71.94418323 -22.5625 72.5625 C-25.67710952 72.05283662 -28.1694482 71.37238875 -31 70 C-31.47622699 61.74539877 -31.47622699 61.74539877 -29.5625 58.75 C-29.046875 58.1725 -28.53125 57.595 -28 57 C-27.28566879 54.35065178 -27.28566879 54.35065178 -27 52 C-28.485 52.495 -28.485 52.495 -30 53 C-31.21869929 55.50447516 -31.21869929 55.50447516 -32 58 C-32.70125 57.71125 -33.4025 57.4225 -34.125 57.125 C-37.05452503 55.97866412 -40.00921653 54.97374346 -43 54 C-41.73205551 57.80383347 -40.35546712 58.00269814 -37 60 C-34.74597603 62.25402397 -34 63.22894085 -34 66.4375 C-35.31701397 69.8123483 -37.36222702 71.55063938 -40 74 C-41.02813611 75.31175986 -42.04084432 76.6369893 -43 78 C-41.9275 77.54625 -40.855 77.0925 -39.75 76.625 C-39.10804688 76.35558594 -38.46609375 76.08617187 -37.8046875 75.80859375 C-35.90052919 75.00298918 -35.90052919 75.00298918 -33.875 73.6875 C-31.12435751 72.67893109 -29.67548536 73.90548326 -27 75 C-22.35213754 75.44265357 -20.05086708 75.52543354 -15.875 73.4375 C-13.49125528 71.41649905 -12.02531266 69.75956015 -10.1875 67.3125 C-7.75504827 64.29935687 -6.09838513 63.46180622 -2.25 63 C0.36672421 62.85759324 1.64274527 62.82137264 4 64 C4 66.97 4 69.94 4 73 C1.8653125 72.938125 1.8653125 72.938125 -0.3125 72.875 C-3.98060033 72.76867825 -4.79619983 72.86413322 -8 75 C-8.495 76.485 -8.495 76.485 -9 78 C-7.906875 77.505 -6.81375 77.01 -5.6875 76.5 C-2 75 -2 75 1 75 C2.36623674 77.73247348 2.128426 79.98198902 2 83 C1 84 1 84 -2.0625 84.0625 C-3.031875 84.041875 -4.00125 84.02125 -5 84 C-5 84.99 -5 85.98 -5 87 C-2.03 87 0.94 87 4 87 C4 89.97 4 92.94 4 96 C0.62574368 96.38562929 -0.66116909 96.25195119 -3.4375 94.1875 C-4.283125 93.465625 -5.12875 92.74375 -6 92 C-7.051875 91.525625 -8.10375 91.05125 -9.1875 90.5625 C-12 89 -12 89 -13.375 86.3125 C-13.58125 85.549375 -13.7875 84.78625 -14 84 C-14.99 84 -15.98 84 -17 84 C-15.47630703 89.18055611 -14.11423976 91.31013296 -9.3125 93.9375 C-7.8850113 94.64555261 -6.4504093 95.34017019 -5 96 C-5 96.66 -5 97.32 -5 98 C-2.03 98.66 0.94 99.32 4 100 C4 104.29 4 108.58 4 113 C2.5975 113.226875 1.195 113.45375 -0.25 113.6875 C-3.51979999 114.43297327 -4.88596122 114.90306704 -7.5 117.125 C-9.45110848 120.86462459 -9.71540303 123.80219475 -10 128 C-16.26573427 128.60247445 -16.26573427 128.60247445 -19.4375 126 C-21.51685114 122.00764582 -21.30231166 119.45909693 -21 115 C-20.34 115 -19.68 115 -19 115 C-19.33 114.01 -19.66 113.02 -20 112 C-22.07883627 111.30580103 -22.07883627 111.30580103 -24.5 111 C-26.96875 110.625 -26.96875 110.625 -29 110 C-29.33 109.01 -29.66 108.02 -30 107 C-29.505 106.401875 -29.01 105.80375 -28.5 105.1875 C-26.70226495 103.02092945 -26.70226495 103.02092945 -27.0625 99.9375 C-28.11835264 96.62916174 -29.04892948 95.71352482 -32 94 C-31.855625 94.556875 -31.71125 95.11375 -31.5625 95.6875 C-30.97040275 98.12167759 -30.40113233 100.52635065 -30 103 C-30.33 103.33 -30.66 103.66 -31 104 C-34.4375 103.75 -34.4375 103.75 -38 103 C-40.50031654 99.24952518 -40.53603554 97.44143734 -40 93 C-38.25 90.125 -38.25 90.125 -35 88 C-31.00042011 87.29786309 -27.05623224 87.07116197 -23 87 C-23 86.34 -23 85.68 -23 85 C-31.90558479 84.02232487 -31.90558479 84.02232487 -39.75 87.375 C-41.98484152 89.76757003 -41.98484152 89.76757003 -43 92 C-48.42465753 91.51780822 -48.42465753 91.51780822 -50.875 89.3125 C-52.28983481 86.40422845 -52.21776233 84.19384754 -52 81 C-49.03 80.505 -49.03 80.505 -46 80 C-46 79.34 -46 78.68 -46 78 C-46.99 77.67 -47.98 77.34 -49 77 C-48.67 76.154375 -48.34 75.30875 -48 74.4375 C-46.93894046 70.79010784 -46.84890987 67.77725336 -47 64 C-48.32 64 -49.64 64 -51 64 C-50.7525 65.0725 -50.505 66.145 -50.25 67.25 C-50 71 -50 71 -51.9375 73.4375 C-52.618125 73.953125 -53.29875 74.46875 -54 75 C-58.24044829 69.93881978 -59.56592208 66.67788055 -59 60 C-57 56.5625 -57 56.5625 -55 54 C-50.05 55.485 -50.05 55.485 -45 57 C-45 56.01 -45 55.02 -45 54 C-46.11375 53.9071875 -46.11375 53.9071875 -47.25 53.8125 C-51.00642921 52.70264591 -52.0572272 51.38186376 -54 48 C-54.68089713 44.18697608 -54.51929498 40.9891333 -52.6875 37.5 C-51 36 -51 36 -48 36 C-45 39.33333333 -45 39.33333333 -45 42 C-44.21625 42.309375 -43.4325 42.61875 -42.625 42.9375 C-40 44 -40 44 -38 45 C-33.61775038 45.15376314 -29.58214287 44.96411157 -25.25 44.3125 C-22.42035835 43.98995017 -21.16133489 43.94097504 -18.4375 44.9375 C-15.71270206 48.84699269 -16.7565646 53.53938758 -17.5 58 C-17.7475 58.99 -17.7475 58.99 -18 60 C-17.01 59.67 -16.02 59.34 -15 59 C-14.09721088 56.97635676 -13.54616787 54.94247804 -12.94140625 52.8125 C-12 51 -12 51 -9.90234375 50.25 C-9.27457031 50.1675 -8.64679688 50.085 -8 50 C-8 49.34 -8 48.68 -8 48 C-10.97 47.505 -10.97 47.505 -14 47 C-14.495 45.02 -14.495 45.02 -15 43 C-15.66 43 -16.32 43 -17 43 C-16.45276317 39.62537285 -15.9451 37.91765 -14 35 C-13.34 35 -12.68 35 -12 35 C-12.33 34.01 -12.66 33.02 -13 32 C-14.94906855 32.59533047 -14.94906855 32.59533047 -17 34 C-17.61875 35.485 -17.61875 35.485 -18.25 37 C-20 40 -20 40 -23.5625 41.375 C-25.03445296 41.62934481 -26.51543155 41.83449068 -28 42 C-28.825 42.10570312 -29.65 42.21140625 -30.5 42.3203125 C-35.37101097 42.66187729 -38.25861077 42.32089054 -42.0625 39.125 C-45.08747947 36.17831411 -45.93453199 34.6437688 -46.375 30.3125 C-46.33098845 25.48003128 -44.28384332 22.42259727 -41 19 C-36.31249363 15.87499575 -31.37004297 16.61305421 -25.9375 17.5 C-25.298125 17.665 -24.65875 17.83 -24 18 C-24 17.34 -24 16.68 -24 16 C-25.32 15.34 -26.64 14.68 -28 14 C-26.74155722 10.11980141 -25.57583797 8.0588158 -22 6 C-21.01 6 -20.02 6 -19 6 C-17.68 8.64 -16.36 11.28 -15 14 C-14.01 14 -13.02 14 -12 14 C-12 13.34 -12 12.68 -12 12 C-12.495 11.566875 -12.99 11.13375 -13.5 10.6875 C-15 9 -15 9 -15.5625 6.625 C-14.87714318 3.42666818 -13.5135854 1.84565616 -10.91796875 -0.12109375 C-7.31262565 -1.77323672 -3.72125187 -1.02165279 0 0 Z " fill="#E9592A" transform="translate(244,128)"/>
<path d="M0 0 C15.79148272 0.33027938 27.94378581 6.80046709 38.79443359 17.87939453 C48.99587451 28.86700153 55.14183176 44.39119806 55.5625 59.375 C54.79828099 77.74090854 47.87499254 91.01267465 34.79296875 103.546875 C27.03448019 111.00136827 21.42659268 119.01929928 18.125 129.3125 C13.835 129.6425 9.545 129.9725 5.125 130.3125 C4.12862557 84.97746332 4.12862557 84.97746332 17.125 69.3125 C20.125 69.3125 20.125 69.3125 22.375 71.25 C25.77757946 73.8019346 27.88585763 74.3125 32.125 74.3125 C35.25304555 73.01038858 35.25304555 73.01038858 37.125 70.3125 C37.53314405 66.75058422 37.53314405 66.75058422 36.125 63.3125 C33.10074813 60.56957389 31.12004302 59.434342 27.0625 58.9375 C24.10575466 59.31495685 21.81372481 60.04721774 19.125 61.3125 C18.63 58.8375 18.63 58.8375 18.125 56.3125 C19.218125 55.879375 20.31125 55.44625 21.4375 55 C25.35787275 53.37906511 25.35787275 53.37906511 28.125 50.3125 C28.62507794 46.77036015 28.62507794 46.77036015 28.125 43.3125 C25.22920618 40.94027005 25.22920618 40.94027005 21.5625 41.5625 C18.07907388 41.9983444 18.07907388 41.9983444 16.125 44.3125 C15.45207499 46.27940374 15.45207499 46.27940374 15 48.4375 C14.71125 49.71625 14.4225 50.995 14.125 52.3125 C12.475 52.3125 10.825 52.3125 9.125 52.3125 C9.22039062 51.57644531 9.31578125 50.84039062 9.4140625 50.08203125 C9.52492188 49.10621094 9.63578125 48.13039062 9.75 47.125 C9.86601562 46.16207031 9.98203125 45.19914062 10.1015625 44.20703125 C10.12694942 41.07174677 9.46859283 39.11763465 8.125 36.3125 C4.97788821 36.0979242 2.67882336 36.07931122 -0.25 37.3125 C-2.33303778 39.87623881 -2.42541155 41.98863968 -2.28125 45.23828125 C-1.62076557 48.61056233 -0.00516549 50.64979313 2.125 53.3125 C1.0053014 54.31843243 -0.1209412 55.3170849 -1.25 56.3125 C-1.87648438 56.869375 -2.50296875 57.42625 -3.1484375 58 C-4.875 59.3125 -4.875 59.3125 -6.875 59.3125 C-6.92129419 51.9151924 -6.95685426 44.51791593 -6.97862434 37.12049294 C-6.9890717 33.68574541 -7.00324805 30.25109683 -7.02587891 26.81640625 C-7.05172063 22.86980362 -7.06146493 18.92324137 -7.0703125 14.9765625 C-7.08063507 13.74007965 -7.09095764 12.5035968 -7.10159302 11.22964478 C-7.10174408 10.08861298 -7.10189514 8.94758118 -7.10205078 7.77197266 C-7.106492 6.763815 -7.11093323 5.75565735 -7.11550903 4.71694946 C-6.64905132 0.05361527 -4.06294684 0.01766499 0 0 Z " fill="#F79111" transform="translate(258.875,126.6875)"/>
<path d="M0 0 C0.99 0.33 1.98 0.66 3 1 C2.34 1 1.68 1 1 1 C0.41281408 4.34440677 -0.05863115 7.59939315 0 11 C1.73040118 13.6557715 1.73040118 13.6557715 4 15 C4 14.34 4 13.68 4 13 C7.65938172 14.43164111 11.23988068 15.98934296 14.8125 17.625 C15.78832031 18.07101563 16.76414063 18.51703125 17.76953125 18.9765625 C18.50558594 19.31429687 19.24164063 19.65203125 20 20 C19.67 20.66 19.34 21.32 19 22 C18.29875 21.71125 17.5975 21.4225 16.875 21.125 C13.94547497 19.97866412 10.99078347 18.97374346 8 18 C9.26794449 21.80383347 10.64453288 22.00269814 14 24 C16.25402397 26.25402397 17 27.22894085 17 30.4375 C15.68298603 33.8123483 13.63777298 35.55063938 11 38 C9.97186389 39.31175986 8.95915568 40.6369893 8 42 C9.0725 41.54625 10.145 41.0925 11.25 40.625 C11.89195312 40.35558594 12.53390625 40.08617187 13.1953125 39.80859375 C15.09947081 39.00298918 15.09947081 39.00298918 17.125 37.6875 C19.87564249 36.67893109 21.32451464 37.90548326 24 39 C28.64786246 39.44265357 30.94913292 39.52543354 35.125 37.4375 C37.50874472 35.41649905 38.97468734 33.75956015 40.8125 31.3125 C43.24495173 28.29935687 44.90161487 27.46180622 48.75 27 C51.36672421 26.85759324 52.64274527 26.82137264 55 28 C55 30.97 55 33.94 55 37 C53.576875 36.95875 52.15375 36.9175 50.6875 36.875 C47.01939967 36.76867825 46.20380017 36.86413322 43 39 C42.67 39.99 42.34 40.98 42 42 C43.093125 41.505 44.18625 41.01 45.3125 40.5 C49 39 49 39 52 39 C53.36623674 41.73247348 53.128426 43.98198902 53 47 C52 48 52 48 48.9375 48.0625 C47.968125 48.041875 46.99875 48.02125 46 48 C46 48.99 46 49.98 46 51 C48.97 51 51.94 51 55 51 C55 53.97 55 56.94 55 60 C51.62574368 60.38562929 50.33883091 60.25195119 47.5625 58.1875 C46.716875 57.465625 45.87125 56.74375 45 56 C43.4221875 55.2884375 43.4221875 55.2884375 41.8125 54.5625 C39 53 39 53 37.625 50.3125 C37.41875 49.549375 37.2125 48.78625 37 48 C36.01 48 35.02 48 34 48 C35.52369297 53.18055611 36.88576024 55.31013296 41.6875 57.9375 C43.1149887 58.64555261 44.5495907 59.34017019 46 60 C46 60.66 46 61.32 46 62 C48.97 62.66 51.94 63.32 55 64 C55 68.29 55 72.58 55 77 C53.5975 77.226875 52.195 77.45375 50.75 77.6875 C47.48020001 78.43297327 46.11403878 78.90306704 43.5 81.125 C41.54889152 84.86462459 41.28459697 87.80219475 41 92 C34.73426573 92.60247445 34.73426573 92.60247445 31.5625 90 C29.48314886 86.00764582 29.69768834 83.45909693 30 79 C30.66 79 31.32 79 32 79 C31.67 78.01 31.34 77.02 31 76 C28.92116373 75.30580103 28.92116373 75.30580103 26.5 75 C24.03125 74.625 24.03125 74.625 22 74 C21.67 73.01 21.34 72.02 21 71 C21.495 70.401875 21.99 69.80375 22.5 69.1875 C24.29773505 67.02092945 24.29773505 67.02092945 23.9375 63.9375 C22.88164736 60.62916174 21.95107052 59.71352482 19 58 C19.144375 58.556875 19.28875 59.11375 19.4375 59.6875 C20.02959725 62.12167759 20.59886767 64.52635065 21 67 C20.67 67.33 20.34 67.66 20 68 C16.5625 67.75 16.5625 67.75 13 67 C10.49968346 63.24952518 10.46396446 61.44143734 11 57 C12.75 54.125 12.75 54.125 16 52 C19.99957989 51.29786309 23.94376776 51.07116197 28 51 C28 50.34 28 49.68 28 49 C19.09441521 48.02232487 19.09441521 48.02232487 11.25 51.375 C9.01515848 53.76757003 9.01515848 53.76757003 8 56 C2.57534247 55.51780822 2.57534247 55.51780822 0.125 53.3125 C-1.28983481 50.40422845 -1.21776233 48.19384754 -1 45 C1.97 44.505 1.97 44.505 5 44 C5 43.34 5 42.68 5 42 C4.01 41.67 3.02 41.34 2 41 C2.33 40.154375 2.66 39.30875 3 38.4375 C4.06105954 34.79010784 4.15109013 31.77725336 4 28 C2.68 28 1.36 28 0 28 C0.2475 29.0725 0.495 30.145 0.75 31.25 C1 35 1 35 -0.9375 37.4375 C-1.618125 37.953125 -2.29875 38.46875 -3 39 C-7.24044829 33.93881978 -8.56592208 30.67788055 -8 24 C-6 20.5625 -6 20.5625 -4 18 C-0.7 18.99 2.6 19.98 6 21 C6 20.01 6 19.02 6 18 C4.88625 17.9071875 4.88625 17.9071875 3.75 17.8125 C-0.00642921 16.70264591 -1.0572272 15.38186376 -3 12 C-3.69325741 8.1177585 -3.57352823 4.95588038 -1.5 1.5 C-1.005 1.005 -0.51 0.51 0 0 Z " fill="#E3313E" transform="translate(193,164)"/>
<path d="M0 0 C15.8129115 0.18434741 28.00723477 6.73893601 38.85693359 17.81689453 C50.10024002 29.9266576 55.93387509 46.73218957 55.328125 63.15234375 C55.28171875 63.84457031 55.2353125 64.53679687 55.1875 65.25 C53.37916283 62.0760306 52.75400219 59.29231568 52.25 55.6875 C51.3336365 49.72747179 49.89369462 44.02831244 48.1875 38.25 C47.48625 38.12496094 46.785 37.99992187 46.0625 37.87109375 C43.01456422 37.21264023 40.1470733 36.29285866 37.1875 35.3125 C22.87290605 30.92885486 9.02454619 31.00281097 -5.8125 31.25 C-5.83715622 26.99585377 -5.85533899 22.74174502 -5.86743164 18.48754883 C-5.87247101 17.03929927 -5.87930253 15.59105483 -5.88793945 14.14282227 C-5.90002247 12.06525412 -5.90573211 9.98775303 -5.91015625 7.91015625 C-5.91539307 6.65855713 -5.92062988 5.40695801 -5.92602539 4.11743164 C-5.74252062 -0.51754368 -4.21496034 0.07235983 0 0 Z " fill="#FBA209" transform="translate(258.8125,126.75)"/>
<path d="M0 0 C1 2 1 2 0.21484375 4.94140625 C-4.2067875 17.47612236 -10.00310976 25.13705789 -19.45166016 34.3359375 C-26.77401844 41.56556167 -31.84778695 49.17251227 -35 59 C-41.435 59.495 -41.435 59.495 -48 60 C-48.28871063 46.86366642 -47.44210207 34.05617412 -46 21 C-45.67 21.66 -45.34 22.32 -45 23 C-43.13767424 23.25687252 -41.27254849 23.50809893 -39.3984375 23.65625 C-37 24 -37 24 -33.72265625 25.2734375 C-28.64676308 26.2641155 -26.32709991 24.75628368 -22.0625 22.125 C-21.35883301 21.70734375 -20.65516602 21.2896875 -19.93017578 20.859375 C-11.09316085 15.45021214 -5.37681268 8.79842074 0 0 Z " fill="#EA4C2E" transform="translate(312,197)"/>
<path d="M0 0 C3.87846404 0.05550575 6.15885764 0.77708611 9.25 3.25 C13.85532212 8.1968969 12.72439927 14.23807108 12.6875 20.625 C12.7174707 22.45417969 12.7174707 22.45417969 12.74804688 24.3203125 C12.74190779 35.56712386 12.74190779 35.56712386 8.25 40.25 C6 41.125 6 41.125 4.25 41.25 C4.88979849 43.28241727 4.88979849 43.28241727 6.25 45.25 C8.80519921 46.06171228 8.80519921 46.06171228 11.25 46.25 C11.25 47.9 11.25 49.55 11.25 51.25 C7.01797628 51.67320237 4.20524165 51.65361534 0.8125 49.0625 C-1.75 46.25 -1.75 46.25 -2.125 43.4375 C-2.00125 42.715625 -1.8775 41.99375 -1.75 41.25 C-2.513125 41.023125 -3.27625 40.79625 -4.0625 40.5625 C-7.42605124 38.91983544 -8.1345912 37.59670059 -9.75 34.25 C-10.3881358 29.60199695 -10.25950785 24.93736956 -10.25 20.25 C-10.27835938 18.97898437 -10.30671875 17.70796875 -10.3359375 16.3984375 C-10.35506785 7.31152254 -10.35506785 7.31152254 -8.63671875 4.296875 C-7.28125 2.9375 -7.28125 2.9375 -4.75 1.25 C-3.75 0.25 -3.75 0.25 0 0 Z " fill="#081B4D" transform="translate(140.75,335.75)"/>
<path d="M0 0 C1.9375 0.8125 1.9375 0.8125 4 2 C4.33 2.99 4.66 3.98 5 5 C7.42383077 6.16953416 7.42383077 6.16953416 10 7 C10.66 7.33 11.32 7.66 12 8 C16.38224962 8.15376314 20.41785713 7.96411157 24.75 7.3125 C27.57964165 6.98995017 28.83866511 6.94097504 31.5625 7.9375 C34.28729794 11.84699269 33.2434354 16.53938758 32.5 21 C32.335 21.66 32.17 22.32 32 23 C32.99 22.67 33.98 22.34 35 22 C35.90278912 19.97635676 36.45383213 17.94247804 37.05859375 15.8125 C38 14 38 14 40.09765625 13.25 C40.72542969 13.1675 41.35320312 13.085 42 13 C42 12.34 42 11.68 42 11 C40.02 10.67 38.04 10.34 36 10 C35.505 8.02 35.505 8.02 35 6 C39.29 5.34 43.58 4.68 48 4 C48.66 4.99 49.32 5.98 50 7 C49.67 7.66 49.34 8.32 49 9 C48.95977609 11.3329866 48.95679753 13.66706666 49 16 C49.99 16.33 50.98 16.66 52 17 C52 14.36 52 11.72 52 9 C52.66 8.67 53.32 8.34 54 8 C54 12.95 54 17.9 54 23 C51.463125 23.12375 51.463125 23.12375 48.875 23.25 C43.83474894 23.7275654 40.88034955 24.57085388 37 28 C36.01264076 29.24353894 35.03382101 30.49389377 34.0625 31.75 C31.69849467 34.64002745 31.35350618 34.94418323 27.4375 35.5625 C24.32289048 35.05283662 21.8305518 34.37238875 19 33 C18.52377301 24.74539877 18.52377301 24.74539877 20.4375 21.75 C20.953125 21.1725 21.46875 20.595 22 20 C22.71433121 17.35065178 22.71433121 17.35065178 23 15 C19.72226496 15.75150023 19.72226496 15.75150023 18 19 C16.04130597 18.18836991 14.08305564 17.37566899 12.125 16.5625 C11.03445312 16.11003906 9.94390625 15.65757812 8.8203125 15.19140625 C7.19441376 14.50456537 5.57868226 13.78934113 4 13 C3.67 13.66 3.34 14.32 3 15 C-1.87804878 10.85365854 -1.87804878 10.85365854 -2.4375 6.9375 C-2.0259149 4.17400001 -1.45355985 2.36203476 0 0 Z " fill="#E53D36" transform="translate(194,165)"/>
<path d="M0 0 C3.98066095 1.57724302 5.60667274 2.41000911 8 6 C8.17162025 8.68594915 8.23224552 11.26544901 8.1953125 13.94921875 C8.1924826 14.72183548 8.18965271 15.49445221 8.18673706 16.29048157 C8.17554878 18.75631243 8.15044703 21.22177906 8.125 23.6875 C8.11496843 25.36002079 8.10584289 27.03254728 8.09765625 28.70507812 C8.07561392 32.80352559 8.04109363 36.90170106 8 41 C5.69 41 3.38 41 1 41 C1 37.7 1 34.4 1 31 C-1.31 31 -3.62 31 -6 31 C-6 34.3 -6 37.6 -6 41 C-8.64 41 -11.28 41 -14 41 C-14.12408851 36.26783707 -14.21456516 31.53663168 -14.2746582 26.80322266 C-14.29972128 25.19498182 -14.33378171 23.58685398 -14.37719727 21.97900391 C-14.43821848 19.66019761 -14.46628963 17.34290335 -14.48828125 15.0234375 C-14.51408768 14.31069672 -14.5398941 13.59795593 -14.56648254 12.86361694 C-14.56864631 8.96611912 -14.00968761 6.54390754 -11.59448242 3.56103516 C-7.6640531 -0.31872428 -5.48495561 -0.36566371 0 0 Z " fill="#0A1D4E" transform="translate(313,336)"/>
<path d="M0 0 C14 0 14 0 19 3 C22.41782774 6.88925226 22.35269572 10.64992063 22.3984375 15.59765625 C22 18 22 18 20.3515625 19.99609375 C19.90554688 20.65738281 19.45953125 21.31867188 19 22 C19.80440676 24.38784188 19.80440676 24.38784188 21 27 C21.1953125 30.55078125 21.1953125 30.55078125 21.125 34.3125 C21.10695313 35.56675781 21.08890625 36.82101562 21.0703125 38.11328125 C21.04710937 39.06589844 21.02390625 40.01851563 21 41 C18.69 41 16.38 41 14 41 C13.92652344 39.86111328 13.92652344 39.86111328 13.8515625 38.69921875 C13.77679688 37.70535156 13.70203125 36.71148437 13.625 35.6875 C13.55539062 34.70136719 13.48578125 33.71523438 13.4140625 32.69921875 C13.16134528 29.78471567 13.16134528 29.78471567 11 27 C10.01 26.67 9.02 26.34 8 26 C8 30.95 8 35.9 8 41 C5.36 41 2.72 41 0 41 C0 27.47 0 13.94 0 0 Z " fill="#0A1D4E" transform="translate(271,336)"/>
<path d="M0 0 C0.56847656 0.44472656 1.13695312 0.88945312 1.72265625 1.34765625 C6.73157762 5.05949048 6.73157762 5.05949048 12.75 6.125 C16.20558483 4.92883602 18.34704835 3.4921667 21 1 C24.3 3.31 27.6 5.62 31 8 C25.30027113 17.49954812 16.00417702 26.05068229 5 29 C-0.33983678 29.00711346 -5.16957131 27.11678269 -10 25 C-9.85085893 16.349818 -6.25228652 6.25228652 0 0 Z " fill="#F16922" transform="translate(277,195)"/>
<path d="M0 0 C2.31 0 4.62 0 7 0 C7.33 10.89 7.66 21.78 8 33 C9.65 33.33 11.3 33.66 13 34 C12.99476318 33.00556885 12.98952637 32.0111377 12.98413086 30.98657227 C12.96607959 27.30966079 12.95456754 23.63275325 12.94506836 19.95581055 C12.94002843 18.36205386 12.9331965 16.76830181 12.92456055 15.17456055 C12.91248001 12.88849747 12.90676845 10.60249533 12.90234375 8.31640625 C12.89718246 7.59973282 12.89202118 6.88305939 12.88670349 6.14466858 C12.88650737 4.42936328 12.93807993 2.71418734 13 1 C14 0 14 0 17.5625 -0.0625 C18.696875 -0.041875 19.83125 -0.02125 21 0 C21.09911652 4.89292532 21.17158399 9.78526221 21.21972656 14.67895508 C21.23980207 16.34247013 21.26706876 18.00591496 21.30175781 19.66918945 C21.35045766 22.0647924 21.37300856 24.45945992 21.390625 26.85546875 C21.41127014 27.5952446 21.43191528 28.33502045 21.45318604 29.09721375 C21.45477859 32.788885 21.12059871 34.812917 19.10058594 37.9465332 C15.45420032 41.51112518 12.41403396 41.38787014 7.484375 41.359375 C5 41 5 41 1.9375 38.625 C-1.11595549 34.4880603 -1.14709166 31.6180537 -1.1328125 26.62109375 C-1.13424759 25.53019188 -1.13424759 25.53019188 -1.13571167 24.41725159 C-1.13639235 22.87981072 -1.13454585 21.34236699 -1.13037109 19.80493164 C-1.12501351 17.443457 -1.13032377 15.08217189 -1.13671875 12.72070312 C-1.1360581 11.22916624 -1.13477721 9.73762948 -1.1328125 8.24609375 C-1.13483673 7.53569443 -1.13686096 6.8252951 -1.13894653 6.09336853 C-1.11495714 1.11495714 -1.11495714 1.11495714 0 0 Z " fill="#0E2151" transform="translate(160,336)"/>
<path d="M0 0 C2.06285794 4.12571588 2.36128662 6.5758185 1 11 C0.09349052 12.37510515 -0.8482747 13.72723104 -1.8125 15.0625 C-10.83898378 27.98530772 -11.15041609 45.61058873 -12.125 60.8125 C-12.21136719 62.08931641 -12.29773438 63.36613281 -12.38671875 64.68164062 C-12.59610021 67.78746564 -12.80045192 70.89353041 -13 74 C-13.66 74 -14.32 74 -15 74 C-15.17489638 52.98014633 -14.67045394 32.00696248 -14 11 C-15.32 11 -16.64 11 -18 11 C-17.99476318 12.26368408 -17.98952637 13.52736816 -17.98413086 14.8293457 C-17.96573851 19.61368066 -17.95444578 24.39801265 -17.94506836 29.18237305 C-17.94010502 31.2351128 -17.93333218 33.28784916 -17.92456055 35.34057617 C-17.86941468 48.59829122 -18.13788264 61.76887981 -19 75 C-19.66 75 -20.32 75 -21 75 C-21.27902053 66.4202242 -21.49172604 57.84236578 -21.62174606 49.25916386 C-21.68417876 45.27261858 -21.7687097 41.28919273 -21.90527344 37.30444336 C-22.0364411 33.45268537 -22.10755784 29.6039096 -22.13852692 25.75008965 C-22.16056806 24.28614774 -22.20362012 22.82235534 -22.26876068 21.35969734 C-22.53431286 15.14531118 -22.70934144 9.97185587 -18.43322754 5.03903198 C-12.3413216 -0.08890495 -7.79491964 -2.20856057 0 0 Z " fill="#EF741D" transform="translate(273,183)"/>
<path d="M0 0 C2.87305972 1.40460697 4.74510999 2.74510999 7 5 C7.1953125 7.1640625 7.1953125 7.1640625 7.125 9.625 C7.10695313 10.44226563 7.08890625 11.25953125 7.0703125 12.1015625 C7.04710937 12.72804688 7.02390625 13.35453125 7 14 C4.69 14 2.38 14 0 14 C-0.33 12.02 -0.66 10.04 -1 8 C-2.32 8 -3.64 8 -5 8 C-5 16.25 -5 24.5 -5 33 C-3.35 33.33 -1.7 33.66 0 34 C-0.020625 32.865625 -0.04125 31.73125 -0.0625 30.5625 C0 27 0 27 1 26 C4 25.875 4 25.875 7 26 C8 27 8 27 8.3125 30.1875 C7.94970476 34.61360196 6.76457636 36.58493509 4 40 C0.28546768 41.85726616 -3.95579425 41.58501089 -8 41 C-10.82424288 38.80977082 -12.41508603 37.16982793 -14 34 C-14.32585719 29.58979106 -14.32460807 25.17074666 -14.375 20.75 C-14.41238281 19.52152344 -14.44976562 18.29304688 -14.48828125 17.02734375 C-14.58727017 6.87547963 -14.58727017 6.87547963 -11.6015625 3.203125 C-7.56962945 -0.21130479 -5.28260973 -0.35814303 0 0 Z " fill="#091D4E" transform="translate(257,336)"/>
<path d="M0 0 C6.27 0 12.54 0 19 0 C19 6.0874249 18.80562531 8.33663989 16.59375 13.58984375 C16.09746094 14.78544922 15.60117188 15.98105469 15.08984375 17.21289062 C14.56016436 18.45454167 14.03021308 19.69607676 13.5 20.9375 C12.96891868 22.20590625 12.43895984 23.47478309 11.91015625 24.74414062 C10.61772344 27.83422998 9.31408855 30.91907238 8 34 C11.63 34 15.26 34 19 34 C19 36.31 19 38.62 19 41 C12.73 41 6.46 41 0 41 C0 32 0 32 2.1875 26.53125 C2.63867188 25.38398438 3.08984375 24.23671875 3.5546875 23.0546875 C4.03164062 21.88164062 4.50859375 20.70859375 5 19.5 C5.47695312 18.29601562 5.95390625 17.09203125 6.4453125 15.8515625 C7.61816161 12.89598274 8.80327707 9.94597537 10 7 C6.7 7 3.4 7 0 7 C0 4.69 0 2.38 0 0 Z " fill="#0A1E4E" transform="translate(202,336)"/>
<path d="M0 0 C0.79792969 0.00386719 1.59585937 0.00773437 2.41796875 0.01171875 C3.21589844 0.00785156 4.01382812 0.00398438 4.8359375 0 C10.79136108 0.01011108 10.79136108 0.01011108 11.91796875 1.13671875 C12.04296875 4.13671875 12.04296875 4.13671875 11.91796875 7.13671875 C10.91796875 8.13671875 10.91796875 8.13671875 8.6328125 8.234375 C6.06119792 8.20182292 3.48958333 8.16927083 0.91796875 8.13671875 C0.91796875 11.43671875 0.91796875 14.73671875 0.91796875 18.13671875 C3.55796875 18.13671875 6.19796875 18.13671875 8.91796875 18.13671875 C8.91796875 20.44671875 8.91796875 22.75671875 8.91796875 25.13671875 C6.27796875 25.13671875 3.63796875 25.13671875 0.91796875 25.13671875 C0.91796875 30.41671875 0.91796875 35.69671875 0.91796875 41.13671875 C-1.72203125 41.13671875 -4.36203125 41.13671875 -7.08203125 41.13671875 C-7.1066783 35.45841797 -7.12486587 29.78014806 -7.13696289 24.10180664 C-7.14200381 22.1685329 -7.14883644 20.23526299 -7.1574707 18.30200195 C-7.1695469 15.52945003 -7.17526182 12.75694834 -7.1796875 9.984375 C-7.18484879 9.11458511 -7.19001007 8.24479523 -7.19532776 7.34864807 C-7.1955231 5.27766061 -7.14411293 3.20677551 -7.08203125 1.13671875 C-5.19650595 -0.74880655 -2.50434294 0.00425186 0 0 Z " fill="#0E2151" transform="translate(335.08203125,335.86328125)"/>
<path d="M0 0 C1.9375 0.3125 1.9375 0.3125 4 1 C4.33 1.99 4.66 2.98 5 4 C5.89203125 4.13277344 6.7840625 4.26554688 7.703125 4.40234375 C9.45882812 4.66724609 9.45882812 4.66724609 11.25 4.9375 C12.41015625 5.11152344 13.5703125 5.28554687 14.765625 5.46484375 C18 6 18 6 20.234375 6.56640625 C22.18255831 7.11924459 22.18255831 7.11924459 25 7 C25 9.64 25 12.28 25 15 C24.39671875 15.08636719 23.7934375 15.17273438 23.171875 15.26171875 C19.20872571 15.95846596 16.61311834 16.47884941 13.5 19.125 C11.54889152 22.86462459 11.28459697 25.80219475 11 30 C4.73426573 30.60247445 4.73426573 30.60247445 1.5625 28 C-0.51685114 24.00764582 -0.30231166 21.45909693 0 17 C0.66 17 1.32 17 2 17 C1.67 16.01 1.34 15.02 1 14 C-1.07883627 13.30580103 -1.07883627 13.30580103 -3.5 13 C-5.96875 12.625 -5.96875 12.625 -8 12 C-8.33 11.01 -8.66 10.02 -9 9 C-7.68 7.68 -6.36 6.36 -5 5 C-5 5.66 -5 6.32 -5 7 C-2.36 7 0.28 7 3 7 C2.505 6.401875 2.01 5.80375 1.5 5.1875 C0 3 0 3 0 0 Z " fill="#DE1248" transform="translate(223,226)"/>
<path d="M0 0 C15.51 0 31.02 0 47 0 C47.495 3.465 47.495 3.465 48 7 C45.17044154 9.82955846 42.12741048 9.71848287 38.3125 10.125 C37.17325073 10.25128784 37.17325073 10.25128784 36.01098633 10.38012695 C7.03308296 13.35538864 7.03308296 13.35538864 -1 8 C-1.25660094 4.92078868 -1.39431504 2.78863007 0 0 Z " fill="#DD0350" transform="translate(228,289)"/>
<path d="M0 0 C1.51400391 0.14308594 1.51400391 0.14308594 3.05859375 0.2890625 C10.24216234 1.13614226 15.23414788 2.65669407 21 7 C21.66 7.33 22.32 7.66 23 8 C23 8.66 23 9.32 23 10 C27.455 10.99 27.455 10.99 32 12 C32 13.65 32 15.3 32 17 C30.0085944 17.38133299 28.00720923 17.71325582 26 18 C25.67 17.67 25.34 17.34 25 17 C23.41798689 16.89453246 21.83416646 16.81561636 20.25 16.75 C16.24049202 16.40681815 15.25279182 16.21514198 12.0625 13.5 C11.381875 12.675 10.70125 11.85 10 11 C9.01 10.67 8.02 10.34 7 10 C7.474375 10.94875 7.94875 11.8975 8.4375 12.875 C9.29166667 14.58333333 10.14583333 16.29166667 11 18 C8.03 17.67 5.06 17.34 2 17 C1.7525 15.741875 1.505 14.48375 1.25 13.1875 C0.51162006 10.16442273 0.20617994 9.1940517 -2.125 7 C-2.74375 6.67 -3.3625 6.34 -4 6 C-3.855625 6.556875 -3.71125 7.11375 -3.5625 7.6875 C-2.97040275 10.12167759 -2.40113233 12.52635065 -2 15 C-2.33 15.33 -2.66 15.66 -3 16 C-6.4375 15.75 -6.4375 15.75 -10 15 C-12.50031654 11.24952518 -12.53603554 9.44143734 -12 5 C-8.55060437 0.0872244 -5.67746939 -0.74097484 0 0 Z " fill="#E02142" transform="translate(216,216)"/>
<path d="M0 0 C15.8129115 0.18434741 28.00723477 6.73893601 38.85693359 17.81689453 C50.10024002 29.9266576 55.93387509 46.73218957 55.328125 63.15234375 C55.28171875 63.84457031 55.2353125 64.53679687 55.1875 65.25 C53.38241006 62.09294969 52.81867805 59.40580461 52.375 55.8125 C50.34461123 42.90615275 44.98086361 31.06402725 35.1875 22.25 C34.300625 21.425 33.41375 20.6 32.5 19.75 C21.55385113 10.87021597 7.73617939 8.93122299 -5.8125 7.25 C-5.85504356 5.25045254 -5.85330783 3.24958364 -5.8125 1.25 C-4.16034709 -0.40215291 -2.27429221 0.03904364 0 0 Z " fill="#F9D589" transform="translate(258.8125,126.75)"/>
<path d="M0 0 C0.33 0 0.66 0 1 0 C1 1.65 1 3.3 1 5 C1.85658203 5.20302734 1.85658203 5.20302734 2.73046875 5.41015625 C10.40288793 7.44718964 17.28458746 10.79653665 24 15 C25.73107488 18.46214977 25.48819473 22.21490582 25 26 C23.90291271 28.36185168 22.6695627 29.96522046 21 32 C16.46873452 30.48957817 12.45642153 28.30952361 9 25 C7.96157435 22.68351201 6.9578025 20.35096976 6 18 C3.23402482 15.68256134 1.5834237 15.0607733 -2 14.6875 C-5.01969758 15.00205183 -7.2645129 15.71271195 -10 17 C-10.33 15.35 -10.66 13.7 -11 12 C-9.906875 11.566875 -8.81375 11.13375 -7.6875 10.6875 C-3.81735015 9.03105411 -3.81735015 9.03105411 -1 6 C-0.2730774 2.89160979 -0.2730774 2.89160979 0 0 Z " fill="#F38118" transform="translate(288,171)"/>
<path d="M0 0 C6.6 0 13.2 0 20 0 C20 2.64 20 5.28 20 8 C18.02 8 16.04 8 14 8 C14 18.89 14 29.78 14 41 C11.36 41 8.72 41 6 41 C6 30.11 6 19.22 6 8 C4.02 8 2.04 8 0 8 C0 5.36 0 2.72 0 0 Z " fill="#0F2151" transform="translate(350,336)"/>
<path d="M0 0 C0.99 0.33 1.98 0.66 3 1 C2.34 1 1.68 1 1 1 C0.41281408 4.34440677 -0.05863115 7.59939315 0 11 C1.73040118 13.6557715 1.73040118 13.6557715 4 15 C4 14.34 4 13.68 4 13 C7.65938172 14.43164111 11.23988068 15.98934296 14.8125 17.625 C15.78832031 18.07101563 16.76414063 18.51703125 17.76953125 18.9765625 C18.50558594 19.31429687 19.24164063 19.65203125 20 20 C19.67 20.66 19.34 21.32 19 22 C18.29875 21.71125 17.5975 21.4225 16.875 21.125 C13.94547497 19.97866412 10.99078347 18.97374346 8 18 C9.26794449 21.80383347 10.64453288 22.00269814 14 24 C15.875 25.875 15.875 25.875 17 28 C16.6875 30.75 16.6875 30.75 16 33 C13.5332355 33.88336837 12.36140628 34.1312406 9.859375 33.22265625 C8.81523437 32.64837891 8.81523437 32.64837891 7.75 32.0625 C7.04359375 31.68222656 6.3371875 31.30195313 5.609375 30.91015625 C5.07828125 30.60980469 4.5471875 30.30945313 4 30 C4 29.34 4 28.68 4 28 C2.68 28 1.36 28 0 28 C0.2475 29.0725 0.495 30.145 0.75 31.25 C1 35 1 35 -0.9375 37.4375 C-1.618125 37.953125 -2.29875 38.46875 -3 39 C-7.24044829 33.93881978 -8.56592208 30.67788055 -8 24 C-6 20.5625 -6 20.5625 -4 18 C-0.7 18.99 2.6 19.98 6 21 C6 20.01 6 19.02 6 18 C4.88625 17.9071875 4.88625 17.9071875 3.75 17.8125 C-0.00642921 16.70264591 -1.0572272 15.38186376 -3 12 C-3.69325741 8.1177585 -3.57352823 4.95588038 -1.5 1.5 C-1.005 1.005 -0.51 0.51 0 0 Z " fill="#E54541" transform="translate(193,164)"/>
<path d="M0 0 C1.9375 0.8125 1.9375 0.8125 4 2 C4.33 2.99 4.66 3.98 5 5 C7.42383077 6.16953416 7.42383077 6.16953416 10 7 C10.66 7.33 11.32 7.66 12 8 C16.38224962 8.15376314 20.41785713 7.96411157 24.75 7.3125 C27.57964165 6.98995017 28.83866511 6.94097504 31.5625 7.9375 C33.7734741 11.10976719 33.46113986 14.25040376 33 18 C32.505 19.485 32.505 19.485 32 21 C29.03 20.67 26.06 20.34 23 20 C23 18.35 23 16.7 23 15 C19.72226496 15.75150023 19.72226496 15.75150023 18 19 C16.04130597 18.18836991 14.08305564 17.37566899 12.125 16.5625 C11.03445312 16.11003906 9.94390625 15.65757812 8.8203125 15.19140625 C7.19441376 14.50456537 5.57868226 13.78934113 4 13 C3.67 13.66 3.34 14.32 3 15 C-1.87804878 10.85365854 -1.87804878 10.85365854 -2.4375 6.9375 C-2.0259149 4.17400001 -1.45355985 2.36203476 0 0 Z " fill="#E94932" transform="translate(194,165)"/>
<path d="M0 0 C0.56847656 0.44472656 1.13695312 0.88945312 1.72265625 1.34765625 C6.73157762 5.05949048 6.73157762 5.05949048 12.75 6.125 C16.20558483 4.92883602 18.34704835 3.4921667 21 1 C24.3 3.31 27.6 5.62 31 8 C26.13898305 16.10169492 26.13898305 16.10169492 22 19 C17.04738452 19.33767833 13.01988043 16.52156963 8.74609375 14.27734375 C4.33693042 12.22642425 -0.27854511 11.10406645 -5 10 C-4.29795092 5.60295579 -2.96828429 3.35128872 0 0 Z " fill="#F2741D" transform="translate(277,195)"/>
<path d="M0 0 C3 0.125 3 0.125 4 1.125 C4.08868299 4.08205321 4.11520296 7.01565056 4.09765625 9.97265625 C4.0962413 10.8590831 4.09482635 11.74550995 4.09336853 12.65879822 C4.08775215 15.50173254 4.07519691 18.34458931 4.0625 21.1875 C4.05748711 23.11002491 4.05292384 25.03255104 4.04882812 26.95507812 C4.03777741 31.67841549 4.02050183 36.40169458 4 41.125 C1.36 41.125 -1.28 41.125 -4 41.125 C-4.02464705 35.44669922 -4.04283462 29.76842931 -4.05493164 24.09008789 C-4.05997256 22.15681415 -4.06680519 20.22354424 -4.07543945 18.2902832 C-4.08751565 15.51773128 -4.09323057 12.74522959 -4.09765625 9.97265625 C-4.10281754 9.10286636 -4.10797882 8.23307648 -4.11329651 7.33692932 C-4.11349185 5.26594186 -4.06208168 3.19505676 -4 1.125 C-3 0.125 -3 0.125 0 0 Z " fill="#0A1D4E" transform="translate(192,335.875)"/>
<path d="M0 0 C6.12978001 -0.78252511 9.18346206 0.98636151 14.1796875 4.4921875 C16 6 16 6 17 8 C16.2578125 9.8046875 16.2578125 9.8046875 15.125 11.875 C13.57626061 14.72338084 12.80970977 16.7611609 12 20 C5.565 20.495 5.565 20.495 -1 21 C-1.0269501 18.06243881 -1.04681474 15.12512445 -1.0625 12.1875 C-1.07087891 11.35412109 -1.07925781 10.52074219 -1.08789062 9.66210938 C-1.09111328 8.85966797 -1.09433594 8.05722656 -1.09765625 7.23046875 C-1.10289307 6.49207764 -1.10812988 5.75368652 -1.11352539 4.99291992 C-1 3 -1 3 0 0 Z " fill="#E1313B" transform="translate(265,236)"/>
<path d="M0 0 C2.05372885 0.20515693 4.1067439 0.42440976 6.15185547 0.70263672 C11.93207544 1.30612617 17.75743738 1.10110144 23.5625 1.0625 C24.85736328 1.05798828 26.15222656 1.05347656 27.48632812 1.04882812 C30.657601 1.03712601 33.82877546 1.02073113 37 1 C36.67443302 4.01149456 36.4000549 5.5903335 34.25219727 7.78979492 C31.60818309 9.21054053 29.95502146 9.37349606 26.96484375 9.36328125 C25.98966797 9.36263672 25.01449219 9.36199219 24.00976562 9.36132812 C22.99591797 9.34521484 21.98207031 9.32910156 20.9375 9.3125 C19.95072266 9.31572266 18.96394531 9.31894531 17.94726562 9.32226562 C11.11352026 9.2730376 4.67749441 8.43364664 -2 7 C-2.125 4.625 -2.125 4.625 -2 2 C-1.34 1.34 -0.68 0.68 0 0 Z " fill="#DB064F" transform="translate(229,274)"/>
<path d="M0 0 C3.625 0.1875 3.625 0.1875 5.47167969 0.69311523 C8.25628738 1.33243843 10.84673492 1.29915816 13.703125 1.28515625 C15.44335938 1.28032227 15.44335938 1.28032227 17.21875 1.27539062 C18.4253125 1.26701172 19.631875 1.25863281 20.875 1.25 C22.09703125 1.24548828 23.3190625 1.24097656 24.578125 1.23632812 C27.59379946 1.22454815 30.60937498 1.20809853 33.625 1.1875 C33.3125 3.5625 33.3125 3.5625 32.625 6.1875 C29.15302079 8.50215281 27.7687291 8.44449485 23.671875 8.453125 C21.90650391 8.45699219 21.90650391 8.45699219 20.10546875 8.4609375 C18.87441406 8.45320313 17.64335937 8.44546875 16.375 8.4375 C14.55162109 8.44910156 14.55162109 8.44910156 12.69140625 8.4609375 C6.63581848 8.44773011 1.32438032 8.31212107 -4.375 6.1875 C-5 4.3125 -5 4.3125 -5.375 2.1875 C-3.375 0.1875 -3.375 0.1875 0 0 Z " fill="#DE0250" transform="translate(232.375,259.8125)"/>
<path d="M0 0 C3.63 0 7.26 0 11 0 C11.625 3.375 11.625 3.375 12 7 C7.04046634 11.95953366 -3.35685384 11.1118043 -10.09985352 11.1875 C-32.21875 11.1875 -32.21875 11.1875 -37 8 C-36.67 7.01 -36.34 6.02 -36 5 C-34.69289062 5.48533203 -34.69289062 5.48533203 -33.359375 5.98046875 C-27.45716186 7.66108382 -21.33525957 7.32863271 -15.25 7.3125 C-14.01894531 7.32861328 -12.78789062 7.34472656 -11.51953125 7.36132812 C-9.75416016 7.36229492 -9.75416016 7.36229492 -7.953125 7.36328125 C-6.34679199 7.36775269 -6.34679199 7.36775269 -4.70800781 7.37231445 C-1.99527474 7.21944023 -1.99527474 7.21944023 -0.19042969 5.66479492 C1.19869294 3.89488152 1.19869294 3.89488152 2 1 C1.34 0.67 0.68 0.34 0 0 Z " fill="#8C074D" transform="translate(264,260)"/>
<path d="M0 0 C0.36738281 0.51175781 0.73476562 1.02351562 1.11328125 1.55078125 C0.78328125 2.21078125 0.45328125 2.87078125 0.11328125 3.55078125 C0.07305734 5.88376785 0.07007878 8.21784791 0.11328125 10.55078125 C1.10328125 10.88078125 2.09328125 11.21078125 3.11328125 11.55078125 C3.11328125 8.91078125 3.11328125 6.27078125 3.11328125 3.55078125 C3.77328125 3.22078125 4.43328125 2.89078125 5.11328125 2.55078125 C5.11328125 6.51078125 5.11328125 10.47078125 5.11328125 14.55078125 C1.84368461 15.6406468 -1.01585558 15.90725005 -4.44921875 16.17578125 C-6.18365234 16.31886719 -6.18365234 16.31886719 -7.953125 16.46484375 C-10.88671875 16.55078125 -10.88671875 16.55078125 -12.88671875 15.55078125 C-12.69921875 12.67578125 -12.69921875 12.67578125 -11.88671875 9.55078125 C-9.32421875 8.17578125 -9.32421875 8.17578125 -6.88671875 7.55078125 C-6.88671875 6.89078125 -6.88671875 6.23078125 -6.88671875 5.55078125 C-9.85671875 5.05578125 -9.85671875 5.05578125 -12.88671875 4.55078125 C-13.21671875 3.23078125 -13.54671875 1.91078125 -13.88671875 0.55078125 C-11.95357748 0.13418181 -10.01491528 -0.25686712 -8.07421875 -0.63671875 C-6.99527344 -0.85714844 -5.91632813 -1.07757813 -4.8046875 -1.3046875 C-1.88671875 -1.44921875 -1.88671875 -1.44921875 0 0 Z " fill="#E74831" transform="translate(242.88671875,170.44921875)"/>
<path d="M0 0 C3.375 -0.125 3.375 -0.125 7 0 C7.66 0.66 8.32 1.32 9 2 C8.625 5.625 8.625 5.625 8 9 C3.10488897 10.58130457 -0.98818877 11.24809435 -6.18359375 11.23046875 C-6.84279312 11.23001053 -7.50199249 11.22955231 -8.1811676 11.2290802 C-9.5652142 11.22608073 -10.94925813 11.21826439 -12.33325195 11.20581055 C-14.42867272 11.18757681 -16.52364877 11.18530124 -18.61914062 11.18554688 C-32.62424134 11.1524241 -32.62424134 11.1524241 -38 10 C-38.66 9.01 -39.32 8.02 -40 7 C-37.01480511 5.50740255 -34.78297258 6.75505271 -31.67431641 7.49316406 C-26.86776304 8.40410114 -22.06580564 8.36873371 -17.1875 8.375 C-16.16462891 8.39949219 -15.14175781 8.42398437 -14.08789062 8.44921875 C-8.35848253 8.58072805 -8.35848253 8.58072805 -3.37890625 6.1171875 C-2.08051503 4.12362365 -0.9374305 2.18733783 0 0 Z " fill="#7F084C" transform="translate(267,274)"/>
<path d="M0 0 C-0.26844727 0.92876953 -0.53689453 1.85753906 -0.81347656 2.81445312 C-3.81425534 13.67330789 -4.99854317 24.28544339 -5.75 35.5 C-5.87502295 37.20972943 -6.0013189 38.91936627 -6.12890625 40.62890625 C-6.43388569 44.75168951 -6.72185986 48.87532277 -7 53 C-7.66 53 -8.32 53 -9 53 C-9.13235918 35.63651131 -8.85300123 18.34360216 -8 1 C-5.07175348 0.02391783 -3.04386724 -0.08226668 0 0 Z " fill="#EC6722" transform="translate(267,204)"/>
<path d="M0 0 C2.85694719 5.71389438 3.14893742 10.14210193 3.1328125 16.47265625 C3.13376923 17.30977646 3.13472595 18.14689667 3.13571167 19.00938416 C3.13639225 20.78889033 3.13454644 22.56839899 3.13037109 24.34790039 C3.12512193 27.0008749 3.13026686 29.6536721 3.13671875 32.30664062 C3.14077594 43.90086014 2.72519364 55.42911422 2 67 C1.34 67 0.68 67 0 67 C0 44.89 0 22.78 0 0 Z " fill="#CD552B" transform="translate(252,191)"/>
<path d="M0 0 C1.65 0.33 3.3 0.66 5 1 C5 9.25 5 17.5 5 26 C3.35 26.33 1.7 26.66 0 27 C-1.74545605 25.25454395 -1.1302316 22.83875783 -1.1328125 20.46875 C-1.13410156 19.34855469 -1.13539063 18.22835938 -1.13671875 17.07421875 C-1.13285156 15.89472656 -1.12898437 14.71523438 -1.125 13.5 C-1.12886719 12.32050781 -1.13273438 11.14101563 -1.13671875 9.92578125 C-1.13542969 8.80558594 -1.13414062 7.68539063 -1.1328125 6.53125 C-1.13168457 5.49548828 -1.13055664 4.45972656 -1.12939453 3.39257812 C-1 1 -1 1 0 0 Z " fill="#FBFCFC" transform="translate(140,343)"/>
<path d="M0 0 C0.33 0.66 0.66 1.32 1 2 C2.94848361 2.26420117 4.89873946 2.52093364 6.85546875 2.71484375 C9.71654994 3.09527895 12.30524369 3.98946638 15 5 C15 5.66 15 6.32 15 7 C13.13671875 8.5859375 13.13671875 8.5859375 10.6875 10.375 C8.17106184 12.21471485 6.2379863 13.65657673 4.45703125 16.2265625 C3.97621094 16.81179687 3.49539063 17.39703125 3 18 C1.68 18 0.36 18 -1 18 C-1.18451025 5.33029613 -1.18451025 5.33029613 0 0 Z " fill="#E95C28" transform="translate(266,218)"/>
<path d="M0 0 C9.60867669 0.28811624 17.94388065 1.78955887 27 5 C27.99 5.33 28.98 5.66 30 6 C30 6.66 30 7.32 30 8 C20.1 8 10.2 8 0 8 C0 5.36 0 2.72 0 0 Z " fill="#FEB405" transform="translate(253,134)"/>
<path d="M0 0 C2.203125 0 2.203125 0 5.953125 0.375 C5.953125 4.665 5.953125 8.955 5.953125 13.375 C4.344375 13.395625 2.735625 13.41625 1.078125 13.4375 C-0.27925781 13.45490234 -0.27925781 13.45490234 -1.6640625 13.47265625 C-4.046875 13.375 -4.046875 13.375 -6.046875 12.375 C-6.40446683 8.62028573 -6.09365838 6.48026261 -4.546875 3 C-2.046875 0.375 -2.046875 0.375 0 0 Z " fill="#DA0150" transform="translate(243.046875,244.625)"/>
<path d="M0 0 C0.66 0.33 1.32 0.66 2 1 C2 3.97 2 6.94 2 10 C0.535625 9.979375 -0.92875 9.95875 -2.4375 9.9375 C-3.95832518 9.91607993 -5.48071962 9.92820036 -7 10 C-7.33 10.33 -7.66 10.66 -8 11 C-9.51928038 11.07179964 -11.04167482 11.08392007 -12.5625 11.0625 C-13.38878906 11.05347656 -14.21507812 11.04445312 -15.06640625 11.03515625 C-15.70449219 11.02355469 -16.34257812 11.01195312 -17 11 C-8.8527525 -0.78691133 -8.8527525 -0.78691133 0 0 Z " fill="#E13C36" transform="translate(246,191)"/>
<path d="M0 0 C0.33 0 0.66 0 1 0 C1.125 2.375 1.125 2.375 1 5 C-1.82955846 7.82955846 -4.87258952 7.71848287 -8.6875 8.125 C-9.82674927 8.25128784 -9.82674927 8.25128784 -10.98901367 8.38012695 C-39.96691704 11.35538864 -39.96691704 11.35538864 -48 6 C-48 5.34 -48 4.68 -48 4 C-47.45359863 4.0707373 -46.90719727 4.14147461 -46.34423828 4.21435547 C-38.5179982 5.12075291 -30.74615292 5.14821874 -22.875 5.125 C-21.55628906 5.12886719 -20.23757812 5.13273437 -18.87890625 5.13671875 C-12.49447533 5.13030224 -6.3084041 5.01127089 0 4 C0 2.68 0 1.36 0 0 Z " fill="#84074D" transform="translate(275,291)"/>
<path d="M0 0 C15.51 0 31.02 0 47 0 C47 0.66 47 1.32 47 2 C35.32277917 3.84463855 23.91196835 4.16979548 12.0925293 3.92578125 C10.97273682 3.90902344 9.85294434 3.89226562 8.69921875 3.875 C7.69721436 3.85179687 6.69520996 3.82859375 5.6628418 3.8046875 C2.92585288 4.0054385 1.32893672 4.59426722 -1 6 C-0.67 4.02 -0.34 2.04 0 0 Z " fill="#DA5E28" transform="translate(228,289)"/>
<path d="M0 0 C0.33 0 0.66 0 1 0 C1.33 14.85 1.66 29.7 2 45 C2.99 45 3.98 45 5 45 C7.1875 48 7.1875 48 9 51 C7.8803014 52.00593243 6.7540588 53.0045849 5.625 54 C4.99851562 54.556875 4.37203125 55.11375 3.7265625 55.6875 C2 57 2 57 0 57 C0 38.19 0 19.38 0 0 Z " fill="#D27B1E" transform="translate(252,129)"/>
<path d="M0 0 C1.32 0.33 2.64 0.66 4 1 C4 6.28 4 11.56 4 17 C2.02 17 0.04 17 -2 17 C-2.05383848 14.54137599 -2.09359038 12.0839245 -2.125 9.625 C-2.14175781 8.92632812 -2.15851563 8.22765625 -2.17578125 7.5078125 C-2.19344267 5.67102514 -2.10303261 3.83398037 -2 2 C-1.34 1.34 -0.68 0.68 0 0 Z " fill="#F6F7F9" transform="translate(309,343)"/>
<path d="M0 0 C0.99 0.33 1.98 0.66 3 1 C3.49029622 8.23186925 3.49029622 8.23186925 1.125 11.9375 C-2.06426489 15.03296298 -3.78993291 15.11807778 -8.125 15.0625 C-9.03507813 15.05347656 -9.94515625 15.04445312 -10.8828125 15.03515625 C-11.58148438 15.02355469 -12.28015625 15.01195312 -13 15 C-13.66 13.68 -14.32 12.36 -15 11 C-12 10 -12 10 -9.0625 10.5625 C-6.11830073 11.15131853 -6.11830073 11.15131853 -3.6875 10.5625 C-0.87157315 7.95516033 -1.2961775 4.73183654 -1 1 C-0.67 0.67 -0.34 0.34 0 0 Z " fill="#0F1845" transform="translate(240,139)"/>
<path d="M0 0 C2.05372885 0.20515693 4.1067439 0.42440976 6.15185547 0.70263672 C11.93207544 1.30612617 17.75743738 1.10110144 23.5625 1.0625 C24.85736328 1.05798828 26.15222656 1.05347656 27.48632812 1.04882812 C30.657601 1.03712601 33.82877546 1.02073113 37 1 C37 1.66 37 2.32 37 3 C33.55416785 4.14861072 30.98641573 4.06562839 27.35546875 3.9921875 C25.38030273 3.96705078 25.38030273 3.96705078 23.36523438 3.94140625 C21.27833008 3.91053271 19.19184277 3.87509674 17.10522461 3.82861328 C15.08442173 3.7859894 13.06410099 3.76275237 11.04296875 3.7421875 C9.83664795 3.7201123 8.63032715 3.69803711 7.38745117 3.67529297 C3.64241557 4.03427656 1.23290724 5.12593131 -2 7 C-2.125 4.625 -2.125 4.625 -2 2 C-1.34 1.34 -0.68 0.68 0 0 Z " fill="#F26E2A" transform="translate(229,274)"/>
<path d="M0 0 C3.6875 0.125 3.6875 0.125 5.53808594 0.62670898 C8.32157051 1.27199431 10.90905603 1.23665904 13.765625 1.22265625 C15.50585938 1.21782227 15.50585938 1.21782227 17.28125 1.21289062 C18.4878125 1.20451172 19.694375 1.19613281 20.9375 1.1875 C22.15953125 1.18298828 23.3815625 1.17847656 24.640625 1.17382812 C27.65629946 1.16204815 30.67187498 1.14559853 33.6875 1.125 C33.6875 1.785 33.6875 2.445 33.6875 3.125 C29.91835446 4.3355111 26.33785236 4.22260582 22.40234375 4.1875 C21.70484512 4.18371338 21.0073465 4.17992676 20.28871155 4.17602539 C18.06741059 4.16384307 15.84624152 4.14521279 13.625 4.125 C10.69661803 4.09841575 7.76830094 4.07842002 4.83984375 4.0625 C3.54038818 4.05089844 2.24093262 4.03929687 0.90209961 4.02734375 C-2.33079593 3.97150131 -2.33079593 3.97150131 -5.3125 5.125 C-4.19095304 0.15814917 -4.19095304 0.15814917 0 0 Z " fill="#EC6629" transform="translate(232.3125,259.875)"/>
<path d="M0 0 C0.99 0.33 1.98 0.66 3 1 C2.34 1 1.68 1 1 1 C0.41281408 4.34440677 -0.05863115 7.59939315 0 11 C1.73040118 13.6557715 1.73040118 13.6557715 4 15 C4 14.34 4 13.68 4 13 C7.65938172 14.43164111 11.23988068 15.98934296 14.8125 17.625 C15.78832031 18.07101563 16.76414063 18.51703125 17.76953125 18.9765625 C18.50558594 19.31429687 19.24164063 19.65203125 20 20 C19.67 20.66 19.34 21.32 19 22 C18.29875 21.690625 17.5975 21.38125 16.875 21.0625 C13.86998148 19.95194968 11.19147689 19.28368683 8 19 C7.34 19.66 6.68 20.32 6 21 C6 20.01 6 19.02 6 18 C4.88625 17.9071875 4.88625 17.9071875 3.75 17.8125 C-0.00642921 16.70264591 -1.0572272 15.38186376 -3 12 C-3.69325741 8.1177585 -3.57352823 4.95588038 -1.5 1.5 C-1.005 1.005 -0.51 0.51 0 0 Z " fill="#D63D37" transform="translate(193,164)"/>
<path d="M0 0 C7.07081565 -0.27195445 15.5699856 -0.2150072 22 3 C22 3.99 22 4.98 22 6 C14.25847464 6.39363688 7.47941368 4.94210433 0 3 C0 2.01 0 1.02 0 0 Z " fill="#FFBB1A" transform="translate(154,177)"/>
<path d="M0 0 C4.35077499 1.52400028 8.02727973 3.79244169 11.8125 6.375 C12.7087207 6.95507812 12.7087207 6.95507812 13.62304688 7.546875 C15.33203125 8.7109375 15.33203125 8.7109375 18 11 C18 12.32 18 13.64 18 15 C13.48968553 14.07485476 10.4515941 11.81698605 6.75 9.1875 C6.1003125 8.74857422 5.450625 8.30964844 4.78125 7.85742188 C2.921875 6.54296875 2.921875 6.54296875 0 4 C0 2.68 0 1.36 0 0 Z " fill="#FFBA15" transform="translate(306,234)"/>
<path d="M0 0 C1.32 0 2.64 0 4 0 C3.35184262 4.63681815 2.19842773 8.88262829 0.6875 13.3125 C0.27886719 14.54613281 -0.12976563 15.77976562 -0.55078125 17.05078125 C-2 20 -2 20 -4.16796875 20.91796875 C-4.77253906 20.94503906 -5.37710937 20.97210938 -6 21 C-5.42381249 15.85404946 -4.25256722 11.44921945 -2.4375 6.5625 C-1.98246094 5.32628906 -1.52742188 4.09007813 -1.05859375 2.81640625 C-0.70925781 1.88699219 -0.35992187 0.95757812 0 0 Z " fill="#FFBA16" transform="translate(288,100)"/>
<path d="M0 0 C0 1.32 0 2.64 0 4 C-2.56204544 4.33719047 -5.12454318 4.66987153 -7.6875 5 C-8.40873047 5.09539062 -9.12996094 5.19078125 -9.87304688 5.2890625 C-13.60992871 5.76683735 -17.22291531 6.11919794 -21 6 C-21 4.68 -21 3.36 -21 2 C-18.62561751 1.6616656 -16.25065041 1.32920998 -13.875 1 C-12.87726563 0.85691406 -12.87726563 0.85691406 -11.859375 0.7109375 C-7.87371019 0.16388547 -4.02140062 -0.10022182 0 0 Z " fill="#FFBB19" transform="translate(177,199)"/>
<path d="M0 0 C2.35500948 0.11517421 4.70849073 0.24187978 7.0625 0.375 C8.37347656 0.44460937 9.68445313 0.51421875 11.03515625 0.5859375 C14.98136957 0.99805436 18.24117073 1.79756567 22 3 C21.67 3.99 21.34 4.98 21 6 C14.07 5.34 7.14 4.68 0 4 C0 2.68 0 1.36 0 0 Z " fill="#FFBA18" transform="translate(323,199)"/>
<path d="M0 0 C3.09893927 0.59663486 5.00292174 1.5301314 7.453125 3.50390625 C8.071875 3.99697266 8.690625 4.49003906 9.328125 4.99804688 C9.96234375 5.51431641 10.5965625 6.03058594 11.25 6.5625 C11.8996875 7.08263672 12.549375 7.60277344 13.21875 8.13867188 C14.81727669 9.419844 16.40928626 10.70914005 18 12 C17.67 13.32 17.34 14.64 17 16 C12.84646965 14.26250834 9.65665698 11.43382517 6.25 8.5625 C5.64800781 8.07201172 5.04601562 7.58152344 4.42578125 7.07617188 C2.89016877 5.78604847 1.4377908 4.39831388 0 3 C0 2.01 0 1.02 0 0 Z " fill="#FFB913" transform="translate(171,131)"/>
<path d="M0 0 C1.32 0 2.64 0 4 0 C5.01031065 2.55885226 6.00840145 5.12140376 7 7.6875 C7.28617188 8.40873047 7.57234375 9.12996094 7.8671875 9.87304688 C9.3390502 13.71040321 10.39614998 16.81566589 10 21 C9.01 21 8.02 21 7 21 C5.82504857 18.06574629 4.66149148 15.12710487 3.5 12.1875 C3.16613281 11.35412109 2.83226562 10.52074219 2.48828125 9.66210938 C2.17246094 8.85966797 1.85664063 8.05722656 1.53125 7.23046875 C1.23798828 6.49207764 0.94472656 5.75368652 0.64257812 4.99291992 C0 3 0 3 0 0 Z " fill="#FFBA16" transform="translate(208,100)"/>
<path d="M0 0 C1.32 0.33 2.64 0.66 4 1 C4.50734284 3.3736397 5.00602386 5.74857425 5.5 8.125 C5.64308594 8.79015625 5.78617188 9.4553125 5.93359375 10.140625 C6.7612283 14.16056422 7.15330658 17.89904899 7 22 C6.01 22 5.02 22 4 22 C3.32438628 19.4604163 2.65934172 16.91881165 2 14.375 C1.80921875 13.66214844 1.6184375 12.94929688 1.421875 12.21484375 C0.34982713 8.04151456 -0.21946814 4.34821249 0 0 Z " fill="#FFBA15" transform="translate(234,92)"/>
<path d="M0 0 C0.99 0.33 1.98 0.66 3 1 C1.4493407 5.56642429 -2.1602808 7.65813464 -5.9375 10.3125 C-6.57107422 10.77978516 -7.20464844 11.24707031 -7.85742188 11.72851562 C-9.51252965 12.90675744 -11.25275552 13.96328776 -13 15 C-13.99 14.67 -14.98 14.34 -16 14 C-14.4493407 9.43357571 -10.8397192 7.34186536 -7.0625 4.6875 C-6.11213867 3.98657227 -6.11213867 3.98657227 -5.14257812 3.27148438 C-3.48747035 2.09324256 -1.74724448 1.03671224 0 0 Z " fill="#FFB811" transform="translate(192,234)"/>
<path d="M0 0 C-1.04316203 3.41673359 -2.16689765 4.09615181 -5.3359375 5.921875 C-6.67627824 6.54436527 -8.02295463 7.15335877 -9.375 7.75 C-10.04789062 8.06582031 -10.72078125 8.38164062 -11.4140625 8.70703125 C-14.89651799 10.29058877 -17.11583451 11 -21 11 C-20.953125 9.234375 -20.953125 9.234375 -20 7 C-17.57074575 5.54244745 -15.32386602 4.37939884 -12.75 3.25 C-12.08097656 2.93417969 -11.41195313 2.61835938 -10.72265625 2.29296875 C-7.02780704 0.61613148 -4.0697634 -0.4101312 0 0 Z " fill="#FFB915" transform="translate(341,153)"/>
<path d="M0 0 C0.66 0 1.32 0 2 0 C2.46707789 4.01686987 2.32150834 5.56501812 -0.125 8.875 C-3 11 -3 11 -6 11.625 C-9.98964728 10.79382348 -11.50348869 9.15735254 -14 6 C-14 5.01 -14 4.02 -14 3 C-12.68 3 -11.36 3 -10 3 C-9.01 4.485 -9.01 4.485 -8 6 C-5.41619823 6.25030977 -5.41619823 6.25030977 -3 6 C-2.01 4.02 -1.02 2.04 0 0 Z " fill="#111844" transform="translate(219,149)"/>
<path d="M0 0 C1.32 0 2.64 0 4 0 C3.39386998 3.12413285 2.39972557 5.13369924 0.49609375 7.671875 C0.00302734 8.33574219 -0.49003906 8.99960938 -0.99804688 9.68359375 C-1.51431641 10.36550781 -2.03058594 11.04742187 -2.5625 11.75 C-3.08263672 12.44738281 -3.60277344 13.14476563 -4.13867188 13.86328125 C-5.42014181 15.57974556 -6.70932798 17.29044431 -8 19 C-8.99 18.67 -9.98 18.34 -11 18 C-9.47599972 13.64922501 -7.20755831 9.97272027 -4.625 6.1875 C-4.23828125 5.59001953 -3.8515625 4.99253906 -3.453125 4.37695312 C-2.2890625 2.66796875 -2.2890625 2.66796875 0 0 Z " fill="#FFBA16" transform="translate(309,113)"/>
<path d="M0 0 C-0.86620198 5.07063416 -4.09745638 7.13438696 -7.875 10.3125 C-8.51308594 10.87517578 -9.15117187 11.43785156 -9.80859375 12.01757812 C-10.73478516 12.80745117 -10.73478516 12.80745117 -11.6796875 13.61328125 C-12.24413574 14.09579346 -12.80858398 14.57830566 -13.39013672 15.07543945 C-14.18701904 15.53309692 -14.18701904 15.53309692 -15 16 C-15.99 15.67 -16.98 15.34 -18 15 C-16.51811601 11.43869816 -14.52954306 9.4415828 -11.625 6.9375 C-10.85414063 6.26589844 -10.08328125 5.59429687 -9.2890625 4.90234375 C-3.39014374 0 -3.39014374 0 0 0 Z " fill="#FFB811" transform="translate(329,131)"/>
<path d="M0 0 C-1 3 -1 3 -2.62646484 3.89135742 C-3.31434082 4.12701416 -4.0022168 4.3626709 -4.7109375 4.60546875 C-5.83628906 4.99702148 -5.83628906 4.99702148 -6.984375 5.39648438 C-8.16773438 5.78803711 -8.16773438 5.78803711 -9.375 6.1875 C-10.15617188 6.46013672 -10.93734375 6.73277344 -11.7421875 7.01367188 C-17.55680216 9 -17.55680216 9 -21 9 C-20.71606445 7.10864258 -20.71606445 7.10864258 -20 5 C-17.36453531 3.67482284 -14.9502109 2.65191089 -12.1875 1.6875 C-11.46240234 1.41099609 -10.73730469 1.13449219 -9.99023438 0.84960938 C-6.17129655 -0.53750711 -3.97561944 -1.2817993 0 0 Z " fill="#FFB811" transform="translate(184,219)"/>
<path d="M0 0 C4.22514842 0.73375669 8.18915124 1.94047683 12.25 3.3125 C14.11398437 3.92544922 14.11398437 3.92544922 16.015625 4.55078125 C19 6 19 6 19.921875 8.16796875 C19.94765625 8.77253906 19.9734375 9.37710938 20 10 C15.27497299 9.36757331 11.09429803 8.08186437 6.625 6.4375 C5.98433594 6.20353516 5.34367187 5.96957031 4.68359375 5.72851562 C3.1206839 5.15700381 1.56009273 4.57915771 0 4 C0 2.68 0 1.36 0 0 Z " fill="#FFB912" transform="translate(317,218)"/>
<path d="M0 0 C5.00600922 0.54681024 8.97181067 2.24140333 13.375 4.5625 C14.01566406 4.89185547 14.65632812 5.22121094 15.31640625 5.56054688 C16.88138632 6.36639482 18.44124021 7.18218493 20 8 C20 8.99 20 9.98 20 11 C14.99399078 10.45318976 11.02818933 8.75859667 6.625 6.4375 C5.66400391 5.9434668 5.66400391 5.9434668 4.68359375 5.43945312 C3.11861368 4.63360518 1.55875979 3.81781507 0 3 C0 2.01 0 1.02 0 0 Z " fill="#FFB912" transform="translate(160,153)"/>
<path d="M0 0 C0 0.99 0 1.98 0 3 C-2.54046458 3.50688605 -5.08208876 4.00566874 -7.625 4.5 C-8.33785156 4.64308594 -9.05070312 4.78617188 -9.78515625 4.93359375 C-13.92144935 5.73049426 -17.76433679 6.16034056 -22 6 C-21.67 4.68 -21.34 3.36 -21 2 C-13.94546999 0.79556805 -7.16562789 -0.28100502 0 0 Z " fill="#FFB811" transform="translate(346,177)"/>
<path d="M0 0 C0.33 0 0.66 0 1 0 C1 1.65 1 3.3 1 5 C1.66 5 2.32 5 3 5 C3.20753906 5.79019531 3.41507813 6.58039063 3.62890625 7.39453125 C4.77032817 10.25007895 4.77032817 10.25007895 7.71484375 11.07421875 C8.77832031 11.27660156 9.84179688 11.47898438 10.9375 11.6875 C14.67040348 12.42682353 16.79897483 12.86598322 20 15 C16.24289828 16.87855086 12.08021262 16.66379578 8 16 C4.56596212 13.99988833 1.78824253 11.57648506 0 8 C-0.13415472 5.3276379 -0.04318541 2.67749512 0 0 Z " fill="#DC4833" transform="translate(198,154)"/>
<path d="M0 0 C2.38678756 0.38389113 3.68762299 0.67525978 5.38793945 2.44287109 C5.79230225 3.04695801 6.19666504 3.65104492 6.61328125 4.2734375 C7.05607422 4.9334375 7.49886719 5.5934375 7.95507812 6.2734375 C8.40302734 6.96695313 8.85097656 7.66046875 9.3125 8.375 C9.77978516 9.06078125 10.24707031 9.7465625 10.72851562 10.453125 C13.25554321 14.29032494 13.25554321 14.29032494 14 16 C13.67 16.99 13.34 17.98 13 19 C8.82908473 17.60969491 7.24775083 14.64409711 4.8125 11.1875 C4.34908203 10.55779297 3.88566406 9.92808594 3.40820312 9.27929688 C2.97056641 8.66505859 2.53292969 8.05082031 2.08203125 7.41796875 C1.68218018 6.85875732 1.2823291 6.2995459 0.87036133 5.72338867 C0 4 0 4 0 0 Z " fill="#FFB811" transform="translate(188,113)"/>
<path d="M0 0 C3.4375 0.75 3.4375 0.75 5.4375 2.75 C5.0625 5.375 5.0625 5.375 4.4375 7.75 C1.22020009 8.7611514 -0.16386553 8.92213761 -3.3125 7.5625 C-5.5625 5.75 -5.5625 5.75 -6.375 3.5625 C-6.436875 2.964375 -6.49875 2.36625 -6.5625 1.75 C-3.5625 -0.25 -3.5625 -0.25 0 0 Z " fill="#EA721E" transform="translate(287.5625,189.25)"/>
<path d="M0 0 C1.9375 0.3125 1.9375 0.3125 4 1 C4.33 1.99 4.66 2.98 5 4 C9.29 4.66 13.58 5.32 18 6 C17.67 7.32 17.34 8.64 17 10 C12.19563218 10.38434943 8.90975143 10.47968712 4.5625 8.1875 C2 6 2 6 0 3 C0 2.01 0 1.02 0 0 Z " fill="#0E1446" transform="translate(223,226)"/>
<path d="M0 0 C0.99 0 1.98 0 3 0 C2.85856168 2.7294586 2.71200471 5.45848123 2.5625 8.1875 C2.50352539 9.34088867 2.50352539 9.34088867 2.44335938 10.51757812 C2.22492966 14.43251075 1.91307892 18.17120688 1 22 C0.01 22 -0.98 22 -2 22 C-2.13711613 14.97660718 -2.02354874 7.96265875 -1 1 C-0.67 0.67 -0.34 0.34 0 0 Z " fill="#FFB80E" transform="translate(261,92)"/>
<path d="M0 0 C3.375 -0.125 3.375 -0.125 7 0 C9 2 9 2 9 6 C7.58622218 6.36552803 6.16879424 6.71695495 4.75 7.0625 C3.96109375 7.25972656 3.1721875 7.45695312 2.359375 7.66015625 C-0.10394822 8.01497267 -1.65604132 7.76877544 -4 7 C-2.68 4.69 -1.36 2.38 0 0 Z " fill="#9A074D" transform="translate(267,274)"/>
<path d="M0 0 C3.63 0 7.26 0 11 0 C11 1.98 11 3.96 11 6 C2.57142857 8.28571429 2.57142857 8.28571429 -2 8 C-1.525625 7.401875 -1.05125 6.80375 -0.5625 6.1875 C1.16465744 3.99617076 1.16465744 3.99617076 2 1 C1.34 0.67 0.68 0.34 0 0 Z " fill="#9C074D" transform="translate(264,260)"/>
<path d="M0 0 C2.97 0.33 5.94 0.66 9 1 C9.33 2.98 9.66 4.96 10 7 C3.07 6.505 3.07 6.505 -4 6 C-2.68 4.02 -1.36 2.04 0 0 Z " fill="#F38117" transform="translate(264,182)"/>
<path d="M0 0 C1.65 0 3.3 0 5 0 C6 1 6 1 6.1328125 3.03125 C6.13023437 3.8459375 6.12765625 4.660625 6.125 5.5 C6.12757813 6.3146875 6.13015625 7.129375 6.1328125 7.96875 C6 10 6 10 5 11 C3.35 11 1.7 11 0 11 C0 7.37 0 3.74 0 0 Z " fill="#F7F8F9" transform="translate(279,344)"/>
<path d="M0 0 C0.721875 0.12375 1.44375 0.2475 2.1875 0.375 C-2.5625 4.375 -2.5625 4.375 -4.8125 4.375 C-5.14377541 9.73134082 -5.14377541 9.73134082 -3.8125 14.8125 C-0.68807112 17.25346006 2.2702601 17.11813181 6.1875 17.375 C4.1875 19.375 4.1875 19.375 0.875 19.8125 C-2.8125 19.375 -2.8125 19.375 -5.75 17.375 C-7.90426849 14.24151856 -8.55429959 12.19616817 -8.30078125 8.37890625 C-7.2199779 3.94328929 -4.70829053 0.62777207 0 0 Z " fill="#F7AA95" transform="translate(208.8125,146.625)"/>
<path d="M0 0 C7.42857143 -0.14285714 7.42857143 -0.14285714 11 1 C11 2.98 11 4.96 11 7 C7.75 7.3125 7.75 7.3125 4 7 C1.5625 4.625 1.5625 4.625 0 2 C0 1.34 0 0.68 0 0 Z " fill="#D20250" transform="translate(223,249)"/>
<path d="M0 0 C0.33 0 0.66 0 1 0 C1.66 2.97 2.32 5.94 3 9 C3.33 9 3.66 9 4 9 C4 6.69 4 4.38 4 2 C5.9375 2.5625 5.9375 2.5625 8 4 C9 7.375 9 7.375 9 11 C7.0625 13.4375 7.0625 13.4375 5 15 C0.64308829 9.79981505 -0.12778626 6.77267164 0 0 Z " fill="#DC323F" transform="translate(185,188)"/>
<path d="M0 0 C0.33 0 0.66 0 1 0 C1.33 1.98 1.66 3.96 2 6 C2.33 6 2.66 6 3 6 C3.10808032 13.09727428 2.93854006 19.96094956 2 27 C1.34 27 0.68 27 0 27 C0 18.09 0 9.18 0 0 Z " fill="#C63A36" transform="translate(258,230)"/>
<path d="M0 0 C2.00948183 0.01778303 4.01668765 0.16786374 6.01953125 0.33203125 C6.01953125 4.62203125 6.01953125 8.91203125 6.01953125 13.33203125 C2.71953125 13.33203125 -0.58046875 13.33203125 -3.98046875 13.33203125 C-3.98046875 13.00203125 -3.98046875 12.67203125 -3.98046875 12.33203125 C-1.01046875 12.33203125 1.95953125 12.33203125 5.01953125 12.33203125 C5.01953125 9.69203125 5.01953125 7.05203125 5.01953125 4.33203125 C1.71953125 4.66203125 -1.58046875 4.99203125 -4.98046875 5.33203125 C-3.05235036 0.51173527 -3.05235036 0.51173527 0 0 Z " fill="#B10F4A" transform="translate(242.98046875,244.66796875)"/>
<path d="M0 0 C7.42857143 -0.28571429 7.42857143 -0.28571429 11 2 C10.34 3.65 9.68 5.3 9 7 C7.35 7 5.7 7 4 7 C3.34 5.68 2.68 4.36 2 3 C1.01 3 0.02 3 -1 3 C-0.67 2.01 -0.34 1.02 0 0 Z " fill="#E3522D" transform="translate(207,149)"/>
<path d="M0 0 C0 2.31 0 4.62 0 7 C-3.46994421 7.39656505 -4.72510143 7.19635612 -7.625 5.125 C-8.40875 4.42375 -9.1925 3.7225 -10 3 C-10.99 2.34 -11.98 1.68 -13 1 C-11.02087544 0.83283412 -9.04169915 0.66628044 -7.0625 0.5 C-5.40927734 0.36078125 -5.40927734 0.36078125 -3.72265625 0.21875 C-1 0 -1 0 0 0 Z " fill="#E22241" transform="translate(248,217)"/>
<path d="M0 0 C3.3 0.99 6.6 1.98 10 3 C8.02 5.97 8.02 5.97 6 9 C3.03 8.505 3.03 8.505 0 8 C0 7.01 0 6.02 0 5 C0.66 5.33 1.32 5.66 2 6 C1.34 5.01 0.68 4.02 0 3 C0 2.01 0 1.02 0 0 Z " fill="#DA2343" transform="translate(195,211)"/>
<path d="M0 0 C3.69230769 0.69230769 3.69230769 0.69230769 5 2 C5.23529412 7.52941176 5.23529412 7.52941176 4 10 C2.0625 9.625 2.0625 9.625 0 9 C-1.36623674 6.26752652 -1.128426 4.01801098 -1 1 C-0.67 0.67 -0.34 0.34 0 0 Z " fill="#E98615" transform="translate(261,166)"/>
<path d="M0 0 C0.33 0.99 0.66 1.98 1 3 C-4.78357065 5.01167675 -9.90218999 5.22084624 -16 5 C-14.09645193 2.49171464 -12.99420274 1.99864995 -9.86328125 1.26953125 C-8.10564453 1.04330078 -8.10564453 1.04330078 -6.3125 0.8125 C-5.13300781 0.65394531 -3.95351563 0.49539063 -2.73828125 0.33203125 C-1.83464844 0.22246094 -0.93101562 0.11289062 0 0 Z " fill="#5A0B4B" transform="translate(274,280)"/>
<path d="M0 0 C0.33 0 0.66 0 1 0 C1.125 2.375 1.125 2.375 1 5 C-1.66782556 7.66782556 -3.60604884 7.59610663 -7.3125 8.125 C-9.00826172 8.37636719 -9.00826172 8.37636719 -10.73828125 8.6328125 C-13.53427619 8.94757121 -16.19156059 9.07376764 -19 9 C-15.48772716 5.6959289 -11.86621795 5.28808389 -7.25 4.8125 C-6.55261719 4.73064453 -5.85523438 4.64878906 -5.13671875 4.56445312 C-3.42573224 4.36522867 -1.71299963 4.18110071 0 4 C0 2.68 0 1.36 0 0 Z " fill="#5A0B4B" transform="translate(275,262)"/>
<path d="M0 0 C-1.24976756 3.65316671 -1.67098753 4.78065836 -5 7 C-5.99 7 -6.98 7 -8 7 C-7.74438677 4.6568787 -7.40729228 2.32156597 -7 0 C-4.3333581 -1.33332095 -2.83319697 -0.67102033 0 0 Z " fill="#E27E18" transform="translate(285,172)"/>
<path d="M0 0 C0.99 0.33 1.98 0.66 3 1 C5.1852294 8.0157365 5.22238211 14.69845409 5 22 C3.14323642 18.75260595 2.49549076 15.81055243 1.9375 12.125 C1.78152344 11.11695313 1.62554687 10.10890625 1.46484375 9.0703125 C1.31144531 8.05710938 1.15804688 7.04390625 1 6 C0.66966385 3.99950278 0.33720398 1.99935104 0 0 Z " fill="#E7BC89" transform="translate(309,170)"/>
<path d="M0 0 C0.11083416 5.43087408 0.11115605 10.66645094 -1 16 C-1.66 16.33 -2.32 16.66 -3 17 C-3 11.72 -3 6.44 -3 1 C-1 0 -1 0 0 0 Z " fill="#E85C28" transform="translate(262,220)"/>
<path d="M0 0 C2.1640625 0.0234375 2.1640625 0.0234375 4.625 0.375 C5.85089844 0.54128906 5.85089844 0.54128906 7.1015625 0.7109375 C7.72804687 0.80632812 8.35453125 0.90171875 9 1 C7.70676893 3.58646214 6.74300003 3.63668534 4.0625 4.5625 C1.96206733 5.29822324 -0.00802626 6.00401313 -2 7 C-2.125 4.625 -2.125 4.625 -2 2 C-1.34 1.34 -0.68 0.68 0 0 Z " fill="#ECA19D" transform="translate(229,274)"/>
<path d="M0 0 C1.0725 0.309375 2.145 0.61875 3.25 0.9375 C3.58 1.5975 3.91 2.2575 4.25 2.9375 C2.97125 2.89625 1.6925 2.855 0.375 2.8125 C-1.76871492 2.69537127 -1.76871492 2.69537127 -3.75 2.9375 C-5.70216435 4.88966435 -6.59826645 6.46949953 -7.75 8.9375 C-8.5625 7.25 -8.5625 7.25 -8.75 4.9375 C-5.99750359 1.06680193 -4.83326685 -0.08055445 0 0 Z " fill="#F7A47C" transform="translate(239.75,128.0625)"/>
<path d="M0 0 C3.3 0.33 6.6 0.66 10 1 C10 1.33 10 1.66 10 2 C9.06027344 2.30744141 9.06027344 2.30744141 8.1015625 2.62109375 C7.28429687 2.89050781 6.46703125 3.15992188 5.625 3.4375 C4.81289062 3.70433594 4.00078125 3.97117187 3.1640625 4.24609375 C0.98968201 4.95179729 0.98968201 4.95179729 -1 6 C-0.67 4.02 -0.34 2.04 0 0 Z " fill="#EEA29B" transform="translate(228,289)"/>
<path d="M0 0 C0.495 0.639375 0.99 1.27875 1.5 1.9375 C4.98806387 4.81515269 7.53461041 4.70230736 12 5 C10 7 10 7 6.5625 7.25 C3 7 3 7 0 5 C-0.1875 2.375 -0.1875 2.375 0 0 Z " fill="#F59984" transform="translate(203,159)"/>
<path d="M0 0 C1 2 1 2 0.3125 5.0625 C-1 8 -1 8 -3.125 8.875 C-3.74375 8.91625 -4.3625 8.9575 -5 9 C-3.50163895 5.88801935 -1.80066242 2.9465385 0 0 Z " fill="#E85D27" transform="translate(312,197)"/>
<path d="M0 0 C1.32 0 2.64 0 4 0 C3.67 1.98 3.34 3.96 3 6 C1.35 6 -0.3 6 -2 6 C-1.34 4.02 -0.68 2.04 0 0 Z " fill="#DD771B" transform="translate(270,173)"/>
<path d="M0 0 C0.33 0 0.66 0 1 0 C1.28875 1.2375 1.5775 2.475 1.875 3.75 C2.61334794 6.72448742 3.44474933 9.333856 5 12 C0.125 9.25 0.125 9.25 -1 7 C-1.125 3.9375 -1.125 3.9375 -1 1 C-0.67 0.67 -0.34 0.34 0 0 Z " fill="#F49B92" transform="translate(193,168)"/>
<path d="M0 0 C0.99 0.33 1.98 0.66 3 1 C2.2884375 1.804375 2.2884375 1.804375 1.5625 2.625 C-0.28186076 5.42842836 -0.62456847 7.69620258 -1 11 C-1.66 11 -2.32 11 -3 11 C-3.36923077 4.6 -3.36923077 4.6 -1.5 1.5625 C-1.005 1.046875 -0.51 0.53125 0 0 Z " fill="#E65B39" transform="translate(202,148)"/>
<path d="M0 0 C2.64 0.33 5.28 0.66 8 1 C8 1.99 8 2.98 8 4 C5.69 3.67 3.38 3.34 1 3 C0.67 2.01 0.34 1.02 0 0 Z " fill="#730C4E" transform="translate(227,295)"/>
<path d="M0 0 C3.63 0 7.26 0 11 0 C11 0.66 11 1.32 11 2 C6.545 2.495 6.545 2.495 2 3 C2 2.34 2 1.68 2 1 C1.34 0.67 0.68 0.34 0 0 Z " fill="#A2492F" transform="translate(264,260)"/>
<path d="M0 0 C2.31 0.33 4.62 0.66 7 1 C7.33 2.32 7.66 3.64 8 5 C5.36 4.01 2.72 3.02 0 2 C0 1.34 0 0.68 0 0 Z " fill="#E57A1A" transform="translate(284,189)"/>
<path d="M0 0 C1.2065625 0.0309375 1.2065625 0.0309375 2.4375 0.0625 C2.7675 0.7225 3.0975 1.3825 3.4375 2.0625 C0.7975 3.0525 -1.8425 4.0425 -4.5625 5.0625 C-3.31710123 0.08090491 -3.31710123 0.08090491 0 0 Z " fill="#F1A89A" transform="translate(231.5625,259.9375)"/>
<path d="M0 0 C0 0.66 0 1.32 0 2 C-3.47325181 3.1577506 -6.36067448 3.06866652 -10 3 C-9.67 2.34 -9.34 1.68 -9 1 C-5.85554549 0.15014743 -3.29227921 0 0 0 Z " fill="#EC6424" transform="translate(266,275)"/>
<path d="M0 0 C2.31 0 4.62 0 7 0 C7.33 0.66 7.66 1.32 8 2 C3.545 2.495 3.545 2.495 -1 3 C-0.67 2.01 -0.34 1.02 0 0 Z " fill="#974730" transform="translate(267,274)"/>
<path d="M0 0 C3.465 1.485 3.465 1.485 7 3 C7 3.66 7 4.32 7 5 C4.03 4.505 4.03 4.505 1 4 C0.67 2.68 0.34 1.36 0 0 Z " fill="#720A4D" transform="translate(227,265)"/>
</svg>
